<svg id="Layer_1" data-name="Layer 1" xmlns="http://www.w3.org/2000/svg" viewBox="0 0 122.78 82.64"><defs><style>.cls-1{fill:none;stroke:#af7c58;stroke-miterlimit:10;stroke-width:2px;}.cls-2{fill:#af7c58;}</style></defs><path class="cls-1" d="M134,71.52c-6-6-9.77-14.62-9.77-14.62C122,63,117.93,68,113.68,72.75c-1.32,1.49-2.63,3-4,4.47a87,87,0,0,1-19.2,16,51.05,51.05,0,0,1,11,8.9c5.63,6.35,17.37,11.06,32.88,3l.59-.59C144,89.52,140,77.52,134,71.52Z" transform="translate(-18.48 -27.76)"/><line class="cls-1" x1="91.22" y1="24.97" x2="91.22" y2="49.26"/><line class="cls-1" x1="75.22" y1="30.65" x2="75.22" y2="63.26"/><line class="cls-1" x1="65.49" y1="49.89" x2="90.85" y2="49.89"/><line class="cls-1" x1="71.74" y1="33.89" x2="103.51" y2="33.89"/><path class="cls-1" d="M109.71,77.22c1.34-1.48,2.66-3,4-4.47C117.93,68,122,63,124.21,56.9c3.51-9.74-19.79-3-23.82-1.84C89.46,58.3,83.37,69.49,84,80.52c.15,2.7-.14,14.28,4.61,13.6a4.73,4.73,0,0,0,1.71-.74A87,87,0,0,0,109.71,77.22Z" transform="translate(-18.48 -27.76)"/><path class="cls-1" d="M25.75,71.52c6-6,9.77-14.62,9.77-14.62C37.72,63,41.81,68,46.05,72.75c1.32,1.49,2.64,3,4,4.47a86.82,86.82,0,0,0,19.21,16,50.81,50.81,0,0,0-11,8.9c-5.63,6.35-17.37,11.06-32.88,3l-.6-.59C15.75,89.52,19.75,77.52,25.75,71.52Z" transform="translate(-18.48 -27.76)"/><line class="cls-1" x1="31.55" y1="24.97" x2="31.55" y2="49.26"/><line class="cls-1" x1="47.55" y1="30.65" x2="47.55" y2="63.26"/><line class="cls-1" x1="57.28" y1="49.89" x2="31.93" y2="49.89"/><line class="cls-1" x1="51.04" y1="33.89" x2="19.23" y2="33.89"/><path class="cls-1" d="M50,77.22c-1.33-1.48-2.65-3-4-4.47C41.81,68,37.72,63,35.52,56.9c-3.5-9.74,19.8-3,23.82-1.84,10.94,3.24,17,14.43,16.41,25.46-.15,2.7.15,14.28-4.61,13.6a4.81,4.81,0,0,1-1.71-.74A87.5,87.5,0,0,1,50,77.22Z" transform="translate(-18.48 -27.76)"/><path class="cls-2" d="M91.43,60.4c-.58.33-.5,0-.67-.08l-.37-.38-.74-.75-1.48-1.52c-1-1-2-2-3-3-1.95-2-3.89-4.1-5.76-6.22l0,0a1,1,0,0,1-.25-.66V28.76a1,1,0,0,1,2,0V47.7L80.87,47C83,48.87,85,50.81,87.09,52.76c1,1,2,2,3,3l1.52,1.48.75.74.38.37c.08.17.41.1.08.67A3.87,3.87,0,0,1,91.43,60.4Z" transform="translate(-18.48 -27.76)"/><path class="cls-2" d="M80.85,48.42c-2,2.11-4,4.16-6.1,6.2-1,1-2.07,2-3.1,3l-1.56,1.51-.78.75-.39.38c-.17.09-.15.38-.64.13A3.12,3.12,0,0,1,66.9,59c-.22-.5.06-.47.16-.63l.39-.37.79-.74,1.58-1.49c1.06-1,2.1-2,3.18-3,2.13-2,4.27-3.91,6.47-5.8a1,1,0,0,1,1.38,1.44Z" transform="translate(-18.48 -27.76)"/></svg>