<svg id="Layer_1" data-name="Layer 1" xmlns="http://www.w3.org/2000/svg" viewBox="0 0 57.44 41.69"><defs><style>.cls-1{fill:#623d2d;}</style></defs><path class="cls-1" d="M1.14,19.57C.93,24.64,5.14,30.62,9,33.7A22.27,22.27,0,0,0,25,38.82a35.1,35.1,0,0,0,6.58-1.35c1.45-.42,7.79-3.8,7.22-4.11-.13-.06-.44.22-.56.15.72.39-3.23,2.56-3.85,2.86A27.11,27.11,0,0,1,23.7,38.7a19.78,19.78,0,0,1-10.29-2.62c-5.59-3.26-12-9.64-11.72-16.66,0,.06-.55.09-.55.15"/><path class="cls-1" d="M15,37.54a.43.43,0,0,1-.06-.4c0,.09-.52.06-.56.15a.39.39,0,0,0,.06.4c0,.06.52-.2.56-.15a.35.35,0,0,1-.06-.4l-.56.15a.51.51,0,0,0,.06.4s.54-.19.56-.15"/><path class="cls-1" d="M14.73,37.48a.88.88,0,0,0,0,.36s.56-.1.55-.15a.74.74,0,0,1,0-.36c0,.08-.54.07-.56.15"/><path class="cls-1" d="M14.37,37.84a21.69,21.69,0,0,0,14.19,1.44c1.48-.35,5.93-1.24,5.91-3,0,0-.56.09-.56.15,0,.3,0,.61,0,.92,0,0,.5-.12.55-.15-5.43,3.29-13.68,3.11-19.56.46-.14-.06-.42.21-.55.15"/><path class="cls-1" d="M37.8,34.53a7.64,7.64,0,0,0,2-.18,2,2,0,0,0,.34-.13,2.19,2.19,0,0,1,1.6-.29c.17,0,.39-.18.55-.15a4.07,4.07,0,0,0-2.81.65l.55-.15a9.76,9.76,0,0,1-1.71.11c-.18,0-.36.14-.55.14"/><path class="cls-1" d="M39.85,34.44c5.78-.53,16.63-.68,17.55-8.8.48-4.16-3.19-8.51-7.61-7.76-.14,0-.29.08-.43.11.22,0-1.57.63-1.55.63-1-.3-.26-2.65-.19-3.31,0,.07-.54.07-.55.15-.35,1.94,0,3.47,1.86,2.61-.17.08-.38.06-.55.14-.92.43-1.08-4.49-1.5-.92-.14,1.18,0,1.2.86,1.44s2.28-.91,3.53-.67a7.13,7.13,0,0,1,5,9.85c-2.76,5.81-10.39,5.88-15.88,6.38-.19,0-.37.14-.56.15"/><path class="cls-1" d="M44.78,25.12a5.82,5.82,0,0,1-1.24,3.11c-.28.32-1.19.8-1.28,1.25-.21,1,5.08.55,6,.46,1.7-.17,4.3-.51,5.6-1.77s.79-4-.43-5.31a5.92,5.92,0,0,0-5-1.3l-.52.14a4.4,4.4,0,0,0-2.32,1.68c-.21.42,0,.61-.09.9a4,4,0,0,1-.86,1.39c.09-.12.46,0,.55-.15a5.62,5.62,0,0,0,.88-1.21c.1-.27-.25-.49-.14-.83.29-.87,1.77-1.63,2.53-1.93l-.55.15c2.14-.31,4.72.37,5.66,2.48,1.6,3.59-1,5.12-4.36,5.57-1,.13-6.3.72-6.45-.3-.06-.4,1-1,1.24-1.28A5.88,5.88,0,0,0,45.33,25c0,.07-.54.07-.55.15"/><path class="cls-1" d="M1.62,19.5c-.2-2.24-.36-4.48-.52-6.73C1.05,12,1.19,8.3.55,8.08.4,8,.15,8.28,0,8.23c.63.21.5,4,.55,4.69.15,2.24.32,4.49.51,6.73,0,0,.56-.11.56-.15"/><path class="cls-1" d="M47.73,14.86l.12-2.22a3.74,3.74,0,0,0-.13-1.94s-.53.18-.55.15a3.73,3.73,0,0,1,.12,1.94c0,.74-.07,1.48-.11,2.22,0-.06.55-.09.55-.15"/><path class="cls-1" d="M27.2.8C31.72,1,50.2,3.67,47,11.6c0-.1.51,0,.55-.15C50.76,3.52,32.26.81,27.76.66c-.19,0-.38.15-.56.14"/><path class="cls-1" d="M.77,8.13C4.3,3,10.81,1.3,16.71.86A82.54,82.54,0,0,1,26.27.33c2,.08.73,0,0,.06-1.57.08-3.16.06-4.73.11-3.13.1-11-.61-13.82,2.15.12-.12.43,0,.55-.15C10.85,0,19,.7,22.58.6c.87,0,4.09.48,4.85-.11C28.65-.45,22.61.24,22,.29,14.14.89,5.21.94.22,8.28c.08-.12.47,0,.55-.15"/><path class="cls-1" d="M24.74,1.91c-3.84.45-25.6.85-21.56,9.62a5.57,5.57,0,0,0,.55-.14L4,11.3c-.13,0-.37.09-.53.15a12.4,12.4,0,0,1-.38-2.81A3.93,3.93,0,0,1,4.28,6.9,13,13,0,0,1,9.78,4c4.64-1.35,9.62-1.41,14.41-2,.19,0,.37-.12.55-.14"/><path class="cls-1" d="M43.24,15.13c1.91-1,3.58-3,2.7-5.31a7.57,7.57,0,0,0-5.08-4.14c-.18,0-.38.17-.56.15A7.57,7.57,0,0,1,45.39,10c.9,2.3-.81,4.32-2.71,5.31.17-.09.39-.07.56-.15"/><path class="cls-1" d="M23.83,2.24A33.4,33.4,0,0,1,36.45,3.69a25.3,25.3,0,0,1,5.61,2.18,6.41,6.41,0,0,1,2,1.64c.41.54,1,2.88,1.66,2.88-.18,0-.37.15-.55.15h.23c.06,0,.55-.16.56-.15C44.52,6,41.24,4.8,37,3.54A33.37,33.37,0,0,0,24.38,2.09c-.19,0-.37.13-.55.15"/><path class="cls-1" d="M3.75,11.26l-.4,0c-.1,0-.48.2-.55.15,2.29,1.68,2.93,3.21,5.8,4.12,2.6.83,5,2,7.71,2.49a60.61,60.61,0,0,0,18.82-.18c4.38-.71,12.68-2.43,10.77-8a5.62,5.62,0,0,0-.55.15c3.1,9-17.55,8.25-22.69,8.28a31,31,0,0,1-11.31-2,36.1,36.1,0,0,1-4.23-1.38c-1.22-.66-2.39-3.55-3.92-3.47.19,0,.37-.14.55-.15"/><path class="cls-1" d="M44.63,8.08a.16.16,0,0,1,0,.16c0-.05.56-.09.56-.15a.19.19,0,0,0,0-.16s-.54.18-.55.15"/><path class="cls-1" d="M46.85,18.39a3.31,3.31,0,0,0-1.39,1.07c-.34.4-1,1.23-.94,1.79,0,0,.5-.13.54-.15h0v0l-.55.15v0l.54-.14c-.06-.5.54-1.28.82-1.64a3.4,3.4,0,0,1,1.5-1.21l-.54.14"/><path class="cls-1" d="M47.08,18.54a4.29,4.29,0,0,0-1.2,1c-.21.35-.09.81-.21,1.19l.55-.15a2.31,2.31,0,0,1,.66-1.82l-.07,0,.24-.07a2.26,2.26,0,0,0,.37-.11l-.55.14c.22,0,0,.09-.14.14l-.3.17a3.78,3.78,0,0,0-.57.49,1.63,1.63,0,0,0-.68,1.26s.53-.09.56-.15c.22-.49.5-1,.76-1.45s.78-.46.86-1c0,.07-.54.07-.55.15-.08.58-.62.58-.87,1s-.54,1-.76,1.46l.56-.15c-.06-.8.83-1.52,1.47-1.87,0,0,.51-.19.2-.18a.59.59,0,0,0-.19.05,3.81,3.81,0,0,0-.45.13l.55-.14a3.49,3.49,0,0,0-.9.22c-.67.3-.72,1.24-.75,1.87,0-.07.53-.08.55-.15.12-.38,0-.83.21-1.19a4.33,4.33,0,0,1,1.21-1c-.15.1-.41,0-.56.15"/><path class="cls-1" d="M42.19,29.9a12.09,12.09,0,0,1-.83.92c.12-.11.44,0,.56-.15a10.34,10.34,0,0,0,.82-.92c-.1.12-.46,0-.55.15"/><path class="cls-1" d="M34.32,36.83l0-.13-.55.15c.46.14-.23.58-.42.68l.55-.14-.29,0a5.62,5.62,0,0,1-.55.15,2,2,0,0,0,1.33-.53l-.56.15a.1.1,0,0,1,.14.06l.55-.15a.69.69,0,0,1-.28-.68l-.55.15.08.22s.52-.12.56-.15a10.52,10.52,0,0,1,2.69-1.88l-.55.15a12.57,12.57,0,0,0,2.3-.6l-.55.14a3.27,3.27,0,0,1,.7-.08c.19,0,.37-.14.55-.14a7,7,0,0,0-2.19.57l.55-.15a6.55,6.55,0,0,0-1.32.25,10.17,10.17,0,0,0-2.74,1.89l.56-.15-.09-.22a4.12,4.12,0,0,0-.55.15.67.67,0,0,0,.28.68c.06.07.5-.21.55-.15-.24-.29-1,.32-1.11.44l.55-.15-.34,0-.55.15c.26-.05,2-.66,1.25-.89a2.34,2.34,0,0,0-.55.15l0,.13c0-.08.53-.06.55-.15"/><path class="cls-1" d="M39.81,34.24c-.22-.27-1,.08-1.32.18a6.2,6.2,0,0,0-2.67,1.68c.11-.11.44,0,.55-.15a6.35,6.35,0,0,1,1.27-1c.32-.2,1.34-.87,1.61-.52,0,.06.51-.2.56-.15"/><path class="cls-1" d="M8.37,12.32a.9.9,0,0,1,.38-.25l-.56.15a1.35,1.35,0,0,1,.84.13c.22.14.16.31-.06.4l.55-.15a4.72,4.72,0,0,0-1.39.34l.54-.14c-.22,0-.49-.06-.38-.34,0,.11-.5,0-.55.15-.27.65,1.11.12,1.31,0l-.47.13c.18,0,1.72-.2.95-.59a1.73,1.73,0,0,0-1.72.28c.12-.11.44,0,.56-.14"/><path class="cls-1" d="M11.31,12.9c.14-.12.88-.73.81-.2,0,.28-.74.64-.9.31,0,0-.54.17-.55.14.19.41,2-.19,2-.6s-.47-.17-.72-.11a2.89,2.89,0,0,0-1.21.61c.13-.11.43,0,.56-.15"/><path class="cls-1" d="M15.26,11.9l.58-.24-.55.15c.31.78,1.16.65,1.85.95A14.89,14.89,0,0,0,19.7,14.1a8.59,8.59,0,0,0,3.89-.36,3.9,3.9,0,0,0,.47-.13,31.79,31.79,0,0,0-.37-3.79c-.27-1.23-.53-1.33-1.4-2.09-1.39-1.22-2.53-2.93-4.6-2.87a18,18,0,0,0-4.28,1c-1.32.38-3,.81-3.37,2.28a3.85,3.85,0,0,0,.47,2.72c.61.66,1.3.41,2.14.51a4.19,4.19,0,0,0,3.2-.41l-.55.15v.71l.56-.15a5.25,5.25,0,0,0-1.92.36c.17-.08.38-.07.55-.15l.3-.13-.56.15,1.07-.08a4.43,4.43,0,0,0,.56-.15c0-.24,0-.47,0-.71,0,0-.5.12-.55.15l-.67.38.54-.15a9.93,9.93,0,0,1-3.74-.24c-.86-.47-1.1-2.54-.79-3.36.61-1.64,3.25-2,4.71-2.37,2.2-.52,3.29-.44,5,1a19.72,19.72,0,0,1,2.34,2.12,7.55,7.55,0,0,1,.75,4.3c-.73,2-3.36,1.19-4.64.42-.82-.48-2.58-.7-2.93-1.57a3.85,3.85,0,0,0-.55.15l-.58.23c.17-.07.37-.07.55-.14"/><path class="cls-1" d="M20.63,12.94a16.28,16.28,0,0,0-1.95-4.67C17.76,7,16.37,6.59,15,6.05c-.11,0-.46.22-.55.15,1.35,1,3.19,1.74,4.37,2.92s1.1,3.34,1.31,4.86c0,0,.55-.11.55-.14-.2-1.54-.14-3.69-1.31-4.87S16.3,7.06,15,6.05l-.55.15c1.41.54,2.81.94,3.73,2.22a16.28,16.28,0,0,1,1.95,4.67l.55-.15"/><path class="cls-1" d="M19.07,14.56l.67-.22-.42.11c.9-.17,1.79-.14,2.69-.36l.3-.08a3.33,3.33,0,0,1,2.52.05,1.5,1.5,0,0,0,.56-.15,0,0,0,0,0,0-.09c0-.05-.53.19-.56.15s0,.06,0,.09l.56-.15a3.75,3.75,0,0,0-2.17-.15,12.25,12.25,0,0,1-1.89.41,10.59,10.59,0,0,0-2.81.53c.18-.06.37-.08.55-.14"/><path class="cls-1" d="M22.26,8.09c3.45-.81,7.5-1.37,11-.61,2.56.55,2.35,2.78,2.08,5,0-.07.54-.07.55-.15.36-2.82.17-4.72-3-5.07A29.67,29.67,0,0,0,22.8,8l-.54.14"/><path class="cls-1" d="M23.67,13.39c.19,0,.37-.15.56-.15-.19,0-.37.15-.56.15"/><path class="cls-1" d="M25.46,10l-1.67-.2c-.17,0-.38.17-.55.15,3.27.52,7.14-.27,10.37-.91a3.87,3.87,0,0,0,2-.84h0c-3.29.7-6.8,2-10.18,1.8-.19,0-.38.15-.56.14a18.17,18.17,0,0,0,4.7-.57c.47-.1,5.09-1.44,5.32-1l-5.16.94a17.13,17.13,0,0,1-6,.29l-.55.15,1.66.19c.18,0,.38-.17.56-.14"/><path class="cls-1" d="M25.22,14l.22-.1-.56.15c3-.44,6.14-.64,9.11-1.3a5.07,5.07,0,0,0,2.5-1.17c-.12.12-.43,0-.55.15-1.29,1.17-3.17,1.14-4.81,1.36a53.74,53.74,0,0,0-5.69.81,3.73,3.73,0,0,0-.78.25c.17-.08.39-.07.56-.15"/><path class="cls-1" d="M36.91,14.07a1.53,1.53,0,0,1,.74-.82l-.55.15c.39,0,.77.72.36.93l.55-.15a.85.85,0,0,1-.89-.34c0-.06-.51.21-.56.15a.94.94,0,0,0,1.11.28c.38-.1.62-.16.45-.63s-.44-.4-.82-.3a1.44,1.44,0,0,0-.94.88c0-.11.5,0,.55-.15"/><path class="cls-1" d="M40.12,10.69a.94.94,0,0,1,.54-.63l-.55.15c.3-.08.33.42.39.63l.56-.15a8.48,8.48,0,0,0-1.23-.09c-.19,0-.37.11-.56.15a8.48,8.48,0,0,1,1.23.09c.06,0,.55-.15.56-.15-.06-.19-.09-.61-.32-.65a1.19,1.19,0,0,0-.36.09,1,1,0,0,0-.81.71c0-.09.52-.05.55-.15"/><path class="cls-1" d="M23.63,15.46c.09-.32.62-.49.9-.62L24,15c.28,0,.58.36.29.54l.55-.15a5.62,5.62,0,0,1-.92,0c-.15,0-.8,0-.49-.15-.17.08-.39.07-.56.15s-.06.07.06.11a3,3,0,0,0,.61.06,5,5,0,0,0,.77,0c.17,0,.64-.1.67-.31.08-.82-1.78,0-1.88.39,0-.09.53,0,.56-.15"/><path class="cls-1" d="M28.18,15.41a7.15,7.15,0,0,1,.7-.53L28.6,15l.12,0-.28.07c.29,0,.82.42.41.62l.55-.15c-.23,0-.45,0-.68,0s-.52.07-.29-.14l-.55.14.12,0c.19,0,.37-.11.55-.14-.26,0-.72.07-.79.37h0c.43-.08.86,0,1.28-.1.27-.07.65-.12.42-.5-.4-.66-1.52.23-1.84.49.13-.11.41,0,.55-.15"/><path class="cls-1" d="M30.58,15.14c.2-.1.36-.27.57-.35l-.54.15c.09,0,.32,0,.34.13s-.22.07-.34.07-.37.15-.55.15a3.37,3.37,0,0,0,.89-.14c.18-.05.69-.12.48-.31s-1.16.33-1.41.45c.17-.08.39-.06.56-.15"/><path class="cls-1" d="M32.14,15.46c0-.13.08-.15.21-.2l-.54.14a2.88,2.88,0,0,1,.83-.13c.23,0,.34.22.09.34l.55-.15c-.22,0-1.31.23-1.18-.18,0,.1-.52.05-.55.15-.13.4,1,.21,1.26.16s.68-.11.62-.33-1.73,0-1.85.35c0-.09.52,0,.56-.15"/><path class="cls-1" d="M34,14.74a.69.69,0,0,1,.41-.29l-.54.15c.21,0,.71-.14.76.15l.55-.15a9.51,9.51,0,0,0-1.51.12c-.19,0-.37.12-.56.15a9.73,9.73,0,0,1,1.52-.12s.55-.15.55-.15c-.09-.51-1.53,0-1.74.29.09-.12.47,0,.56-.15"/><path class="cls-1" d="M32.51,14.14s1-.21.68.1l.55-.15a11.2,11.2,0,0,1-1.3.07c-.18,0-.36.14-.55.15a8.88,8.88,0,0,0,1.36-.09c.08,0,.53-.07.55-.19.08-.32-1.63.18-1.84.26.18-.07.38-.08.55-.15"/><path class="cls-1" d="M25.37,3.88c.31,0,.62-.08.93-.1a1.79,1.79,0,0,1-1,.17"/><path class="cls-1" d="M30.44,3.92a.47.47,0,0,1,.61-.08,1.14,1.14,0,0,1-.94.4V4.08"/><path class="cls-1" d="M33.58,4.91a2.43,2.43,0,0,1,1-.2c.09,0,.2,0,.23.11s-.16.22-.31.22h-.85"/><path class="cls-1" d="M7.1,6.47a3.67,3.67,0,0,1,1.76-.31,2.2,2.2,0,0,1-1.58.32"/><path class="cls-1" d="M41.49,12.3a4.29,4.29,0,0,1,1.12-.23,11.44,11.44,0,0,1-1.14.48v-.19"/><path class="cls-1" d="M38.7,8.52a3.11,3.11,0,0,1,1.88-.14l-2.32.24"/><path class="cls-1" d="M14.61,14.9c-.09,0,0-.15.05-.19a1.8,1.8,0,0,1,.58-.19.53.53,0,0,1,.52.26.85.85,0,0,1-1.18,0"/><path class="cls-1" d="M24.34,6.38a2.35,2.35,0,0,1,1.5-.15,1.83,1.83,0,0,1-1.41.19"/><path class="cls-1" d="M20.79,4.27a.38.38,0,0,0,.31-.21.62.62,0,0,1,.27-.26c.13,0,.29.1.22.21a1.51,1.51,0,0,1-.86.34A.28.28,0,0,0,21,4.4"/><path class="cls-1" d="M.26,8.4a6,6,0,0,0,.13,2.42v-.49C.39,10,.2,8.72.26,8.4Z"/><path class="cls-1" d="M.77,8.41c.21,2.06.43,4.12.64,6.18"/><path class="cls-1" d="M52,19.14a1.24,1.24,0,0,1,1.29.42l-.26.19h.5a.22.22,0,0,1,.14,0c.11.08,0,.33.18.34"/><path class="cls-1" d="M55.11,21.66l-.77-.7h.06a5.46,5.46,0,0,0,1.12,2c0,.07.1.17,0,.24l-.06.05a.12.12,0,0,0,.07.17.51.51,0,0,0,.21,0l-.24.06a.23.23,0,0,0,.22.19.38.38,0,0,0,.18.39"/><path class="cls-1" d="M54.77,29.16l.6-.48c.07-.05.14-.11.12-.19s-.12-.13-.13-.22,0-.12.1-.17.36-.41.21-.59l.3-.83"/><path class="cls-1" d="M56,25.16l-.08,1a15.52,15.52,0,0,0,.13-2A5.73,5.73,0,0,1,56,25.47,3.65,3.65,0,0,0,55.83,24a2.24,2.24,0,0,0-.06-.73.79.79,0,0,0-.46-.54"/><path class="cls-1" d="M42.73,33.56a42,42,0,0,0,4.88-.38,7.33,7.33,0,0,0,2.12-.53"/><path class="cls-1" d="M31.7,37.65c-.07.3-.15.6-.23.89l.68-.94c0,.13,0,.26,0,.38a1.11,1.11,0,0,0,.43-.81v.73c.19-.23.45-.47.64-.7"/><path class="cls-1" d="M11.75,38.12l1.93-.31a6.9,6.9,0,0,0-2.11.3s0,.11,0,.16A9.51,9.51,0,0,0,13.59,38c0-.12-.16-.14-.27-.13l-1.16.12c-.18,0-.39.06-.47.22a4.43,4.43,0,0,0,2.07-.29,2.36,2.36,0,0,0-1.15.05,4.64,4.64,0,0,0,2-.15,5.06,5.06,0,0,0-2.5.21,6.87,6.87,0,0,0,2.12-.12.84.84,0,0,1,.05-.17,2,2,0,0,0-.91,0,4.1,4.1,0,0,0,1.44,0A4.6,4.6,0,0,0,13,37.8a3.28,3.28,0,0,0,1.25.07,4.81,4.81,0,0,0-1.64.26,3.29,3.29,0,0,0,1.08.11l-.21,0a11.23,11.23,0,0,0,1.42,0H13.67l.66.17"/><path class="cls-1" d="M14.43,38c1.17.36,2.2,1.09,3.37,1.42a11.5,11.5,0,0,0,1.94.29l3,.27a29.43,29.43,0,0,0,3.38.17c3.6-.07,6.72-1.59,10-2.7a1.83,1.83,0,0,0,.87-.49,2.78,2.78,0,0,0-1.71.56,7.71,7.71,0,0,0,2.25-.07,3.94,3.94,0,0,0-1.41,0,6.19,6.19,0,0,0,2.06,0,6.57,6.57,0,0,0-2.46,0,8.37,8.37,0,0,0,2.91,0,2.83,2.83,0,0,0-1.15-.21"/><path class="cls-1" d="M27.6,39.38l-1.77.36a27.87,27.87,0,0,0,7.87-1.48,38.39,38.39,0,0,0-6.19,1.45c1.83-.36,3.65-.76,5.45-1.22a8.22,8.22,0,0,0,2.1-.75,12.72,12.72,0,0,0-3.45.73,9.87,9.87,0,0,0,3.65-1,11.36,11.36,0,0,0-3.16.57,9.44,9.44,0,0,0,2.68-.43,2.31,2.31,0,0,0-1.11.12"/><path class="cls-1" d="M28.18,40.43s-.07,0-.05-.07a.14.14,0,0,1,.11,0c1-.09,2.08-.43,3.12-.6a15.49,15.49,0,0,0,3.87-1.25,6.68,6.68,0,0,0-2.42,1,5.11,5.11,0,0,0,2.86-1.21,4.89,4.89,0,0,0-1.87,1.31,5.69,5.69,0,0,0,2-.94,4.49,4.49,0,0,0-1.08.63,4.08,4.08,0,0,0,1.8-.74,2.31,2.31,0,0,0-1.54.67,3,3,0,0,0,1.92-.36,2.51,2.51,0,0,0-2,.33,5.19,5.19,0,0,0,2.5-.23.9.9,0,0,0-.92-.22,3.23,3.23,0,0,0,2.19,0,1.61,1.61,0,0,0-.94-.16,8.25,8.25,0,0,0,2.38,0,1.71,1.71,0,0,0-1-.22,4.08,4.08,0,0,0,1.51.32l-.48-.18"/><path class="cls-1" d="M35.35,38.19l-.3,0a5.11,5.11,0,0,0,1.59-.86,3.83,3.83,0,0,0-1.83,1.21,3.73,3.73,0,0,0,1.45-.72,1.15,1.15,0,0,0-.94.5,4.26,4.26,0,0,0,1.82-.46,2.26,2.26,0,0,0-1.49.54,4.06,4.06,0,0,0,2.2-.59,2.5,2.5,0,0,0-1.59.47,4.45,4.45,0,0,0,2.07-.3,1.92,1.92,0,0,0-1,.22,5.48,5.48,0,0,0,2.51-.24,1.14,1.14,0,0,0-.88.15l.57.16"/><line class="cls-1" x1="39.77" y1="41.69" x2="39.6" y2="41.57"/><path class="cls-1" d="M45,38.47a29.54,29.54,0,0,1-3.12-.06l.27-.06a12.32,12.32,0,0,1-1.48.13c.44-.16,1-.14,1.42-.33a2,2,0,0,0-1.28.19,2,2,0,0,0,1.48.24.93.93,0,0,0-1-.14l1.4.15c1.13.12,2.18-.61,3.27-.92"/><path class="cls-1" d="M9.7,38.89l5.11-.76a6.23,6.23,0,0,0-2.49.43,6.52,6.52,0,0,0,1.95-.36,10.4,10.4,0,0,0-2.87.59A5.42,5.42,0,0,0,14,38.38a3.18,3.18,0,0,0-1.72.3,3.59,3.59,0,0,0,2-.19,3.66,3.66,0,0,0-1.66.4,4.65,4.65,0,0,0,2.11-.41,2.84,2.84,0,0,0-1.21.36,2.62,2.62,0,0,0,1.63-.23.54.54,0,0,0-.47.13c.55,0,1.09-.05,1.64-.11-.42,0-.84.11-1.26.19a2.08,2.08,0,0,1,1.32-.14,9.69,9.69,0,0,0-1.51.24.21.21,0,0,0,.1.23"/><path class="cls-1" d="M2.86,39.11l-2,.25a21.21,21.21,0,0,0,4.18-.76,9.6,9.6,0,0,0-2.81,1,10.37,10.37,0,0,0,4.12-.73,1.9,1.9,0,0,0-1.28.36,6.37,6.37,0,0,0,3.12-.76,2,2,0,0,0-1.72.42,7.13,7.13,0,0,0,2.64-.23l-.57.08a2.93,2.93,0,0,0,2.18,0,1.34,1.34,0,0,0-.92.17,11.34,11.34,0,0,0,2.73,0,2.78,2.78,0,0,0-2,.36,4.09,4.09,0,0,0,2.35,0,.7.7,0,0,0-.76,0A2.61,2.61,0,0,0,13.92,39a1.07,1.07,0,0,0-.86,0,2.44,2.44,0,0,0,2.12-.21,3.64,3.64,0,0,0-2.44.42,2.26,2.26,0,0,0,2.6-.21,1.55,1.55,0,0,0-2,.3,2.51,2.51,0,0,0,2.41-.3.7.7,0,0,0-1.11.27,1.36,1.36,0,0,0,1.85-.13.66.66,0,0,0-.68.23.9.9,0,0,0,.9.26c.32-.06.62-.21.93-.3a5,5,0,0,1,2.33.19,24.82,24.82,0,0,0,12.21-.76"/><path class="cls-1" d="M34.64,38.29l-3.3,1.09a13,13,0,0,1-2.88.69,3.26,3.26,0,0,0,1.78,0"/><path class="cls-1" d="M34.37,39.23A53.44,53.44,0,0,1,23,40.48a22.26,22.26,0,0,1-7.42-1.59,14,14,0,0,0,3.77,1.41,22,22,0,0,0-4.68-1.5A14,14,0,0,0,23,40.26"/></svg>