<svg id="Layer_1" data-name="Layer 1" xmlns="http://www.w3.org/2000/svg" viewBox="0 0 325.78 136.08"><defs><style>.cls-1{opacity:0.5;}.cls-2{fill:#9b7f70;}</style></defs><g class="cls-1"><path class="cls-2" d="M41.08,57.19h.09s0,.1.14.13c1.09.33,1.58,1.11,2.33,1.61,1.27.83,3.08,1.24,4.4,2a54.82,54.82,0,0,0,6.65,2.92,88.59,88.59,0,0,1,14.75,7.6c1.22.81,5.51,1.75,7.33,2.1a17.84,17.84,0,0,0,3.17.3s0,0,0,0a3,3,0,0,0,.53,0c1.21,0,2.43,0,3.8,0,3.47.09,6.48,1.12,9.84,1.48a30.63,30.63,0,0,1,5.88.86c0,.05,0,.1.14.13,2.14.48,4.41,2.47,6.25,3.34,3,1.4,6,2.93,8.67,4.48a71.38,71.38,0,0,0,11.73,5.16c-1.18-.28-2.37-.56-3.58-.79-2.31-.43-6.13-1.45-8-.15a.23.23,0,0,0,0,.39c1.36,1.38,4.21,1.39,6.44,2.15a56.9,56.9,0,0,0,10,2.08c1.21.19,4.26.69,5.54.06,2.63,1.87,8.62,2.75,12.1,3.92,2.5.84,4.41,2.24,6.86,3,2.07.66,4.35,1.13,6.39,1.81,2.42.8,4.48,1.91,7,2.61,1,.28,2.1.52,3.19.77h-.13c-.06,0-.05,0,0,.06a4.26,4.26,0,0,0,.5,0,26.21,26.21,0,0,1,3.08.88c4.26,1.61,7.5,3.2,12.64,3.88a96.75,96.75,0,0,0,14.86.42c5.9-.14,11.15.89,16.94,1.05,5.16.15,10.29-.15,15.47,0a29.28,29.28,0,0,0,5.65-.39,46.46,46.46,0,0,1,10.61-.06,1.16,1.16,0,0,0,.52-.08,30.13,30.13,0,0,0,3,.91,19.51,19.51,0,0,0,4.94.47,12.15,12.15,0,0,0,3.67-.51q.4-.13.81-.24c-2,.75-3.95,1.69-5.84,2.36-2.81,1-6.46,1.35-9,2.5a25.48,25.48,0,0,1-7.11,2.22c-1.87.3-3.63.54-5.4,1-3.17.83-6.71,2.11-10.1,2.72a13.62,13.62,0,0,0-5,.47,52.1,52.1,0,0,1-10,2.25c-2.69.4-5.24,1-7.92,1.41a85.73,85.73,0,0,1-9.64.62,88.22,88.22,0,0,1-9.2.17,77.31,77.31,0,0,0-7.9-.25c-3.35.13-6-.81-9.1-1.25s-5.92-1-9-1.2c-.39,0-.9.15-.72.4a4.36,4.36,0,0,0,2.12,1.74c.19.07,1.1.26,2,.43a14.19,14.19,0,0,1-6.06-.85,10.18,10.18,0,0,0-2.49-.48c-2.88-.24-5.82-.27-8.62-.75-3.58-.62-7.51-.93-10.93-1.74a33.58,33.58,0,0,0-3.43-.73,36.18,36.18,0,0,1-3.8-.3c-.19-.06-.38,0-.39.14l0,.3c0,.17.3.33.61.32a20.16,20.16,0,0,1,3.56.24,36.49,36.49,0,0,0,8.47,2c4,.61,7.74,1.36,11.75,1.86,3.66.46,7.69,1.56,11.44,1.39a97.45,97.45,0,0,1,11.71.32c4.95.39,10,.62,15,.59,4.21,0,8.3-.43,12.52-.33,3.17.08,6.53-.94,9.49-1.42,1.74-.27,3.26-.22,4.94-.57l.43-.11a2.9,2.9,0,0,0-1,1.61c-.26,1.52,3.56.71,4.67.37a55.29,55.29,0,0,0,6.26-2c3.25-1.52,5.22-3.55,8.72-4.91a4.79,4.79,0,0,0,.93-.33l.12,0h0c2.4,0,2.34-1,5.25-1.32a30,30,0,0,0,6.25-1.34,61.7,61.7,0,0,1,8.67-2.39,28.7,28.7,0,0,0,4.32-1c4.29-1.42,9.75-2.16,12.91-4.46a19.3,19.3,0,0,1,3.11-2.3h.24c.31-.05.63-.08.95-.1a.06.06,0,0,0,.06,0h.07a35.32,35.32,0,0,0,5.47-.25c3.12-.68,6-.4,9-.74,2.66-.3,5.19-1.16,7.83-1.33,2.42-.15,4.85-.17,7.25-.41,1.44-.14,2.94-.25,4.34-.49,1-.16,7.45-1.32,6-1.27a26.28,26.28,0,0,0,4.19-.26c1.24-.26,1.86-.55,2-1.16.14,0,.26-.09.28-.2.17-.83.6-3-2.41-2.45-3.23.64-5.62,1.4-9.21,1.49a37.8,37.8,0,0,0-7.26.56,45.73,45.73,0,0,1-10.7,1.23,42.6,42.6,0,0,0-7.3.74c-4.73.9-9.54,1.25-14.17,2.17a.54.54,0,0,0-.45-.06c-3.09.9-6.35.56-9.65.75s-6.36.7-9.59.81c-2.61.08-5.35-.51-7.86,0-3.32.68-5.87.28-9.19.29-7.29,0-14.54.06-21.83.07-1,0-15.69-1.45-15.92-.08,0-.27-.42-.39-.77-.33-1-2.31-6.07-2.87-9.59-3.72-.94-.22-6.75-2.31-6.54-.29.16,1.43,4.57,1.65,5.87,2.53.31.21.6.43.91.66-.94-.23-1.86-.48-2.7-.63a72.7,72.7,0,0,1-7.16-1.84,62.9,62.9,0,0,1-6-2.38,7.1,7.1,0,0,0-1.76-.54c.13-.25-.23-.57-.79-.44-2.82.67-4-2-4.74-2.87-.88-1-3.25-1.7-4.23-2.78-1.35-1.47-2-3.09-3.63-4.46-1.44-1.2-3.19-2.18-4.51-3.45-1.93-1.87-3.93-3.72-5.95-5.56.41-.13.7-.38.73-.63a2.61,2.61,0,0,0-.18-1.09c-.18-.52.85-1.3,1.17-1.79.44-.67-.11-2-.69-2.54-.41-.42-1-1.32-2-1.43-.72-.07-1.61.13-1.81.56a3,3,0,0,0-.21,2.7,2.43,2.43,0,0,1,.13,1.58l-1.08-1c-3.29-3-8-5.83-9.6-9.28a5.26,5.26,0,0,0-2.62-1.87c-2.55-1.09-4.43-2.39-6.76-3.57-1.37-.7-2.69-1.39-4-2.08a1,1,0,0,0,.08-1.1c-.12-.35-.87-.6-1.32-.81A2.41,2.41,0,0,1,119,58.66c-.53-.93-1.21-3.08-3.74-2.78-.27,0-.39.19-.4.33-.1.9.94,1.68,1.9,2.38.75.54,1.44,1.09,2.16,1.62-1.49-.87-3-1.75-4.38-2.71a58,58,0,0,1-6.08-4.86c-.92-2-3.87-3.22-6.78-4.42-3.83-1.58-5.89-3.34-6.72-5.94-.13-.4-1.42-.29-1.31.11l0,.1v0c0,.15.1.28.16.43a8.23,8.23,0,0,0,2.27,3.28,9.36,9.36,0,0,1-.85-.63s0,0,0,0a15.76,15.76,0,0,0,1.58,1.17,9.72,9.72,0,0,0,1.27.77l.15.07c1.22.68,2.53,1.32,3.84,2A18.94,18.94,0,0,1,103.77,51c1.61,1.47,3.06,3,4.77,4.43a31.61,31.61,0,0,0,5.13,3.12l2.42,1.31c.45.32.88.66,1.31,1a28.91,28.91,0,0,1-2.93-.66,20.42,20.42,0,0,0-4-1.15c-2.51-.35-2.65,1.14-1,1.84a59.46,59.46,0,0,0,8.31,2.41,4,4,0,0,0,2.55-.08,29.35,29.35,0,0,0,3,2.1,63.35,63.35,0,0,1,8.7,5.92c2.77,2.44,6,4.67,8.66,7.17a48.62,48.62,0,0,1,4.2,4.16A26.1,26.1,0,0,0,147,85.4c1.41,1.31,2.24,2.77,3.61,4.08s3.21,2.32,4.21,3.69c1.52,2.07,3.72,3.71,5.81,5.55-2.53-.84-4.68-1.94-7.21-2.79s-5.45-1.58-8-2.53-5.16-1.55-7.38-2.61a17.72,17.72,0,0,0-4.54-1.91c-6.11-1.18-10.71-3.36-15.61-5.63s-10.15-4.64-14-7.61S97.38,69.17,93,66.35a67.43,67.43,0,0,1-7.05-5c-1.65-1.39-2.57-2.94-4-4.38a43.75,43.75,0,0,1-3-3.39.42.42,0,0,1-.21.11,1.65,1.65,0,0,0-.51-.71A14.25,14.25,0,0,0,74.43,51C70.31,49.6,65.57,48.82,61,47.85c-.51-.11-1.08.19-.83.47,1.6,1.77,4.59,2.18,7.63,3,4.93,1.35,8.53,2.74,10.81,5.58a.6.6,0,0,0,.53.14,25.09,25.09,0,0,0,1.94,3c.65.78,1.19,2.09,2.24,2.74a33.24,33.24,0,0,1,6,4.39c2.41,2.44,5.85,4.35,8.59,6.63,0,0,0,.09.06.14-.81-.55-2.54-.47-4.89-.76-2.61-.32-5.24-.84-7.88-1a78.47,78.47,0,0,1-8.79-1c-3.74-.71-6-2.07-8.92-3.43C62.9,65.5,57,63.87,52.92,61.42a30.22,30.22,0,0,0-5.57-2.08,58.33,58.33,0,0,1-5.59-2.51.55.55,0,0,0-.4,0l-.45.2c-.15.07,0,.18.17.15m76.25.8a4.31,4.31,0,0,1-1.17-1.1c-.55-1,.27-.14.5.12a5.17,5.17,0,0,1,.67,1m.52,4.49a3,3,0,0,0,1-.53l.55.45c0,.24-.59.35-1.1.2l-.42-.12m-5.38-2.33,0,0a2,2,0,0,1-.73.7l-.52-.16a5,5,0,0,1-1.56-.71c-.71-.69,1.15-.31,1.31-.27.53.12,1,.27,1.53.42m2.1.69h0a12.61,12.61,0,0,0-1.4.42L112,61a2.54,2.54,0,0,0,.74-.72l.91.29.94.32m2,.48c-.37.17-.79.31-1.18.46l-1.86-.44c.42-.1.84-.26,1.2-.37.06,0,.06,0,0-.07a10.19,10.19,0,0,0,1.15.31l.64.11m2,.36.18.14a5.18,5.18,0,0,1-1,.6c-.55-.16-1.08-.33-1.64-.47l-.38-.1a5.55,5.55,0,0,0,1.21-.48c.57.09,1.12.18,1.64.31M107.1,52.52c-.52-.4-1-.81-1.5-1.17A21.22,21.22,0,0,0,103.2,50c-.2-.17-.42-.33-.63-.5,2,.84,3.76,1.76,4.53,3.05m.32.64c2.18,1.73,4,3.53,6.45,5.15A26.8,26.8,0,0,1,108,54.5c-1.33-1.24-2.61-2.6-4.06-3.88a19.43,19.43,0,0,1,2.52,1.61c.25.2.51.41.78.6l0,.05a.4.4,0,0,0,.28.22.44.44,0,0,1-.16.06M117,59.7c.38.28.78.55,1.18.82l-.53-.27A65.76,65.76,0,0,1,112,56.43c-1.11-.89-2.17-1.79-3.24-2.7,2.66,2,5.43,4,8.21,6m3.7,1.52L120.2,61c-.1-.18-.2-.36-.3-.52.42.25.75.51.77.78m38.93,66.5c-2.43-.3-4.85-.79-7.22-1.09-1.63-.2-3.24-.44-4.83-.7.82.11,1.66.2,2.51.25,1.53.1,3.15.11,4.67.3,1.73.22,3.22.87,4.87,1.24M71.48,70.31h0a2,2,0,0,0-.66-.06l-.38,0L69,69.48l.4-.11a18.28,18.28,0,0,0,2,.94m11.19-9.8c.55.55,1.14,1.1,1.75,1.62H84.1a7.34,7.34,0,0,1-.93-.92,7.48,7.48,0,0,1-.5-.69M63.58,49.09s0,0,0,0a1.05,1.05,0,0,0-.06.21c-.34-.14-.66-.28-1-.44l1.06.19m2.39.52h0a2.68,2.68,0,0,0-.58.36c-.54-.16-1.07-.32-1.56-.5a.87.87,0,0,1,0-.32v0l2.15.41a.09.09,0,0,0,0,.07m1.49.32h0a2.23,2.23,0,0,0-.65.4l-1.07-.28a3.35,3.35,0,0,1,.45-.27h0a.57.57,0,0,0,.15,0,.61.61,0,0,0,.46-.11l.68.13a.14.14,0,0,0,0,.09h0M69,50.5a.49.49,0,0,1,.11.14s0,.06,0,.09l.11.19L68,50.63a1.13,1.13,0,0,1,0-.41s0-.09-.13-.1a.62.62,0,0,0,.24,0h0a.39.39,0,0,0,.17-.09h0l.28.06c-.37.09-.42.44.07.48a.64.64,0,0,0,.35,0m2.91.69a.15.15,0,0,0-.09,0,.86.86,0,0,0-.4.34c-.59-.18-1.17-.35-1.77-.51-.08-.13-.16-.26-.23-.39s0,0,0,0a1.67,1.67,0,0,0-.23-.23.17.17,0,0,0,0-.2c.85.19,1.69.4,2.49.62-.14.14-.08.33.26.38h0m1.78.25a.92.92,0,0,0,.14.68c0,.07.08.17.13.27-.46-.18-.93-.34-1.4-.49a2,2,0,0,1-.4-.72.44.44,0,0,0,.28-.14c.43.13.86.26,1.25.4m3.2,1.62a2.13,2.13,0,0,0,.56,1.24s0,0,0,0a10,10,0,0,0-1.49-1,1.94,1.94,0,0,0-.73-1.07c-.1-.08-.3,0-.21.09a2,2,0,0,1,.55.77c-.32-.16-.65-.32-1-.47l-.13,0a2.27,2.27,0,0,0-.24-.34,1.53,1.53,0,0,1-.31-.71,11,11,0,0,1,3,1.55m1.06,1.37L77.51,54a3.74,3.74,0,0,1-.22-.51.57.57,0,0,1,0-.14,2.67,2.67,0,0,1,.68,1m6,6.17h-.8c-.26-.23-.52-.46-.76-.7a.11.11,0,0,0-.08,0c-.08-.13-.17-.27-.24-.4a2.34,2.34,0,0,0,.53,0c.13,0,.06-.14-.06-.11a1.75,1.75,0,0,1-.51,0A15.32,15.32,0,0,0,80.51,57a23,23,0,0,0-2.21-2.2l.11,0,.3,0a2.62,2.62,0,0,1,.22.25c1.76,1.82,3.21,3.73,5,5.53m3.61,3.08a5.64,5.64,0,0,1-.82,0c-.28,0-.52-.11-.78-.17-.55-.36-1.08-.73-1.59-1.14h.3l.65.53s.15,0,.12,0a5.93,5.93,0,0,0-.47-.53l.34-.07c.17-.05,0-.19-.14-.15a2.21,2.21,0,0,1-.34.06c-.49-.5-1.06-1-1.61-1.46.27,0,.54,0,.82,0a23,23,0,0,0,2.82,2.48l.7.51m.84.74c.81.53,1.57,1.09,2.34,1.64A4.16,4.16,0,0,1,89.28,66c-.44-.39-.89-.78-1.38-1.15s-1-.73-1.51-1.06a6.22,6.22,0,0,0,1.2.07.16.16,0,0,0,.11,0l.73.51c-.08,0-.14.06-.07.1m4.1,2.89c-.32.06-.66.11-1,.15-.17-.15-.33-.32-.51-.47s-.37,0-.26.11.29.27.43.41H91c-.07,0-.05.07,0,.07h.14l.43.46-.1,0c-.68-.63-1.34-1.27-2-1.89a4.66,4.66,0,0,0,1.41,0l.77.53.79.57m2,1.32h0l0,0c-.09-.08-.33,0-.23.08l0,0a3.93,3.93,0,0,1-1.08.18l-.38-.23-1.16-1.12a7.17,7.17,0,0,0,1.05-.13,9.79,9.79,0,0,0,1.37.89l.42.31m.66.81a9,9,0,0,1-.91.1L93.3,69a3.26,3.26,0,0,0,1.07-.15c.22.19.46.38.7.57m1.15.9-.77,0c-.32-.21-.65-.43-1-.64a5.08,5.08,0,0,0,.81-.13l1,.75m.89.68-.72,0c-.25-.19-.51-.39-.79-.58.21,0,.43,0,.64,0a.13.13,0,0,0,.1,0l.77.59m57.2,26.22a5.48,5.48,0,0,1-.56.1c-1-.45-2-.91-2.95-1.39,1.2.41,2.36.84,3.51,1.29m2.19-3.54.13,0a3.46,3.46,0,0,0,.51.6c.1.09.34,0,.27-.08s-.21-.32-.31-.48a3.78,3.78,0,0,0,.82-.06,3.08,3.08,0,0,0,.32,1.23,5.31,5.31,0,0,1-.68,0c-.38-.42-.72-.85-1.06-1.28m-1.06-1.28a3.75,3.75,0,0,0,.58,0,5.32,5.32,0,0,0,.55,1.22.48.48,0,0,1-.12,0c-.33-.4-.66-.81-1-1.21m-4.71-4.49s.09,0,.08,0v0a5.42,5.42,0,0,0,.81,0,7.13,7.13,0,0,1,.52.87,2.72,2.72,0,0,1,.19.47H152c-.44-.4-.87-.81-1.29-1.22m-4.23-4.7a3.59,3.59,0,0,0,.47,0c.18.36.34.72.56,1.07h-.1l-.93-1.11M124.4,64.81a1.07,1.07,0,0,1-.18.19,17.76,17.76,0,0,1-2.15-1.57l-.1-.08.28-.1c.13,0,0-.16-.11-.11a2.36,2.36,0,0,0-.28.12c-.31-.26-.63-.52-1-.77a.53.53,0,0,0-.08-.29c.83.5,1.69,1,2.55,1.46a0,0,0,0,0,0,.07l1,1.08M130,67.3c.35.48.72,1,1.15,1.51a1.37,1.37,0,0,1-.47.16c-.46-.33-.95-.65-1.46-1a1,1,0,0,0-.25-.68l.14-.1c.13-.1-.13-.21-.26-.12l0,0c-.44-.48-1.14-.93-1.57-1.34-.08-.08-.31,0-.23,0,.5.49,1.11,1,1.55,1.45a.67.67,0,0,1-.38.08l-2.07-1.2a2.46,2.46,0,0,0,.71-.48c.11-.09-.14-.17-.25-.09a3.21,3.21,0,0,1-.68.45h0a7.56,7.56,0,0,0-1.07-1.14l-.12-.12.17-.28,3,1.59c.76.4,1.48.8,2.17,1.21m3.62,2.63a.18.18,0,0,0-.1,0,1.67,1.67,0,0,0-.29.44,1.94,1.94,0,0,1-.39.36c-.24-.21-.5-.43-.73-.65a16,16,0,0,0-1.24-1,1.53,1.53,0,0,0,.41-.14,8.25,8.25,0,0,0,1.6,1.44s.16,0,.13,0a16.47,16.47,0,0,0-2.33-2.64,19.46,19.46,0,0,1,2.94,2.21m1.55,1.66c-.49-.48-1-1-1.48-1.41a.76.76,0,0,1,.08-.11c.33.33.65.66.94,1,.14.18.31.34.46.51m.09.57a.82.82,0,0,1-.42.3c-.66-.52-1.29-1.06-1.9-1.6a.75.75,0,0,0,.64-.5c.55.59,1.07,1.22,1.68,1.8m13.59,6.39s-.1-.1-.21-.07l-.54.13a2,2,0,0,0,.05-1c.43-.15.75-.39.49-.67-.08-.08-.31,0-.26.06s0,.3-.27.41a3.76,3.76,0,0,0-.76-1.54c-.1-.1-.39,0-.3.07a3.42,3.42,0,0,1,.73,1.61l-.42.17c-.05,0,0,.06.06.06l.37-.07a1.86,1.86,0,0,1-.15,1c-.25.06-.49.11-.73.18a3.51,3.51,0,0,0,.15-.53c0-.1-.27-.11-.29,0s-.07.24-.11.36a9.78,9.78,0,0,1-.37-1.12,3,3,0,0,1,.19-1.54c0-.12.33-1.26,1.21-.38.13.12.25.25.36.37.53.59,1.21,1.83.8,2.5m-2.33,1.82-.17-.15.07-.14a0,0,0,0,0,0,0,.11.11,0,0,0,.11,0,1,1,0,0,0,.19-.52s0,0,0,0a1.52,1.52,0,0,0,1.24-.78l.76-.19s0,0,0,0,0,0,0,.05a7,7,0,0,0-1.12,1.58h0a7.36,7.36,0,0,1-1.16.14m1.13,0c0,.33.4.67.26,1a.19.19,0,0,1-.14.12l-1.12-1a4.19,4.19,0,0,0,1-.09m-.91-.87a1.7,1.7,0,0,1,.07-.34s0-.09,0-.14l.68-.13a1.56,1.56,0,0,1-.79.61m46,26a22.39,22.39,0,0,1,2.23.83l-1.18.32a11.77,11.77,0,0,0-1.49-.52c-.2,0-.35.11-.15.17a10.44,10.44,0,0,1,1.25.44,9.16,9.16,0,0,1-1.25.18c-.08,0-.08.07,0,.08a3.83,3.83,0,0,0,1.65-.09,3.61,3.61,0,0,1,1.18.83c-.43.07-.91.1-1.33.13l-.63-.27H193l-.26,0a11.12,11.12,0,0,1-1-.57,13.32,13.32,0,0,0-2.84-1.72c-.91-.34-2-.43-3-.74-1.35-.81-1.37-1-.07-.75l1.09.35c.28.1.58.19.87.27,1.23.32,2.52.66,3.81.88l1.15.21m1.33,2.66.07,0-.17-.07a.23.23,0,0,0,0-.12l-.1,0a8.13,8.13,0,0,0,1.22-.05.94.94,0,0,1,.1.31s.09.06.13,0a.42.42,0,0,0,.1-.39c.54-.12.93-.34,1-.73.13.09.24.19.35.28a1.31,1.31,0,0,1-.82.72c-.07,0,0,.1.09.08a1.38,1.38,0,0,0,1-.57,2.05,2.05,0,0,1,.2.23,3.58,3.58,0,0,1-3.05.24c-.07,0-.12,0-.08,0m2-1.09c0,.31-.31.48-.72.59a3.17,3.17,0,0,0-1.19-.85c.38-.11.74-.24,1.07-.36a8.81,8.81,0,0,1,1,.54c-.06,0-.12,0-.13.08m2.14,1.14c-.11,0-.15.1-.09.16h0a4.33,4.33,0,0,1-3,.14,3.86,3.86,0,0,0,2.14-.46c0,.09.08.18.11.27s.12,0,.13,0a1.08,1.08,0,0,0-.43-1,1.27,1.27,0,0,0,0-.28c0-.1-.3-.11-.3,0v0a6.5,6.5,0,0,0-1.26-.71c.1-.06,0-.17-.17-.13l-.06,0c-.3-.13-.6-.25-.91-.36l.95.28c.6.19,4.4,1.69,2.83,2.07m123.27-4.65a2.6,2.6,0,0,0,1.07-.88c.68,0,1.36,0,2-.07-.16.58-1.13.85-2.29,1l-.81,0m-.32,0-1.45-.08c.34-.25.53-.54.38-.87a20.31,20.31,0,0,0,2.21.1,3,3,0,0,1-1.14.85m-1.9.18.28-.16c.44,0,.89.06,1.34.09l-.12,0-1.5,0m-1.09,0a7.07,7.07,0,0,1-2.16.1l.89-.51c.75.09,1.5.16,2.25.22a3.07,3.07,0,0,1-.36.2h-.48a.17.17,0,0,0-.14,0m-3.25.69h-.21a8.18,8.18,0,0,0,1-.44c.28,0,.57,0,.85.06-.54.12-1.05.28-1.58.43a.1.1,0,0,0-.09,0m-.47,0-1.36-.07a3,3,0,0,0,.35-.64c.5,0,1,.11,1.49.18l.51.06c-.31.17-.65.32-1,.47m-2,.59a2.54,2.54,0,0,0,.53-.5l1.16,0-.17.08s0,0,0,0l.33-.1h.36a12.57,12.57,0,0,1-1.87.4l-.37,0m-1.17.06c-.75,0-1.49-.09-2.24-.15a2,2,0,0,0,.67-.63c1,.09,2,.15,2.95.2a2.4,2.4,0,0,1-.77.58l-.49,0a.14.14,0,0,0-.12,0m-3.16.3a4.74,4.74,0,0,0,.64-.29l1.82.11q-1.21.1-2.46.18m-3.61.2a3.05,3.05,0,0,0,1.21-.71l2.67.2a7.32,7.32,0,0,1-.69.33c-1.07.06-2.13.11-3.19.18m-3.31.27a3.07,3.07,0,0,0,.4-.26l1.38.1-1.78.16m-3.25.25a6.58,6.58,0,0,0,.94-.75l2.35.21a5.08,5.08,0,0,1-.57.36c-.61.07-1.22.16-1.81.26a.19.19,0,0,0-.09,0l-.82-.05m-4,.89a3.26,3.26,0,0,0,1.26-.89l2.25.13-.31.25c-1.09.21-2.08.39-3.2.51m-3.66.14a5.41,5.41,0,0,0,.61-.41c1,0,2,0,3,.06l-.48.26c-.51,0-1.05.07-1.64.08h-1.46m-4.48.07a7.35,7.35,0,0,0,.84-.83,34.11,34.11,0,0,0,3.82.33c-.21.15-.43.3-.67.44a22.63,22.63,0,0,0-2.7.17l-1.29-.11m-8.55,1.24a1.35,1.35,0,0,0,.34-.75q1.49.16,3,.3a2.14,2.14,0,0,1-.36.28l-1,.15-1.54.17c.08-.05.06-.15-.09-.15h-.28m-3.53,2.32a2.8,2.8,0,0,0,1.15-1.11l.53,0c-.5.39-1.06.78-1.64,1.15h0M271.46,112a1.83,1.83,0,0,0,.63-.94l1.09,0a5.72,5.72,0,0,0-.51.46s0,0,0,0l-.87.44-.38,0m-3.79,1.12a1.47,1.47,0,0,0,.62-.72c.81,0,1.61-.06,2.41-.15a3.72,3.72,0,0,1-.49.25s0,.06.05,0a3.13,3.13,0,0,0,.9-.34l.22,0A17.62,17.62,0,0,1,269,113l-1.29.06m-3.75.9.16-.11a6.11,6.11,0,0,1,.75-.5c.73,0,1.46,0,2.18-.09l-.4.28-1.7.37a.23.23,0,0,0-.22-.06c-.25,0-.51.08-.77.11m-37.2,12.41c.91-.44,1.65-1,2.54-1.46.1-.06-.07-.17-.18-.11-.26.13-.51.27-.76.41a.23.23,0,0,0-.12,0l-.29.06a1.57,1.57,0,0,0,.18-.19,6.48,6.48,0,0,0,2.24-1,9.94,9.94,0,0,0,1.39-.66l.26-.08c.13,0,0-.16-.12-.13-.38.11-.77.21-1.15.33a.75.75,0,0,0,0-.42c1.08-.14,2.15-.28,3.19-.49-1,.44-1.94.86-2.21,1a35.48,35.48,0,0,1-3.91,2.42l-.12.05a.19.19,0,0,0-.18,0l-.65.24a.13.13,0,0,0-.1,0m-6.37,0a36,36,0,0,1,6.68-2.57,33.09,33.09,0,0,1,3.38-.6.76.76,0,0,1-.15.52,6.47,6.47,0,0,0-1.54.73l-.43.13A.68.68,0,0,0,228,124c-.1-.08-.35,0-.26.09a.55.55,0,0,1,.14.61c-.65.2-1.31.4-1.95.63-.05,0,0,.06,0,0l1.78-.44a1.82,1.82,0,0,1-.14.19h0a0,0,0,0,0,0,0c-.1.1-.22.2-.34.3-.55.2-1,.45-1.66.62l-1,.25a2.45,2.45,0,0,0,1-1.4c0-.12-.31-.16-.34,0a2.09,2.09,0,0,1-.79,1.22,5.29,5.29,0,0,1-.82.45c-.29.08-.59.16-.88.26-.05,0,0,.07,0,.06l.18,0-.53.21c-.05,0,0,.08.05.07a7.1,7.1,0,0,0,1.41-.45,13,13,0,0,0,1.76-.41l.65-.25a9.25,9.25,0,0,1-1.16.56s0,0,0,0a7.13,7.13,0,0,0,2.3-1.07l.33-.09a15.88,15.88,0,0,1-2.66,1.4c-.07,0,0,.07.06,0h0a6.06,6.06,0,0,1-1.65.49c-.86.1-1.71.16-2.55.28a.12.12,0,0,0-.12,0h0a3.65,3.65,0,0,0,1.88-1.42c.08-.1-.21-.15-.29,0a5.3,5.3,0,0,1-.85.86,8,8,0,0,1-1.08.6.06.06,0,0,0,0,0l-.49.07a6.87,6.87,0,0,0-.83.13c-.06,0-.07.07,0,.08a4.57,4.57,0,0,0,1.5-.14h0c.77-.06,1.66-.06,2.46-.15-.62.18-1.24.35-1.85.54-3.27,1-2.84-1-1.09-1.82m-8.72.77a5.86,5.86,0,0,0,1.4-.35c.57,0,1.14,0,1.71,0l-.19.07s0,0,0,0l.59-.13c.61,0,1.23-.11,1.84-.19a17.29,17.29,0,0,1-2.65.42,17.62,17.62,0,0,0-2.16.18l-.58,0m-7.88,1.06a6.74,6.74,0,0,0,1-.31c.62,0,1.24.06,1.86.11-.94.09-1.88.15-2.82.2m-26.37-.43c-.43.12-.88.24-1.35.34-1.55-.2-3.14-.3-4.7-.48.25,0,.5-.09.74-.15s0-.18-.14-.14c-.81.22-1.69.22-2.46.49-.05,0,0,.06.05,0,.52-.1,1.06-.15,1.59-.22,0,0,0,0,0,0,1.41.28,2.9.37,4.37.53l-.43.08a83.59,83.59,0,0,0-10.35-.39,22.27,22.27,0,0,1-2.45,0,20.52,20.52,0,0,0,3-.39l.19,0c.29.24,1.06.09.95-.18h.85l-.85.28s0,.07.05.06q.67-.15,1.32-.33h.41c.19,0,.23-.12.07-.16l.74-.22c.16,0,0-.17-.15-.12l-1.07.31-1.2,0c.12-.12,0-.31-.31-.27l-.47.05h0c-2.19,0-3.65-.52-4.38-1.62,1,.11,2,.25,3,.43,1.44.24,2.88.45,4.33.65,2.68.38,5.36,1.44,8.24,1.33h.41m4.05,0a12.34,12.34,0,0,1-2.43.76l-3.1-.16.22-.06.72.09c.18,0,.26-.12.08-.15l-.34-.05,1-.27c.12,0,.09-.12,0-.15,1.3,0,2.59,0,3.88,0m4.53.15h0a1.78,1.78,0,0,1-.81.62c-1.19-.06-2.36-.19-3.53-.34-.1,0-.14.07-.05.09l.87.15-1.22-.13c-.11,0-.19.08-.08.11.43.1.87.18,1.33.25l-2.83-.11a11.15,11.15,0,0,0,2.39-.77l3.94.13m8.35,0c-.7.21-1.35.42-2,.65q-1.17,0-2.34-.09a2.09,2.09,0,0,0,.44-.25c.11-.07-.09-.17-.2-.1a3.22,3.22,0,0,1-.64.33l-2.49-.12c-.15,0-.17.12,0,.13l2.13.13-.76.24-2.81-.05-.41,0,.08,0,.44,0c.17,0,.15-.14,0-.14h-.13a1.62,1.62,0,0,0,.66-.6,0,0,0,0,0,0,0c2.49.09,5,.14,7.52,0l.57,0m3.1-.07a12.06,12.06,0,0,1-1.25.61s0,0,0,0c-.79,0-1.58-.07-2.36-.08-.15,0-.17.11,0,.12l2.25.12c-2.34.14-4.7.2-7.06.19a6.37,6.37,0,0,0,.66-.21l2.25.09s0,0,0,0l.12,0,.59,0c.19,0,.2-.16,0-.16h0c.62-.16,1.23-.32,1.84-.5.13,0,.09-.14,0-.16,1,0,2-.06,3-.07m3.67,0c1,0,2,.07,3.07.1q-.47.16-.93.36c-1.74.08-3.5.14-5.29.26l-1.61,0a4.33,4.33,0,0,0,1.49-.64c1.08,0,2.15,0,3.21-.07a.07.07,0,0,0,.06,0m4.44-.63-.1.08h-.27c-.08,0-.09.07,0,.07h.15a4.72,4.72,0,0,1-.81.42c-1,0-1.94,0-2.91,0a22.38,22.38,0,0,0,2.45-.27l1.49-.28m.17.18c.82,0,1.65.06,2.48.06a5.65,5.65,0,0,1-.91.11c-.06,0-.07,0,0,.06a4.22,4.22,0,0,0,1.63-.17l2.15,0-.44.09c-1.11.23-2.22.39-3.33.51l-.06,0c-.72-.07-1.45-.12-2.19-.16a2.72,2.72,0,0,0,.68-.43M228,122.86a25.75,25.75,0,0,0-4,1.08,41.14,41.14,0,0,0-4.11,1.68,1.75,1.75,0,0,0-.57.11,10.56,10.56,0,0,1-1.58.6.17.17,0,0,0-.13,0c-.52.07-1.05.13-1.57.18a2.75,2.75,0,0,0,.36-.15,3.64,3.64,0,0,0,.75-.51,7.37,7.37,0,0,0,2.83-.34c.15-.06,0-.18-.15-.13a7.48,7.48,0,0,1-2.49.32,3.58,3.58,0,0,1,.43-.29c.1,0,0-.12-.12-.1a1.44,1.44,0,0,0-.73.39l-1.83,0c-.06,0-.06,0,0,0,.54,0,1.12.09,1.7.11a1.65,1.65,0,0,1-.32.23,8.82,8.82,0,0,1-1.12.5c-.65,0-1.3.09-1.94.11.41-.24.66-.54.57-.9,0-.09-.29-.09-.27,0,.08.38-.28.68-.8.9-.62,0-1.23,0-1.85,0-.06,0-.06.06,0,.06.5,0,1,0,1.49,0a9.31,9.31,0,0,1-1.57.36h0l-1.45,0a7,7,0,0,0,1.33-.76c.11-.08-.14-.16-.25-.08a6.94,6.94,0,0,1-1.64.84c-1,0-2.06,0-3.08,0l.1-.09s0,0,0-.06c2.38-.45,4.73-.93,7.17-1.3,2.89-.43,5.91-.5,8.3-1.58a14.39,14.39,0,0,1,6.55-1.33M252,116.72a4.31,4.31,0,0,1-.49.58,6.8,6.8,0,0,0-1.54.36s0,.08.07.07c.41-.08.83-.13,1.24-.19h0c-.63.18-1.25.36-1.85.57a38.59,38.59,0,0,1-8.11,1.78,13.26,13.26,0,0,0-3.61,1.33h0c-1.59-.51-3.69.71-5.32.94-1.29.18-2.53.36-3.73.57a.16.16,0,0,0,0-.15c2.92-.15,5.71-1.2,8.27-1.89,3.87-1,8.88-1.2,12.15-2.79a23.4,23.4,0,0,1,3-1.18m4.7-1.36a0,0,0,0,1,0,0,1.15,1.15,0,0,1-.39.62c-.28.05-.56.11-.83.18-.08,0-.06.1,0,.1l.52-.06a4.27,4.27,0,0,1-.6.34l-2.52.59-1.14.12a2,2,0,0,0,.56-.65c1.4-.46,2.89-.85,4.37-1.25m-.18.79,1.49-.19-1.83.43a2.27,2.27,0,0,0,.34-.24m4.63-2a10.62,10.62,0,0,0,2.1,0l-.29.26-.6.21a28.85,28.85,0,0,1-3,1,.23.23,0,0,0-.12,0c-.8.12-1.66.19-2.48.31a1.07,1.07,0,0,0,.22-.54s-.05-.06-.11-.07c1-.27,2-.53,3-.82a2.17,2.17,0,0,1-1.23,1.08s0,0,0,0a1.86,1.86,0,0,0,1.54-1.21l.9-.28h0s0,0,.05,0m5.89-2.33a9.45,9.45,0,0,0,2-.82c.88,0,1.75,0,2.62,0a2.12,2.12,0,0,1-.74,1c-.89.09-1.78.15-2.68.2a.7.7,0,0,0-.18-.42c-.09-.1-.36,0-.28.08a.44.44,0,0,1,.12.35l-1.63.06c-.09,0-.08.06,0,.07.54,0,1.07,0,1.6,0a1.81,1.81,0,0,1-.69.73q-1,0-2.1.12l.14-.06c.17-.06,0-.22-.13-.16a4,4,0,0,0-.59.25h-.19c-.11,0-.11.09,0,.12a5.56,5.56,0,0,0-.85.64,19.06,19.06,0,0,1-2.27.07c2-.68,3.72-1.6,5.84-2.26m.82-1.55-.43.06a.23.23,0,0,0-.12,0,8.14,8.14,0,0,1-2.07.13,3.76,3.76,0,0,0,.49-.83,11.3,11.3,0,0,0,2.59.06,3.5,3.5,0,0,1-.46.59m-3.4.86a2.62,2.62,0,0,0,.64-.54,9,9,0,0,0,1.16,0l-1.8.52m-7.32.28.85-.22,1.18.2c.15,0,.27-.09.11-.13l-1-.18a6.7,6.7,0,0,0,.76-.29l2.27.32a3.56,3.56,0,0,1-1.67.36c-.05,0-.08,0,0,0a3.12,3.12,0,0,0,2.07-.35l1.48.22c.16,0,.2-.11,0-.14l-1.32-.2a4.15,4.15,0,0,0,.76-.66l.74.06,1.37.12a3.33,3.33,0,0,1-2.4,1c-.05,0,0,0,0,0a7.77,7.77,0,0,1-.83.08,20,20,0,0,1-4.41-.25m4.42-.42-2.23-.34c.33-.19.57-.4.61-.64a23.7,23.7,0,0,0,2.41.35,3.59,3.59,0,0,1-.79.63m-6.72-.27c.92.15,1.86.27,2.79.41l-.7.25a9.5,9.5,0,0,1-1.38-.41c-.25-.09-.48-.18-.71-.25m-3.77-.42.23-.08.35-.09c.06,0,.07,0,.05-.07l.22-.1.55.18a.69.69,0,0,0-.59.26,5.31,5.31,0,0,0-.81-.1m-10.89.3c-.58,0-1.14,0-1.71-.07a4.14,4.14,0,0,0,.72-.38c.8.07,1.61.13,2.42.18l-.49.19s0,0,0,0c.27-.06.56-.12.83-.2l.43,0c-.7.11-1.41.22-2.1.3,0,0,0-.08-.13-.08m-2.47.22.37-.13,1.78,0c-.42,0-.85.08-1.26.08h-.89m-4.06-.16c.18-.09.36-.19.52-.29,1.16.14,2.34.24,3.52.3l-.54.16c-1.06,0-2.11,0-3.17,0,.08,0,.09-.12,0-.14l-.29,0m-6.4.16a9.46,9.46,0,0,0,1.58-.34,1.09,1.09,0,0,0,.25-.1c1.33.13,2.67.23,4,.37l-.16.08c-1.88,0-3.76,0-5.64,0m-5.13,0a11.55,11.55,0,0,0,1.48-.39l1.46.13c.2,0,.22-.15,0-.17-.36,0-.72-.08-1.08-.12a1.48,1.48,0,0,0,.65-.47,36.81,36.81,0,0,0,3.91.55,7.44,7.44,0,0,1-2.32.48.05.05,0,0,0,0,0H225c-1,0-1.88,0-2.8,0m-3.69-.28a3.58,3.58,0,0,0,1.4-.67,26.43,26.43,0,0,0,3.3.52c-.45.16-.92.29-1.29.42-1,0-1.9-.11-2.84-.18l-.57-.09m-6.23-.53a6.33,6.33,0,0,0,.78-.17c1.07.19,2.14.37,3.22.54l-4-.37m-5.55-.3a7.33,7.33,0,0,0,1.12-.3l2.53.23c.17,0,.23-.13.06-.14l-2.2-.25c.25-.1.51-.21.76-.33s0-.22-.2-.15l-1,.43-3.23-.38a.26.26,0,0,0-.26,0l-1.65-.16a31.73,31.73,0,0,1,5.37-.23c2.72.22,5.39.61,8.16.57,3.54,0,7.1.09,10.64.19,3.23.09,6.46-.26,9.69-.27,2.66,0,5.8.58,8.46.14,3.55-.59,6.62-.24,10.14-.45,3.74-.23,7.35-.78,11.12-.88a32.35,32.35,0,0,0,7.87-.78c1.69.17,2-.42,4.15-.54a43.55,43.55,0,0,0,5.4-.41,77.22,77.22,0,0,1,9.81-1.69c2.29-.14,4.68.14,6.95-.07,2.51-.23,4.46-.92,6.85-1.31a81.36,81.36,0,0,1,8.44-.58,21.2,21.2,0,0,0,5.2-.69c.69-.23,4.36-1.74,3.94.43,0,.12,0,.24,0,.37s-.08.06-.08.11,0,0,0,0c-.65,0-1.32.06-2,.07a.92.92,0,0,0,.1-.45l.76,0c.07,0,.06-.06,0-.06l-.76,0s-.12,0-.15,0c-1.06,0-2.12-.07-3.18-.07-.05,0-.06,0,0,0,1,0,2.1.07,3.16.09a.86.86,0,0,1-.15.46,24.33,24.33,0,0,1-3.09-.14c-.05,0-.06,0,0,0l.52.07s0,0,0,0c.14.3-.09.59-.47.85-.77,0-1.55-.11-2.32-.18l.13-.08c.12-.07-.08-.17-.21-.09l-.25.14h-.05c-.06,0-.06,0,0,0l-.92.52c-.74-.08-1.48-.22-2.18-.32,0-.07-.18-.1-.24,0l-.1,0c-1.33-.18-2.74-.23-4.1-.29-.06,0-.07,0,0,0,1.37.17,2.74.32,4.11.48a2.43,2.43,0,0,1-.39.66l-3-.19a1.42,1.42,0,0,0,.1-.29c0-.1-.28-.11-.3,0a1.48,1.48,0,0,1-.1.27l-1.4-.11c-.08,0-.12.06,0,.07.45.07.9.12,1.35.17a2.3,2.3,0,0,1-.72.65c-.94-.08-1.88-.14-2.83-.18a1,1,0,0,0,.19-.45c0-.11-.31-.15-.33,0a.92.92,0,0,1-.24.47l-.73,0c-.1,0-.1.09,0,.09l.62.05a4.62,4.62,0,0,1-1.36.77l-.21,0c-.69,0-1.38-.1-2.07-.17a.93.93,0,0,0,.33-.9c0-.1-.31-.1-.29,0a.89.89,0,0,1-.37.87l-2.38-.21.21-.23c.08-.09-.17-.17-.25-.08a3.57,3.57,0,0,1-.27.28c-.7,0-1.41-.09-2.12-.11-.06,0-.07.06,0,.06l2,.18c-.28.26-.59.51-.91.76-.77,0-1.55-.08-2.33-.14a.55.55,0,0,0,.07-.3c0-.11-.3-.1-.32,0a.71.71,0,0,1-.13.28c-1.22-.09-2.45-.19-3.68-.31-.12,0-.15.08,0,.1,1.19.17,2.39.28,3.61.37a3.84,3.84,0,0,1-.67.54h0l-3-.09.29-.26c.11-.1-.19-.18-.31-.08s-.26.22-.39.32c-1.6-.06-3.2-.16-4.79-.34-.08,0-.12.06,0,.07l.48.08a7.47,7.47,0,0,1-.91.85c-1.09-.09-2.18-.17-3.28-.2-.1,0-.1.08,0,.09q1.55.12,3.09.27c-.18.12-.36.25-.57.37-.67.11-1.39.21-2.13.31l-1.47-.14a4.22,4.22,0,0,1,.39-.87c.07-.09-.19-.16-.27-.08a3.19,3.19,0,0,0-.49.9h0c-1-.11-2.08-.23-3.13-.32a.86.86,0,0,0-.05-.27c0-.13-.39-.07-.35,0a1.1,1.1,0,0,1,0,.18c-.89-.07-1.77-.13-2.67-.14-.09,0-.09.07,0,.08.9.07,1.79.16,2.69.25a1.38,1.38,0,0,1-.35.77,42.73,42.73,0,0,1-4.39-.21c-.08,0-.11.07,0,.09a24.25,24.25,0,0,0,4.28.29l-.32.29a6.56,6.56,0,0,0-.73.51l-.1.08-.67,0c0-.27-.11-.54-.51-.82-.11-.08-.32,0-.24.09a1,1,0,0,1,.32.75c-1,.06-2,.11-3,.14-.07,0-.09.07,0,.07a20.66,20.66,0,0,0,2.94-.07,1.45,1.45,0,0,1-.52.64l-.57.45-1.27,0c0-.12,0-.24,0-.35s-.27-.1-.28,0a2.37,2.37,0,0,1-.09.36l-2.51.05.38-.26.47-.12-.07,0a3.08,3.08,0,0,0-.44-.35c-.42,0-.85,0-1.26.08a2.62,2.62,0,0,0,.39-.59,3.83,3.83,0,0,0,.87-.25c.1-.05,0-.14-.13-.11a4.42,4.42,0,0,1-.63.14,1.75,1.75,0,0,0,.12-.76c0-.07-.2-.07-.21,0a2.7,2.7,0,0,1-.26.81,14.87,14.87,0,0,1-2.67,0l.06-.17c0-.1-.24-.14-.28,0a1.46,1.46,0,0,1-.07.19l-1.55-.12c-.08,0-.11.06,0,.07l1.51.2a3.41,3.41,0,0,1-.54.84c-.72-.05-1.44-.14-2.09-.2.13-.15.25-.3.35-.44s-.21-.13-.28,0l-.38.45c-.87-.08-1.72-.18-2.56-.31a.39.39,0,0,0-.06-.2c0-.08-.27,0-.24,0a.56.56,0,0,1,0,.13l-.59-.09c-.06,0-.1,0,0,0l.63.13c-.05.25-.33.46-.7.66l-2.58-.37c-.13,0-.18.09,0,.11.77.15,1.57.27,2.36.39-.23.11-.49.2-.74.3-.94-.15-1.89-.27-2.81-.44-.28,0-.56-.11-.83-.18.89-.16,1.93-.36,1.95-.92,0-.11-.31-.13-.32,0-.05.45-1.14.66-1.91.87l-1.88-.5a3.58,3.58,0,0,0,.71-.49c.1-.1-.15-.19-.26-.1a3.6,3.6,0,0,1-.78.5l-.94-.23c-.08,0-.13,0-.06.07l.8.26-.55.23a12.51,12.51,0,0,1-3.34-.08c.4-.17.79-.35,1.23-.51.15,0,0-.2-.17-.15a8,8,0,0,0-1.45.61c-1.05-.15-2.09-.32-3.09-.37-.07,0-.08.06,0,.07.7.07,1.47.21,2.27.35-.37,0-.68,0-.86,0a23.94,23.94,0,0,0-2.52.27l-.74,0,.14-.07a1.06,1.06,0,0,0,.6-.74c0-.09-.25-.11-.28,0a1.65,1.65,0,0,1-.88.79l-2.56-.19a.37.37,0,0,0,.14-.43c0-.08-.26,0-.25,0a.46.46,0,0,1-.19.38c-.69,0-1.38-.09-2.06-.15-.09,0-.12.06,0,.07.63.1,1.26.18,1.91.24a4.35,4.35,0,0,1-.78.39c-1.25-.07-2.47-.19-3.69-.33a3.43,3.43,0,0,0,.59-.55c.07-.09-.17-.16-.24-.07a3.53,3.53,0,0,1-.67.59l-2.64-.31c-.09,0-.13.06,0,.08.79.16,1.6.29,2.43.4-.17.1-.34.2-.52.29l-3.91-.46c.32-.24.59-.54.83-.72s-.08-.16-.2-.09c-.42.23-.68.52-1.07.77l-4.26-.45a.46.46,0,0,0,0-.26c0-.09-.3-.08-.3,0,0,.33-.38.58-.88.79-1.2-.15-2.36-.34-3.51-.56l.16-.17c.07-.09-.16-.16-.25-.07s-.14.11-.21.17c-.44-.08-.87-.17-1.3-.27-.1,0-.22,0-.12.09.37.14.77.26,1.18.37a4.62,4.62,0,0,1-1.52.68c-1.54-.24-3.06-.51-4.59-.76a4.34,4.34,0,0,0,1.12-.56c.13-.09-.13-.19-.25-.1a4.85,4.85,0,0,1-1.31.58c-.87-.14-1.74-.27-2.62-.39-.09,0-.14.06,0,.08l2.23.44c-.32.08-.65.15-1,.2-1.22-.1-2.45-.19-3.71-.23l-1.18,0m-3.3,0a1.79,1.79,0,0,0,1.06-.65c.93.11,1.87.2,2.81.29a9.15,9.15,0,0,1-1.37.34c-.83,0-1.67,0-2.5,0m-12.32-.36a3.31,3.31,0,0,0,.45-.12L192,109l.63.16a13.66,13.66,0,0,0,3,.54c.15,0,.17-.12,0-.13a12.35,12.35,0,0,1-3.43-.67c.18-.11.31-.22.32-.34a4.11,4.11,0,0,0,.42.15,15.34,15.34,0,0,0,4.77.7,7.38,7.38,0,0,1-1.36.13c-.07,0-.08,0,0,.06a7,7,0,0,0,3.1-.41c.16-.06,0-.19-.14-.14l-.32.08a1.42,1.42,0,0,0,.3-.2c1.3.26,2.79.26,4.13.39.24,0,.35-.17.11-.2-1.37-.13-2.74-.2-4.1-.37,0,0,.06-.05.07-.09a19.5,19.5,0,0,0,2.42,0c.73.13,1.48.24,2.24.33a3.1,3.1,0,0,1-1.47.71c-3,.06-6.06.16-9.11,0l-1.3-.07a.12.12,0,0,0-.07,0l-1.09-.26m-.61-.14a14.14,14.14,0,0,1-1.43-.4l-.18-.07c.35-.07.69-.14,1-.19.13,0,.14-.1.09-.15.55.2,1.1.39,1.67.55a4.77,4.77,0,0,1-1,.25h-.2m-2.84,0c.09,0,.14-.08,0-.12l-.43-.18a6.63,6.63,0,0,0,1.18-.08l.71.25.68.19c-.42,0-.84,0-1.26,0-.11,0-.15.05-.13.09l-.8-.12m-.66-.42-.13-.06.93-.17.38.16a6.62,6.62,0,0,1-1.18.07m-1.21.1.72-.1,1,.39c-.57-.08-1.13-.18-1.68-.29m-3-.84a13.09,13.09,0,0,0,1.56-.15l1.84.76-.82.15a19.43,19.43,0,0,1-2.58-.76m-1.34-.55a4.34,4.34,0,0,0,.73-.19l1,.53c.13.07.34,0,.21-.11l-1-.52.2-.08c.46.22.93.43,1.41.64-.47.07-.94.16-1.43.21h0l-1.14-.48m-2.5-1.08a4.68,4.68,0,0,0,1.07-.18c.61.32,1.24.62,1.86.93a5.94,5.94,0,0,1-.78.18c-.71-.31-1.42-.63-2.15-.93M174.62,105l.43-.18,1.35.65c-.58-.17-1.17-.33-1.78-.47m-3.41-.83.14,0h0c.09,0,.2,0,.2-.05a2.52,2.52,0,0,0,1.14-.51c.64.39,1.35.75,2.07,1.1l-.54.21c-1-.23-2-.46-3-.73m-4.15-1.48a10.67,10.67,0,0,0,1.15-.11c.94.48,1.91.94,2.85,1.42l-.3,0c-.2-.06-.41-.11-.61-.18-1.09-.34-2.09-.76-3.09-1.17m-3.65-1.33q.54-.1,1.08-.24c.47.24.94.47,1.36.71.14.08.38,0,.25-.11l-1.21-.7H165c.17-.05,0-.2-.14-.15l-.15,0c-.76-.44-1.51-.88-2.22-1.34,0,0,0,0,0-.06.19-.11.28-.26.1-.43l-.11-.1.74.08c.51.31,1,.62,1.6.91.15.08.39,0,.25-.11-.49-.26-1-.53-1.47-.78.08,0,.07-.11-.05-.13-.41-.07-.86-.12-1.3-.17-.35-.3-.74-.59-1.13-.88.42,0,.85,0,1.28.06.16,0,.21-.12,0-.14a13.17,13.17,0,0,0-1.55-.09l-1.44-1a6.49,6.49,0,0,0,.88,0,5.64,5.64,0,0,0,.72,1.08s.19,0,.21,0c.12-.39-.21-.76-.53-1.14l.52-.12c.18,0,.05-.21-.13-.16l-.52.11c-.31-.39-.54-.78-.2-1.19.07-.09-.16-.16-.24-.07-.39.37-.24.8,0,1.19l.08.13a7.11,7.11,0,0,1-1,0,11,11,0,0,1-1.46-1.3l0-.05a4.85,4.85,0,0,0,.66,0,3.69,3.69,0,0,0,1.08,1.17c.05,0,.16,0,.14,0-.25-.42-.53-.8-.77-1.19l.68-.16c.18,0,0-.2-.14-.15a4.4,4.4,0,0,1-.65.13,2.81,2.81,0,0,1-.44-1.24c.09,0,.07-.11,0-.13s0,0,0,0-.31-.13-.31,0v.1a5.06,5.06,0,0,1-.89.09,8.67,8.67,0,0,1-.61-1.27,7.82,7.82,0,0,0,.92-.2c.17,0,0-.2-.14-.15s-.55.13-.85.18c-.14-.38-.29-.75-.46-1.13,0-.11-.34-.07-.3,0a10.93,10.93,0,0,1,.39,1.14,5,5,0,0,1-.67,0l-.32-.32s.05,0,0-.06c-.14-.31-.33-.61-.48-.91l.68-.08c.19,0,.14-.2-.06-.17l-.7.07-.12-.28c-.15-.49-.27-1-.46-1.48,0-.1-.34-.07-.3,0,.19.51.24,1.16.45,1.75h-.19l-1-.94a1,1,0,0,0,0-.58h.32c.19,0,.18-.16,0-.16h-.37c-.06-.13-.12-.26-.18-.37-.18-.35-.4-.69-.62-1a3.2,3.2,0,0,0,.42-.1c.17-.05,0-.2-.14-.15a2.74,2.74,0,0,1-.39.09l-.25-.38c-.07-.11-.38,0-.31.07s.16.24.23.36a6.13,6.13,0,0,1-.76.07c-.14-.35-.3-.71-.47-1.06l.66-.19c.16,0,0-.18-.15-.13l-.58.18c-.22-.44-.44-.87-.61-1.31-.05-.11-.36-.09-.32,0,.18.45.33.93.54,1.41l-.28.09-.92-1a5,5,0,0,0,.69-.1c.19,0,0-.21-.13-.16s-.46.08-.68.12c-.16-.17-.32-.35-.46-.53l-.49-.59h.08a3,3,0,0,0,.48.55s.15,0,.12,0-.25-.38-.36-.56l.44-.12c.15,0,0-.16-.16-.11l-.35.08c-.19-.34-.35-.68-.52-1h.15c.19,0,.21-.17,0-.17h-.26l0-.09c0-.1-.34-.06-.28,0s0,0,0,0a4.58,4.58,0,0,1-.53,0c-.9-1.06-1.82-2.12-2.81-3.16a1.52,1.52,0,0,0,.48,0,10.94,10.94,0,0,0,1.48,1.68s.16,0,.12,0l-.1-.13a4.29,4.29,0,0,0-.45-.72s-.08,0-.12,0c-.23-.28-.47-.55-.71-.83,0,0,0-.11-.11-.12s-.17-.19-.25-.28-.29,0-.22,0,.14.16.21.24a1.91,1.91,0,0,1-.53,0c-.53-.56-1.1-1.11-1.69-1.66,0,0,0,0,0,0a5.45,5.45,0,0,0,.5.46c.06.05.21,0,.16,0a4.84,4.84,0,0,0-.48-.55.13.13,0,0,0-.06-.07l-.65-.63c-.08-.08-.31,0-.24,0s.4.41.6.62l0,0-.73-.67c-1.41-1.23-3-2.41-4.46-3.61l.11,0c.17,0,0-.21-.15-.16l-.14,0-1-.83a1.11,1.11,0,0,0,.45-.26,7.83,7.83,0,0,0,.69.58c.06,0,.19,0,.16-.05a6.55,6.55,0,0,0-.49-.61,35.74,35.74,0,0,0,3.24,2.67,78.14,78.14,0,0,1,6.07,5.22c-.13.06-.2.16-.15.26a2.84,2.84,0,0,0,2.27,1.74c.88.84,1.76,1.69,2.65,2.52,1.78,1.66,3.27,3.55,5.3,5.12a27.29,27.29,0,0,1,5,4.59c1.83,2.35,5,4.22,7.18,6.45,0,0,0,0,0,0a7.9,7.9,0,0,0-2-1c-.06,0-.13,0-.08,0,1.16.69,2.3,1.34,3.32,2.09.09.07.29,0,.2-.08l-.18-.13a4.42,4.42,0,0,0,2.82.25h.07c2,.15,3.33,1.33,4.86,2a53.82,53.82,0,0,0,5.33,1.83c2.85.81,6,1.28,8.79,2.12.39.12.74.21,1.08.28.13.08.28.14.42.21a0,0,0,0,0,0,.06c.1.12,0,.24-.26.34-.75-.23-1.49-.48-2.21-.66-.08,0-.14,0-.07.08l.31.11h-.07l-1.26.25-.42-.17.5-.12c.18,0,0-.2-.13-.15l-.67.16a7.48,7.48,0,0,0-1-.34c-.1,0-.22.05-.12.09l.76.32-.94.17-1.73-.76c.27,0,.54,0,.83-.06s.17-.19,0-.18a10.36,10.36,0,0,0-1.12.1c-.54-.23-1.1-.45-1.66-.66a4.17,4.17,0,0,0,.56-.36c.1-.08-.12-.17-.22-.1a4.81,4.81,0,0,1-.64.34l-.35-.13c-.1,0-.19,0-.11.07l.29.14-.19.07-1.88-1a.25.25,0,0,0,.1-.37c0-.06-.22-.06-.22,0a.26.26,0,0,1-.13.23,24.57,24.57,0,0,1-2.48-1.47c-.07,0-.2,0-.14.06a12.55,12.55,0,0,0,2.35,1.53,6,6,0,0,1-1.06.21c-.51-.21-1-.41-1.58-.6,0,0,0,0,0-.07l-1.78-.93.16-.08c.14-.07-.05-.19-.2-.12l-.19.08-3-1.55c-.08,0-.18,0-.13.06s.35.25.54.37a2.24,2.24,0,0,1-1.15.5c-.92-.48-1.85-1-2.8-1.43a8.63,8.63,0,0,0,.88-.2c.19,0,.06-.22-.13-.16s-.67.16-1,.23c-.5-.25-1-.49-1.52-.72-.07,0-.16,0-.1.06.41.25.85.48,1.29.71l-1.11.16c-.83-.34-1.66-.68-2.55-1-.28-.1-.58-.18-.87-.27m-3.84-1,.7-.09.92.38c.17.07.36-.07.19-.14l-.7-.29.43-.07c.21,0,.09-.2-.12-.17l-.69.08c-1.07-.46-2.11-.94-3.22-1.38a2.74,2.74,0,0,0,.39-.09c.05,0,.07,0,.07-.06,1.32.48,2.67.94,4.11,1.32a.83.83,0,0,0,.59-.06,9.28,9.28,0,0,0,2,1.26l-1.14.27c-1.16-.34-2.35-.64-3.53-1m-4.3-1.67a3.84,3.84,0,0,0,1.51,0c1,.45,2.05.92,3.09,1.37l-.83.09c-.35-.1-.69-.19-1-.3a16.62,16.62,0,0,1-2.75-1.21M153,97.52a3.11,3.11,0,0,0,.69,0h0l1.4.63c.14.06.34,0,.2-.11L154,97.47a4.27,4.27,0,0,0,.54-.13l2.75,1.06-.53.12-.5-.2c-.1,0-.22.05-.13.09l.32.15a4.48,4.48,0,0,1-1.37,0h0c-.68-.35-1.36-.71-2.12-1m-14.13-4.29c.37,0,.74,0,1.1-.09.76.33,1.58.61,2.39.89l-.57.11a27.24,27.24,0,0,1-2.92-.91m-2.32-1.8a1.47,1.47,0,0,0-.66,0h0a.66.66,0,0,0-.51.1,6.36,6.36,0,0,0-1.26-.5c.08-.21,0-.37-.51-.32-.09,0-.11.09,0,.1s.25.07.23.14c-.44-.12-.9-.23-1.35-.32h0a8.37,8.37,0,0,0,1.41-.43c.18-.06,0-.21-.2-.15-.43.13-.84.3-1.29.39a.62.62,0,0,0-.2-.1c-.83-.26-1.63-.54-2.43-.83a5.08,5.08,0,0,0,2.26-.08h0l1.14.48c.12,0,.26-.06.13-.11-.36-.14-.71-.29-1.07-.42a11,11,0,0,1,3,.95l0,0c-.19-.08-.39-.15-.6-.22s-.15,0-.08.07a16.31,16.31,0,0,1,3.17,2c.13.09.38,0,.25-.11-.55-.39-1.07-.81-1.68-1.19a74.85,74.85,0,0,0,12.34,4.39c.69.19,1.35.4,2,.62,0,0-.1,0,0,.08a17.12,17.12,0,0,0,2.74,1.41,4.75,4.75,0,0,1-.83,0c-.91-.33-1.85-.65-2.79-1a5,5,0,0,0,.69-.14c.15,0,.05-.17-.09-.13a6.08,6.08,0,0,1-1,.16c-1-.32-2-.62-3-.91l.53-.14.72.2c.16,0,.31-.09.14-.13l-.52-.16c.11,0,0-.16-.17-.12l-.12,0c-1-.32-1.82-.73-2.85-1-.12,0-.21.06-.1.1.82.35,1.68.7,2.6,1l-.54.14-.59-.17c-1-.26-2.12-.54-3.31-.85.19,0,.36-.08.55-.12h0l.21,0c.19,0,.07-.22-.12-.17l-.18,0c-.81-.28-1.57-.57-2.31-.88l.25,0c.18,0,0-.19-.14-.15l-.38.08c-.67-.29-1.32-.59-2-.91-.05,0-.13,0-.09,0a8.06,8.06,0,0,0,1.64.93c-.35,0-.71.08-1.06.11a8.14,8.14,0,0,1-1-.48c.18-.41-.47-.8-1.14-1,.14,0,.2-.12,0-.17m-6.74-.75c0,.15,0,.27-.24.39l-.15,0-.09,0a.44.44,0,0,0,0-.39l.48.08m.35.06c.53.09,1.07.17,1.59.27,0,.19-.18.35-.43.47a11.65,11.65,0,0,1-1.23-.23l-.21-.08c.24-.13.32-.27.28-.43m1.94.33c.46.09.91.19,1.34.31a1.15,1.15,0,0,1-.55.18,6.32,6.32,0,0,1-1.15,0h0a.73.73,0,0,0,.36-.48m1,1.33.37-.08a3.34,3.34,0,0,0,1.36-.46,1.2,1.2,0,0,0,.19,0,5.3,5.3,0,0,1,.59.27.42.42,0,0,0,.25,0c.25.25.31.51-.71.48-.23,0-.44,0-.66,0,.43-.06.69-.2.63-.46,0-.1-.31-.11-.29,0,.05.29-.77.33-1.73.28m-3.36-.47a4.24,4.24,0,0,0,1.52-.16h.15a4.94,4.94,0,0,0,2,0,1.25,1.25,0,0,0,.41-.24l.63.18a1.3,1.3,0,0,1-.64.42,6.65,6.65,0,0,1-2.88-.09c-.07,0-.13,0-.08.07a1.46,1.46,0,0,0,.31.14l-.66-.07-.29-.06a.1.1,0,0,0-.08,0H130l-.31-.13m-1-.34a5.5,5.5,0,0,0,.84-.27,7.39,7.39,0,0,0,1.09.39,4.93,4.93,0,0,1-1.25.11l-.68-.23m-1.16-1.32,1.37.26a.39.39,0,0,1,0,.34,6.66,6.66,0,0,1-1.42-.6m.13,1q-.66-.27-1.29-.57a2.85,2.85,0,0,0,.69-.4,5.48,5.48,0,0,0,1.75.82,2,2,0,0,1-.7.32l-.45-.17m-3.74-.31a4.15,4.15,0,0,0,1.49,0,3.42,3.42,0,0,0,2,.51l.13.06-.32,0c-.09,0-.17,0-.08.08a.38.38,0,0,1,.1,0l-.52.05c-.26,0-.53-.08-.78-.14a14.16,14.16,0,0,1-2-.57m-1.28-.6.28-.08a5.12,5.12,0,0,0,1.64.59,4.21,4.21,0,0,1-.71,0l0,0a.11.11,0,0,0,0-.1s-.1,0-.14,0a4.27,4.27,0,0,1-1-.42m-2.06-.53a3,3,0,0,1-.47-.19,2,2,0,0,0,.33-.09c.43.25.88.48,1.33.7-.29-.08-.59-.16-.9-.22l-.13,0c.1-.07.08-.12-.06-.21s-.11,0-.1,0m-3.21-.61a3.57,3.57,0,0,0,1.19-.34,6.87,6.87,0,0,0,.9.64,2.54,2.54,0,0,1-.39,0c-.07,0-.12,0-.05.07a1.89,1.89,0,0,0,.7.1l.36.19c-.69-.13-1.41-.26-2-.44-1.58-.27-1.53-.59.08-.93.08.07.15.15.24.22a8.09,8.09,0,0,0-1.08.42s0,.08.07.07m3.63-.23a3,3,0,0,1-.47.26,4.46,4.46,0,0,1-.63-.39c-.12-.1-.41,0-.29.1a4.46,4.46,0,0,0,.57.43,2,2,0,0,1-.35.09c-.18-.11-.36-.21-.52-.33s-.36-.26-.52-.39l.23-.14s0-.06,0-.08c.63.07,1.24.16,1.84.26a.06.06,0,0,0,0,.09l.14.1m.21.16a14.22,14.22,0,0,0,1.44,1l-.32.07c-.51-.25-1.08-.55-1.54-.8a4.23,4.23,0,0,0,.42-.25m2.44.52A3.48,3.48,0,0,1,123,90a16.08,16.08,0,0,1-1.59-1l.07-.06c.57.11,1.13.24,1.69.37l.44.37m.21.17a12.68,12.68,0,0,0,1,.8,7.59,7.59,0,0,1-1.57-.5,3.45,3.45,0,0,0,.54-.3m2.94.31a2.33,2.33,0,0,1-.73.42c-.52-.25-1-.51-1.54-.77a.22.22,0,0,0-.25,0l-.2-.16a.67.67,0,0,0,.15-.14l2.57.62m-27.59-15a3.13,3.13,0,0,0,.49-.16h0a5.29,5.29,0,0,0,.76-.34c.1,0,0-.15-.15-.09a7.16,7.16,0,0,1-.74.32c-.47-.17-1-.34-1.4-.53l.72,0c.49,0,.67-.28.45-.46a.28.28,0,0,0-.08-.12,46.35,46.35,0,0,0-4.41-3.07c.19.08.37.17.57.24s.12,0,.1-.06l.13.1h-.08c-.08,0-.09.07,0,.08l.27,0,1.86,1.34c.06,0,.17,0,.14,0a6.57,6.57,0,0,0-1.23-1.25l.71,0,.41.31a39.25,39.25,0,0,0,9.75,7.59,157.33,157.33,0,0,0,14.62,7.06,48.44,48.44,0,0,0,6.07,2.48c1.07.27,2.26.44,3.42.65l.14.06a7.75,7.75,0,0,1-2.36.06c-2.15-.79-4.24-1.62-6.45-2.36-3.11-1-5.25-2.45-8-3.72-3.13-1.46-6.07-3-9.16-4.54-1.16-.55-2.4-1.69-3.88-2.3l.06,0c.35-.35-.69-.61-1-.25.55-.55-.5-.84-1.69-1M96,74.88a3,3,0,0,0,1.59-.52.09.09,0,0,0,0-.06h.1a7.48,7.48,0,0,0,1.73.62l-.49.19c-.77-.09-1.55-.13-2-.15l-1-.08m-2.62-.34c.32,0,.64-.08,1-.14a1.49,1.49,0,0,0,.71.21c.08,0,.17-.06.08-.09l-.45-.2.33-.08c.18,0,.06-.22-.13-.17a3.15,3.15,0,0,1-.44.11,2.26,2.26,0,0,1-.31-.23c1,.13,2.08.24,3.13.32a3.13,3.13,0,0,1-2,.5s-.07,0,0,0l.08,0c-.67-.08-1.31-.18-2-.28m-3.26-.6a4,4,0,0,0,.47-.21c.2.09.41.17.61.24s.16,0,.11-.07a4.7,4.7,0,0,0-.5-.29l.12-.07a0,0,0,0,0,0,0c.93.13,1.86.26,2.79.37,0,0,0,0,0,0a4,4,0,0,0,.36.32c-.44.08-.88.14-1.34.18l-2.64-.49m-4.65-.58L86.85,73c1,.12,2,.26,3,.4l.43.23a4.85,4.85,0,0,1-.61.25c-.9-.16-1.8-.31-2.74-.41a14.34,14.34,0,0,0-1.48-.09M78,73.09c.59-.15,1.15-.33,1.71-.49a.23.23,0,0,0,.09-.06c.61.24,1.21.49,1.83.72.08,0,.18,0,.12-.06a7.16,7.16,0,0,0-2.15-1c1.26.17,2.55.29,3.85.4,0,0-.06.08,0,.12.52.18,1.08.34,1.62.51.09,0,.18,0,.09-.07-.46-.2-1-.36-1.47-.54.89.07,1.76.17,2.64.27-.45.14-.89.28-1.33.44-1,0-2,0-3.06.07.18-.07.35-.14.54-.2s0-.21-.19-.15a9.61,9.61,0,0,0-.94.36,16.84,16.84,0,0,1-2.88-.17l-.5-.18m-3-.59,1-.26a10.52,10.52,0,0,0,1.19.75l0,0c-.75-.16-1.49-.33-2.22-.52m-2.86-.9a6,6,0,0,0,1.06-.15l0,0c.5.3.89.66,1.42.93.08,0,.19,0,.17-.05-.16-.38-.8-.72-1.29-1l.14,0c.18-.06.07-.22-.12-.17l-.28.07c-.5-.28-1-.54-1.54-.8a34.77,34.77,0,0,0,7.13,1.71s0,0,.06.06l.64.25c-.61.18-1.22.35-1.8.55a4.61,4.61,0,0,1-.81-.38c-.24-.15-.48-.3-.71-.46l.52-.16c.17,0,0-.17-.14-.13l-.56.17-.54-.37c-.12-.07-.31,0-.2.12s.31.21.46.32a10,10,0,0,0-1,.34l-.12,0c-.88-.24-1.73-.5-2.53-.8m-1.45-1.13a2.53,2.53,0,0,1,.67,0l0,0c.52.27,1.05.54,1.55.82a4.89,4.89,0,0,1-.57.08,3.62,3.62,0,0,1-.57,0,4.13,4.13,0,0,0-1.1-.92m-2.48-.87a2.22,2.22,0,0,0,.51-.06l1.1.77-.26,0c-.07,0-.07.06,0,.09a1.23,1.23,0,0,0,.59.09l1.06.7a15.16,15.16,0,0,1-2.94-1.59l0,0M43.26,57.88c1,.52,2,1.17,2.48,1.39,1.67.8,4,1.08,5.62,1.93,5.57,2.94,12.25,5,17.81,8l-.38.09-.19-.13c-.12-.08-.35,0-.23.11l.1.08a2.53,2.53,0,0,1-.55,0l-.28-.18-.35-.3.48-.12c.13,0,0-.15-.1-.11l-.46.16a.27.27,0,0,0-.08-.07.21.21,0,0,0-.23,0c-4.25-2.59-10.37-4.66-15.29-6.7-2-.83-5.88-2.28-7.4-3.41-.31-.23-.61-.5-1-.76"/><path class="cls-2" d="M69.74,50.4c0,.05,0,.13-.11.17a.08.08,0,0,1-.09,0c0-.05,0-.13,0-.18s.22-.06.19,0"/><path class="cls-2" d="M26.38,84.16c1.47,0,2.95.12,4.42.12a44.61,44.61,0,0,0,8.07-.73A27.64,27.64,0,0,0,51.15,78c4-3.13,4.64-7,10.21-9.55a13.68,13.68,0,0,1,4,.53,33.19,33.19,0,0,0,5.58,1.27c.51.07.7-.36.2-.43-2.94-.43-5.35-1.45-8.34-1.76-.5-.05-1-.07-1.54-.08a.44.44,0,0,0-.24-.12c-4.47-.81-8.88-1.72-13.31-2.6-3.48-.69-7.37-1.78-11.2-1.58a67.17,67.17,0,0,0-10.28,1.53c-3.27.67-6.58,1.42-9.07,2.81-5.69,3.19-8.43,7.65-12.63,11.39-1.87,1.66-7,5.15-3.08,6.9l.14,0a.58.58,0,0,0,.55.19c2.38-.24,4.93-.14,7.26-.46,3.28-.44,6.88-.17,10-.87a28.93,28.93,0,0,1,7-1M59.35,68c-1.05.07-2.08.17-3.05.3s-1.74.23-2.61.33c-2.51-.5-5.08-.89-7.5-1.55a21.64,21.64,0,0,1-6.1-2.76c.43.05.84.11,1.26.18,6.06,1.07,11.95,2.4,18,3.5M21,84.25c-3,.69-5.8.6-8.9.93-3.29.35-6.63.45-9.92.78l-.09-.06c-3-1.35,1.19-4.41,2.59-5.67C6.45,78.63,8,77,9.61,75.34c2.79-2.93,5.83-6.73,11.44-8.36,5.28-1.54,12.62-3.33,18.81-2.68a15.65,15.65,0,0,0,5.67,2.78,50.88,50.88,0,0,0,7.77,1.6q-3,.36-6.12.65c-.86.07-1.75.12-2.65.17s-1.47-.09-2.28-.14a14.09,14.09,0,0,1-4.13-.82c-1.89-.7-3.57-1.55-5.39-2.3-.06,0-.11,0-.06.05a33.71,33.71,0,0,0,5.82,2.55,13.46,13.46,0,0,0,2.7.58c.8.08,1.6.09,2.4.14a31,31,0,0,0-4.54.51,27.83,27.83,0,0,0-5.13,1.67c-2,0-4,.35-6.11.09a34,34,0,0,1-7.07-1.9c-.08,0-.16,0-.08.07a24.58,24.58,0,0,0,6.58,1.91,46.62,46.62,0,0,0,6.37,0c-1,.42-2.05.84-3.21,1.2-2.5.8-5,1.55-7.45,2.41-3.8.09-7.1-.86-9.25-2.64,0,0-.11,0-.08,0,1.7,1.83,5.24,2.86,8.88,2.76-1.86.65-3.75,1.26-5.59,1.92a.13.13,0,0,0-.12,0l-.37.18-1.16.43-.16.06c-.61.11-1.2.19-1.63.23-1.36.15-2.59-.12-3.92,0-.09,0-.07.07,0,.08a18.42,18.42,0,0,0,5,0c-1.79.66-3.83,1.29-4.95,2.29-.25.22.26.43.58.24a26.41,26.41,0,0,1,4-1.94,11.27,11.27,0,0,0-3.48,3.73s.06,0,.08,0a17.11,17.11,0,0,1,2.64-3,11.27,11.27,0,0,1,1-.67,2.77,2.77,0,0,0-.62.83s.12.07.17,0c.42-.41.76-.84,1.17-1.25l1.42-.5a3.86,3.86,0,0,0-.71.89c0,.06.12.09.17,0,.35-.38.67-.75,1-1.11.76-.26,1.53-.52,2.3-.76a5.81,5.81,0,0,0-1.71,1.55s.08.06.12,0A23.74,23.74,0,0,1,19.9,77L22,76.38c-.28.18-.54.36-.78.55-2,1.53-3.77,3.35-4.24,5.23,0,0,.08,0,.1,0a13.88,13.88,0,0,1,4.08-4.91,15.86,15.86,0,0,1,1.65-1.15L24,75.7a4,4,0,0,0-.89,1.18s.09.07.13,0c.45-.46.77-.93,1.24-1.37l2-.65a5.88,5.88,0,0,0-1.33,1.49s.09.07.13,0c.53-.56,1.06-1.11,1.64-1.65l2.25-.69a16.34,16.34,0,0,1-1.42,1.05,2.4,2.4,0,0,0-.85,1.24s.07,0,.09,0a4.53,4.53,0,0,1,1.65-1.64,1.89,1.89,0,0,0,.82-.71.05.05,0,0,0,0,0c.48-.16,1-.31,1.42-.48.64-.23,1.24-.48,1.84-.73a17.15,17.15,0,0,0-2,1.32,19.43,19.43,0,0,0-4.56,5.36s.1.08.15,0c1.53-1.84,2.73-3.94,5-5.56a20.83,20.83,0,0,1,3.45-2,5.29,5.29,0,0,0-1.3,1.54s.09.06.13,0a18.49,18.49,0,0,1,1.87-1.89l.12,0c.49-.19,1-.36,1.52-.52a6.21,6.21,0,0,0-1.23,1.47s.06,0,.08,0a10.78,10.78,0,0,1,1.62-1.62l.82-.2c.47-.09.94-.17,1.42-.24a12.27,12.27,0,0,0-1.17.74,4,4,0,0,0-1,1.27s.05,0,.07,0a6.05,6.05,0,0,1,1.19-1.18c.45-.32,1-.59,1.37-.92.65-.09,1.32-.16,2-.22-.39.24-.94.4-1.34.64a3,3,0,0,0-1,.88s.06,0,.09,0a5.74,5.74,0,0,1,1.72-1.07,3.26,3.26,0,0,0,.87-.5L44.84,70A17.21,17.21,0,0,0,40,72.81a18.61,18.61,0,0,0-4.93,5.35c0,.06.1.08.14,0a34.19,34.19,0,0,1,5-5.27,15.29,15.29,0,0,1,5.4-3L47,69.82A4,4,0,0,0,45.32,71s0,0,.07,0a8,8,0,0,1,2-1.25l1-.09a4.87,4.87,0,0,0-2.08,1.6s.07.06.1,0a8.3,8.3,0,0,1,2.4-1.67l1-.1A11.93,11.93,0,0,0,48,70.72c-.06,0,0,.11.12.07a10.78,10.78,0,0,1,2.28-1.29l2.87-.32A21.69,21.69,0,0,0,44,75.6s.06.05.09,0c1.67-1.41,2.82-3,4.92-4.25a26.88,26.88,0,0,1,5.08-2.3l1.43-.18c1.3-.17,2.77-.36,4.24-.44A11.09,11.09,0,0,0,56.16,71c-1.37,1.68-2.24,3.47-3.91,5.07a26.06,26.06,0,0,1-15.51,7.29C31.51,84,26,83.1,21,84.25"/><path class="cls-2" d="M114.11,24.67c2.83-2.19,3-3.64,1.63-6.09-.1-.17-.22-.34-.33-.52.32-2.47,2.08-4.75,1.66-7.25-.22-1.28-1.78-2.6-3.19-3.59a19,19,0,0,1-4.42-4.06c-.51-.66-1.11-1.89-2.24-2.38A5.21,5.21,0,0,0,105,.57l-.5.39c3.29-.15,3.87,1.8,4.82,3.1,1.14,1.56,3.1,2.67,4.63,4.09,1.87,1.74,2.91,3.91,1.53,5.88-.28.39-1,1.17-1,1.59a2.91,2.91,0,0,0,.21,1.4c-1.42-1.79-3.24-3.44-4-5.37a3.07,3.07,0,0,0-1.35-1.7,3.09,3.09,0,0,1-.52-.15H107a6.58,6.58,0,0,0-5.24,2.57,10.48,10.48,0,0,1-.94,1.14c.65-1.12.72-2.39,1.83-3.4.07-.07-.11-.14-.2-.08-.92.55-1.06,1.47-1.45,2.16a5.59,5.59,0,0,1-1.7,2.4,5.65,5.65,0,0,0-1.2,1,5.66,5.66,0,0,1-.79.86c-.91.62-1.89,1.23-2.9,1.81l-.1.05-.84.34A21.22,21.22,0,0,0,95.68,17c.54-.48.59-1.07,1.18-1.56.44-.37.94-.73,1.38-1.11.89-.73,1-2,1.3-2.83a17.31,17.31,0,0,1,2.25-3.41c0-.08-.18-.14-.24-.06a15.26,15.26,0,0,0-2.27,2.94,25.27,25.27,0,0,1-1.19,2.82c-.58.92-1.88,1.8-2.58,2.72a9.07,9.07,0,0,1-2.2,1.83c.8-.84,1.86-1.65,2.09-2.57s-.07-2,.55-3c.47-.73,1.3-1.35,1.87-2.06,1.05-1.29,1.72-2.77,1.08-4.18-.19-.42-1.71-2.42-1.12-2.69.12,0,0-.15-.15-.11-.81.22.19,1.58.35,1.88,1,2,.72,3.86-1.22,5.69A4.24,4.24,0,0,0,95.06,14a4.18,4.18,0,0,1-1.45,3.58c-.15.13-.41.36-.69.63a8.39,8.39,0,0,1,.24-1.17,7.11,7.11,0,0,0,.59-2c0-1.94-1-3.83,0-5.75,0-.09-.2-.15-.27-.05-1,1.52-.45,3-.27,4.55a6.4,6.4,0,0,1-.42,2.78c-.24.8-.26,1.6-.57,2.39a1.7,1.7,0,0,0-.27.54c-.55-3.08,1.81-7-3.09-9.23a.12.12,0,0,0,0-.14c-.37-.54.78-1.61.94-2.11A3.64,3.64,0,0,1,91,6c1.36-1.1,2.88-2,3.69-3.31.43-.67-.4-2.82,2.88-2.25.8.14,1.86.34,2.67.44a16.54,16.54,0,0,0,4.33.23c.09,0,.12-.07,0-.11a15.5,15.5,0,0,0-3-.29c-.81-.1-4-.92-5.65-.7a2.52,2.52,0,0,0-2.15,2.11c-.57,1.71-3.16,2.6-4.34,4.1a9.08,9.08,0,0,0-1.9,3.59c-4.11-1.4-6.75-4.6-11.84-5-1.5-.5-3.06,2.28-3.4,2.6-1.35,1.29.37,2.35-.7,3.64a3,3,0,0,0-.48,1c-.24-.32-.49-.65-.78-1A42.2,42.2,0,0,0,65.93,7c-1.63-1.36-1.58-3.24-5.29-3-.09,0-.19.05-.2.11s0,.13,0,.19h.06a1.91,1.91,0,0,1,.48,0c.9-.13,4.54,2.87,5.05,3.32a30.26,30.26,0,0,1,2.92,2.83c.76.88,1.3,2,2.23,3,0,0,0,.11.08.15h0a.23.23,0,0,0,.11.07h0a5.43,5.43,0,0,0,1.62,1c3.53,1.43,5.09,3.84,8,5.66,2.43,1.5,4.66,3.42,5.48,5.35-.48.63-1,1.25-1.51,1.93-.81,1.09-.08,2.55.55,3.61a5.64,5.64,0,0,1,.63,2.16,4.37,4.37,0,0,0-.65-.29,6.37,6.37,0,0,1-1.42-.56,5.34,5.34,0,0,1-1.52-1.41s-.11,0-.1,0a3,3,0,0,0,1.13,1.44,4.21,4.21,0,0,0,1.19.54c.51.15.91.38,1.42.52a3.85,3.85,0,0,0,.42,1.22,10.36,10.36,0,0,1-7.07-5.18A14.61,14.61,0,0,0,76,25.25s-.09,0-.07,0A5.68,5.68,0,0,0,77,26.93a7.38,7.38,0,0,1,1.75,2,7.6,7.6,0,0,0,1.73,2.94,13.11,13.11,0,0,0,5.27,3.06,6.48,6.48,0,0,1-1.08-.1l-.39-.08c-.58-.36-1.43-.66-2-1a12,12,0,0,1-3-2,15.82,15.82,0,0,0-2-2.35c-1-.74-2.07-1.5-3-2.29,0,0-.07,0-.06,0a9.5,9.5,0,0,0,2.35,2.16,13.81,13.81,0,0,1,2,2.25,16.2,16.2,0,0,0,4.92,3c-.89-.2-1.74-.43-2.57-.67-.34-.94-2.8-1.71-3.88-2.28-2.78-1.46-5.41-3.35-6.71-5.35s-1.16-4-2.59-5.93a9.93,9.93,0,0,1-2-3,15.93,15.93,0,0,1,0-3.52c0-.06-.15-.07-.18,0a4.6,4.6,0,0,0,.36,4.76,25,25,0,0,1,1.9,2.65,30.54,30.54,0,0,1,1.25,3.46,10.73,10.73,0,0,0,4,4.84c.56.41,1.13.81,1.73,1.2A23.11,23.11,0,0,1,70,28s-.09,0-.07,0C71,29.35,73.05,30.07,75,31a8.81,8.81,0,0,1,2.74,1.84l.12.14-1-.27c-1.51-.92-3.46-1.46-5.18-2.3a12.49,12.49,0,0,1-4-2.79c-1.26-1.46-1.28-3.11-2.25-4.62-.77-1.21-1.3-2.45-2.09-3.66,0,0-.08,0-.08,0,.58,1.41,1.25,2.75,2,4.14s.78,2.9,2,4.21a12.84,12.84,0,0,0,4.13,2.86c1.54.69,3.25,1.21,4.69,1.93-.45-.11-.9-.23-1.38-.33a5.38,5.38,0,0,0-.69-.07.66.66,0,0,1-.32,0,2.88,2.88,0,0,1-1.2-.4c-.24,0-3.6-2-4.17-2.24l-.45-.19c-1.72-1.25-3.66-2.44-4.5-4A25.08,25.08,0,0,1,62.16,22s-.1,0-.11,0C61.8,24.75,63.87,27,67,29c-2.21-.9-3.74-1.59-4.78-3.36-1.31-2.23-1.83-3.76-1.24-6.09.32-1.23-.39-2.25-.36-3.46a18.8,18.8,0,0,1,.85-3.56,6.81,6.81,0,0,0,.06-3.77C61.08,7.3,58.76,6,60.18,4.38h0a2.72,2.72,0,0,1,.24-.24c.15-.13-.22-.3-.4-.17-2.61,1.77,1,3.76,1,5.65,0,2.77-1.29,5.15-1,7.87.21,1.81-1.63,4-.66,5.81.6,1.14,1.21,3.11,2.41,4.05a20.73,20.73,0,0,0,4.76,2.37,28.31,28.31,0,0,0,4.54,2.46h0c-.26,0-.56.12-.41.27A62.62,62.62,0,0,0,84,42.82c1.54.88,5.31,1.59,7.53,1.87a5.33,5.33,0,0,0,3.07-.81,1.14,1.14,0,0,0,.33-.07c2.42-.41,3.42-.1,5.81-.87a22.87,22.87,0,0,0,5.94-2.48c3.37-2.3.23-5.58,2.39-8.11.21-.25-.46-.41-.71-.18l0,.06a.42.42,0,0,0-.27,0c-.71.31-1.42.57-2.12.81h0c-.34-1.45,1.94-3.13,2.76-4.49,1.1-1.82,3.6-2.45,5.45-3.89M95.64,41.84a4.68,4.68,0,0,0,2.78,1c-1,.19-2,.06-3,.16,0-.14.07-.28.1-.41a1.68,1.68,0,0,0,.74.28c.21,0,.3-.15.09-.18s-.51-.23-.79-.33c0-.17.05-.35.07-.54m.13-1.13a2.59,2.59,0,0,0,.78.71,4.62,4.62,0,0,0,1.84.69,15.25,15.25,0,0,0,2.53,0c.06,0,.07-.06,0-.07-1.06-.21-2.23.09-3.23-.33-.32-.14-1.8-.86-1.71-1.3a1.8,1.8,0,0,0,.19.21s.14,0,.11,0a1.09,1.09,0,0,1-.15-.33.26.26,0,0,1,.09,0s0-.06,0-.08l-.11,0h0l0-.19a2.9,2.9,0,0,0,.6.51,1.73,1.73,0,0,0,1,.29c.2,0,.18-.17,0-.17-.88,0-.91-.7-1.52-.92q.13-.26.3-.51l.19.22a4.86,4.86,0,0,0,3.4,1.28c.15,0,.2-.11,0-.13a4.84,4.84,0,0,1-3-1.14c-.09-.09-.29-.26-.46-.44a5.63,5.63,0,0,1,.52-.59h0a4.06,4.06,0,0,0,1.75.56c.15,0,.2-.11,0-.13a3.81,3.81,0,0,1-1.48-.51l-.17-.1a7.87,7.87,0,0,1,.87-.71,1.3,1.3,0,0,0,.18.23,4,4,0,0,0,3.1,1.25c.16,0,.16-.13,0-.14a3.89,3.89,0,0,1-2.7-1.16,2,2,0,0,1-.28-.39l.45-.29a3.8,3.8,0,0,0,1.55.62c.18,0,.3-.11.12-.15a3.82,3.82,0,0,1-1.42-.62l.59-.35a1.36,1.36,0,0,0,.18.17,7.27,7.27,0,0,0,1.9,1c.15.06.33-.06.17-.13a7.41,7.41,0,0,1-1.31-.72,3.3,3.3,0,0,1-.67-.51s0,0,0,0l.28-.15a3.38,3.38,0,0,1,.52.32c.09.08.32,0,.25-.08a2,2,0,0,0-.47-.36l0,0,.7-.4a7.47,7.47,0,0,0,1.24,1c.13.09.4,0,.27-.1a10.17,10.17,0,0,1-.81-.62,2.86,2.86,0,0,1-.45-.43l.29-.16a5,5,0,0,1,.52.26c.12.07.33,0,.22-.1a4.83,4.83,0,0,0-.56-.27l.75-.42a1.71,1.71,0,0,0,1,.2c.11,0,.14-.1,0-.12-.27,0-.62-.06-.76-.21.37-.2.75-.39,1.15-.56,1.24-.52,2.59-.83,3.77-1.36-1.7,2.35.82,5.34-2.19,7.36A24.56,24.56,0,0,1,99,42.73c-1.34-.14-2.9-.47-3.17-1.29l-.1-.25c0-.07,0-.14,0-.21l.24.08s.05,0,0,0l-.25-.12s0-.05,0-.08a.5.5,0,0,1,0-.13m-15.27-7-2-.59c-.47-.3-.67-.72-1.09-1a3.15,3.15,0,0,0-.29-.22c1.05.47,2.85,1.14,3.43,1.85M91.09,38C93,39.46,94,40.24,93.66,42.06c-.14.78-.17.68.06,1.3a3.1,3.1,0,0,1-.7.27,5.94,5.94,0,0,1-2.47,0,1.93,1.93,0,0,0,.74-.13,1.32,1.32,0,0,0,.71-.63c.06-.09-.2-.15-.26-.05a2,2,0,0,1-1.76.72c-.61-.11-1.22-.25-1.77-.39l.15,0c1.22-.2,1.9-1,3.12-1.14.06,0,.08-.06,0-.07-.88-.14-1.48.42-2.07.68a5.59,5.59,0,0,1-1.78.41l-.55-.13c-.4-.09-.78-.2-1.15-.32a4.82,4.82,0,0,0,1.94-.39c.16-.07,0-.19-.17-.13a4.84,4.84,0,0,1-1.41.3c-.3,0-.58,0-.87,0a13.16,13.16,0,0,1-1.37-.6c1.67.16,4-.23,4.35-1,0-.07-.17-.1-.22,0-.75.91-3,1-4.69.75-.14-.07-.26-.16-.39-.24a5.54,5.54,0,0,0,2.44-.47c.13,0,0-.17-.15-.12a6.23,6.23,0,0,1-2.67.36c-.34-.23-.67-.47-1-.71h.41a6.21,6.21,0,0,0,3.48-1c.09-.07-.1-.15-.2-.09a6.49,6.49,0,0,1-3.62.89l-.38,0c-.36-.28-.69-.57-1-.86a4.53,4.53,0,0,0,2.32-.39c.11-.07-.06-.15-.18-.09a6.52,6.52,0,0,1-2.34.3l-.57-.53a7.09,7.09,0,0,0-.59-.46,6,6,0,0,0,1.07-.16,4.27,4.27,0,0,0,1.93-.77c.06-.06-.08-.12-.17-.06a5.59,5.59,0,0,1-2.1.71,5.92,5.92,0,0,1-1,.09c-.36-.24-.76-.46-1.16-.69a3.25,3.25,0,0,0,1.69-.43c.07-.05-.06-.12-.14-.07a4.1,4.1,0,0,1-2,.28l-.72-.4-.61-.38a6.77,6.77,0,0,0,1.49,0,11.36,11.36,0,0,0,2.92-.71c.17-.07,0-.19-.17-.14a13.66,13.66,0,0,1-2.52.63,6.19,6.19,0,0,1-2.19-.12c-.31-.23-.58-.46-.85-.69a2.93,2.93,0,0,0,.67.1,8.67,8.67,0,0,0,1.44-.14c.15,0,.15-.13,0-.13a9,9,0,0,1-1.54.08,4.79,4.79,0,0,0-.84-.16c-.21-.19-.41-.37-.6-.56a9.66,9.66,0,0,0,1.1,0A11.32,11.32,0,0,0,77,34.06c.18-.05.07-.19-.11-.16a12.5,12.5,0,0,1-2,.26c-.51,0-1,0-1.51,0h0c-.56-.54-1.12-1.09-1.79-1.63,1.88.45,4.23.39,6.2,1a41.89,41.89,0,0,0,6.64,1.75A12.42,12.42,0,0,1,91.09,38M91,20.11l-.68.35a6,6,0,0,0-1.07.71l0-.08c.63-1.5.18-2.74.17-4.24,0-.07-.21-.07-.23,0-.24.93.28,1.83.08,2.76a5.46,5.46,0,0,1-1.07,2.14,4.26,4.26,0,0,0-.46.79,6.06,6.06,0,0,1,0-.88,5.24,5.24,0,0,0,.09-3,18.22,18.22,0,0,0-1.6-3.18c-1.06-1.69-3.21-3.51-3.3-5.3,0-.07-.22-.08-.24,0-.27,1.15.87,2.14,1.63,3.17a17.11,17.11,0,0,1,3.06,5.35c.39,1.52-.38,3-.24,4.52,0,0,0,0,0,.07S87,23.13,87,23a8.12,8.12,0,0,0-.8-2c-.8-1.25-1.7-2.3-1.7-3.64,0-1.6-2.49-3-3.69-4.41-.06-.07-.24,0-.19,0a20.66,20.66,0,0,0,2.5,2.67c1,1,.81,2,1.15,3.17a14.22,14.22,0,0,0,1.52,2.64l-.1-.12c-1.36-1.62-3.41-3.07-4.55-4.75,0-.06-.22,0-.19,0,.68,1.36,2.19,2.45,3.3,3.7a17.62,17.62,0,0,1,1.73,2.25,18.38,18.38,0,0,0-3.13-2.37,17.79,17.79,0,0,1-4.24-3.09,5.49,5.49,0,0,0-2.25-1.79,18.86,18.86,0,0,1-3.55-1.49,5.27,5.27,0,0,1-.64-.6,3.65,3.65,0,0,0,.42-1.5c.15-.59,1.06-1.46.65-2.08C72.12,8.1,74.17,6,76,5.26h0a.53.53,0,0,0,.15.08.3.3,0,0,0,.25,0,38.54,38.54,0,0,1,8.37,3.61c1.66,1,4.15,2,5.14,3.21,2.13,2.58.14,5.3,1.08,8m21.45,4.81a10.33,10.33,0,0,0-5,4.17c-.89,1.25-2.8,2.55-2.48,4,0,.12.17.19.33.23a24.55,24.55,0,0,0-3.68,1.47c-.94.5-2.22.91-3.34,1.36.39-.23.79-.45,1.22-.65a12.64,12.64,0,0,0,3.71-2.39c.08-.09-.13-.15-.23-.08a24.91,24.91,0,0,1-3.76,2.3c-.32.14-.61.31-.9.46a8.26,8.26,0,0,1,2.11-1.84c2.36-1.4,3.91-2.79,4.54-4.72,0-.06-.17-.09-.21,0a10,10,0,0,1-4.19,4.3A8.28,8.28,0,0,0,98.32,35,9.4,9.4,0,0,1,97,36.48l-.2.12a2.47,2.47,0,0,0-.64.51,5.44,5.44,0,0,1,.7-.85,13.91,13.91,0,0,0,2.36-2.54,17,17,0,0,1,1.46-3c1.37-1.72,4-3,5.19-4.79,1.32-2,1.43-3.8,1.74-5.86,0-.1-.26-.12-.29,0-.5,1.64-.26,3.3-1.27,4.9a17.14,17.14,0,0,1-4,3.91,8.24,8.24,0,0,0-2.71,3.49,10.91,10.91,0,0,1-2.63,3.44c-.23.23-.81.83-1.35,1.5.08-.19.16-.38.22-.57A27.72,27.72,0,0,0,97,32.43a13.21,13.21,0,0,1,2.53-5.34c.87-1.29.6-2.37,1-3.67,0-.11-.26-.13-.3,0-.32.79,0,1.61-.35,2.4a19.85,19.85,0,0,1-1.74,2.51c-1.14,1.65-1.29,3.29-1.78,5-.42,1.49-1.39,2.89-1.9,4.35,0,.13-.07.26-.11.39,0-.3.07-.59.11-.89.13-.8.77-1.52.91-2.31a10.28,10.28,0,0,0,0-2.77,8.26,8.26,0,0,1,.64-3c0-.06-.15-.07-.19,0A6.82,6.82,0,0,0,95,31.64c-.23,1,.35,2.13-.06,3.19-.23.63-.53,1.24-.75,1.86a3.34,3.34,0,0,0-.06-.85c-.21-1-1-2-1.28-3a6.38,6.38,0,0,1,0-3.89,6.19,6.19,0,0,1,1.93-3,3.45,3.45,0,0,0,1.38-1.67c.44-1.83,3-2.9,4-4.59.05-.09-.2-.13-.25,0-.66,1.11-2.16,1.84-3.12,2.84-.81.85-.51,2-1.48,2.75C93,27,92,29,92.05,31.17a6,6,0,0,0,.56,2.49,6.92,6.92,0,0,1,.79,3.42,3.17,3.17,0,0,0,0,.44A4.38,4.38,0,0,0,93,36.6,21.39,21.39,0,0,0,91.1,34c-.85-1.08-1.5-2.05-1-3.23.18-.46.37-.89-.09-1.3,0-.05-.19,0-.16,0,.41.78-.56,1.8-.38,2.65a7.69,7.69,0,0,0,1.46,2.34c.85,1.23,1.81,2.32,2,3.66a14.06,14.06,0,0,0-4.32-3l-.11,0a.24.24,0,0,0-.07-.18c-.84-1.08-.21-2.11-.86-3.19-1.39-2.28-.86-3.63.83-5.87.82-1.09.73-2,1.21-3.11.79-1.82,3-2.33,4.85-3.48,1.44-.9,2-1.86,3.8-2.65a8.51,8.51,0,0,0,2.63-1.72c1.82-1.73,1.79-5,7.15-4.91a0,0,0,0,0,0,0c1.81.76,4.13,4.48,5,5.42,2.59,3,4.91,7-.55,9.51"/><path class="cls-2" d="M91.47,39a5,5,0,0,1,1.47,2.3c0,.08-.21.09-.24,0a5.94,5.94,0,0,0-1.29-1.9,5,5,0,0,0-2.18-1.73s0,0,0,0A3.89,3.89,0,0,1,91.47,39"/><path class="cls-2" d="M91.48,40.53c.06.09-.17.16-.25.07A23.68,23.68,0,0,0,89,38.46s0-.05.06,0a8.2,8.2,0,0,1,2.4,2.1"/><path class="cls-2" d="M87.79,39.17a12.29,12.29,0,0,0-1.85-1.72s.06-.06.1,0a6,6,0,0,1,2,1.7c.06.1-.21.16-.28.06"/><path class="cls-2" d="M87.92,37.26c-1.19-.2-1.58-.9-2.52-1.28,0,0,0,0,0,0,1.06.29,1.52.92,2.58,1.19.13,0,0,.15-.09.12"/><path class="cls-2" d="M84.54,38.15c-.43-.32-.93-.6-1.39-.9-.06,0,0-.08.1-.06a5.87,5.87,0,0,1,1.48.89c.09.06-.1.13-.19.07"/><path class="cls-2" d="M87.93,39.25c.65.38,1.33.73,1.92,1.14.11.09-.12.18-.24.1-.57-.41-1.25-.77-1.76-1.21,0,0,0-.06.08,0"/><path class="cls-2" d="M83.55,36.54c-.93-.33-2.06-.55-2.52-1.15,0,0,0-.06.08,0a13.43,13.43,0,0,0,2.6,1.06c.15,0,0,.18-.16.12"/><path class="cls-2" d="M99.89,108.83c-1.58-.16-3.53,0-4.77-.63-.09,0,0-.13.15-.09a14,14,0,0,0,4,.44,27.55,27.55,0,0,1,3.69.47,19.64,19.64,0,0,1,5.52,2.09c4.12,2.22,5.67,5.39,7.48,8.31,0,0,0,0-.08,0A12.5,12.5,0,0,1,113,115.7a12.89,12.89,0,0,0-4.89-4.42,20.22,20.22,0,0,0-8.22-2.45"/><path class="cls-2" d="M107.45,108.51a35.68,35.68,0,0,0-13.28-2.28,21.28,21.28,0,0,1-8.69-2.18c-.08,0,0-.11.11-.08a30,30,0,0,0,6.59,2,43.07,43.07,0,0,0,4.69.12,28,28,0,0,1,10.69,2.37c.09,0,0,.11-.11.07"/><path class="cls-2" d="M99.67,88.45c-.51.42-1.09.82-1.58,1.24-.84.73-.48,1.36-.59,2.14,0,.06-.16.09-.19,0a1.88,1.88,0,0,1,.46-2.25c1.18-1.21,3.07-2,3.08-3.49,0-.08.24-.08.25,0,.09.87-.55,1.63-1.43,2.34"/><path class="cls-2" d="M96.87,95.58a14.21,14.21,0,0,1-2-1.36,15.85,15.85,0,0,0-4-2c-1.79-.69-4.64-1-5.94-1.94,0,0,0-.1.12-.07,1.9.88,4.62,1.29,6.68,2.08A18,18,0,0,1,97,95.52c.05,0,0,.1-.12.06"/><path class="cls-2" d="M97.32,96.58s.12-.07.16,0a5.8,5.8,0,0,0,.52.61,2.63,2.63,0,0,1,.56.61s-.09.1-.16,0a2.19,2.19,0,0,1-1.08-1.25"/><path class="cls-2" d="M74.92,94.48c-.47.64-1.06,1.26-1.62,1.89-.74.84-.77,1.71-1.32,2.57,0,.06-.23,0-.21,0a7,7,0,0,1,1.78-3.3c1-1.09,2.5-2.63,1.93-3.9,0-.06.14-.09.18,0,.61.9-.12,2-.74,2.79"/><path class="cls-2" d="M71.81,101.11a1.75,1.75,0,0,1-.14.77c0,.05-.19.05-.21,0a1.18,1.18,0,0,1,0-.67c0-.28.07-.56.09-.85,0-.11.33-.09.32,0s0,.49,0,.74"/><path class="cls-2" d="M74.1,107.69a10,10,0,0,1-2.1-2.9c-.07-.11.21-.18.29-.08.69,1,1.37,1.94,2,2.91,0,.07-.12.13-.2.07"/><path class="cls-2" d="M76,109.52a11.31,11.31,0,0,0,2.35,1.62c.14.07-.06.18-.2.13a7.16,7.16,0,0,1-2.47-1.65c-.13-.11.19-.21.32-.1"/><path class="cls-2" d="M74.61,121.88a25.59,25.59,0,0,0,7,3.17c.07,0,0,.08-.06.07A16.11,16.11,0,0,1,74.39,122c-.1-.07.12-.15.22-.08"/><path class="cls-2" d="M39.19,119.54a.15.15,0,0,0,.05.18.54.54,0,0,0,.3.16,11.15,11.15,0,0,0,2.53.75,15.94,15.94,0,0,1,7.6,4A26.73,26.73,0,0,0,56.56,130c2.52,1.36,4.85,2.6,8.53,2.68,1.3,0,2.64-.4,4-.24,1.16.19,2.3.4,3.43.64a10.36,10.36,0,0,0,2.41.13,3.6,3.6,0,0,0-.89,1c-.37.75.3,1.42,1.5,1.62a6.71,6.71,0,0,0,3.12,0c1.55-.05,3.06-.27,4.64-.29,3.6-.06,6.91.28,10.46.41,5.18.19,8.66-.41,12.45-2.35,4.08-2.1,7.21-1.45,11.83-1.63a14.17,14.17,0,0,0,5.49-1.06c1.39-.68,3-1.52,3.52-2.53.72-1.29.78-3.08,2.31-4.18l.07,0c2.61-2,6.87-2.48,9.94-4.15a14.08,14.08,0,0,0,4.64-3.76,4.35,4.35,0,0,0,.92-3.61c.17,0,.29-.13.29-.25.06-.93,1.48-2.3,1.88-3.25a6.6,6.6,0,0,0,.61-2.49c0-1.34-1.43-2.83-2.9-3.85-2.88-2-8-3.72-9.55-6.15-1.07-1.65,1.16-3-.86-4.35a.67.67,0,0,0-.21-.09.71.71,0,0,0-.58-.06c-2.06.53-4.29.93-5.7,1.94s-.73,2.49-1.4,3.6a5.8,5.8,0,0,0-.33.66c-1.06-.82-2.48-1.47-3.43-2.33-1.24-1.11-2.15-2.3-3.24-3.45-1.83-1.94-4.86-3.16-7.22-4.86-2.55-1.84-5.35-5.88-10.71-5.67-.51,0-.65.33-.44.51.5,1-1.87,2.47-2.65,3.38a5.58,5.58,0,0,1-2.38,1.82,3.66,3.66,0,0,0-.71.33c-.83,1-1.69,1.92-1.24,2.89-5.88-2.36-13.49-3-20.61-4a.76.76,0,0,0-.58.11c-.12.06-.19.15-.12.27,1.68,3.28-2,6.8-3.53,9.86a5.13,5.13,0,0,0-.25,2.9,25.56,25.56,0,0,0-8.56-1.87c-4.11-.11-7.2,1.08-11.21,1.37-1.77.13-10-.19-9.13,1.78l0,0c-.32,1.42-1,2.42,1,3.58,3.7,2.24,3.51,4.77,4.92,7.48.43.84,1.64,3.35,3.61,4.23-1.78.32-3.61.54-5.35.91s-2.58,1.3-4.67,1.56c-.25,0-.37.15-.39.27M69.13,101c0,.29.08.58.1.85a14.57,14.57,0,0,0,.56,3.24,5.48,5.48,0,0,0-.64-.43c-.62-.55-1.35-1-1.93-1.6-.12-.11-.4,0-.3.1a17.54,17.54,0,0,0,2.15,1.78.24.24,0,0,0,.14,0,5.67,5.67,0,0,1,.7.55s0,0,.06.06a7.84,7.84,0,0,0,.41.82c-.36-.3-.74-.59-1.13-.88-1-.73-2.76-1.09-3.84-1.79-.08-.06-.27,0-.19.07A13.41,13.41,0,0,0,68,105.16a13.75,13.75,0,0,1,2.92,2.06,27.92,27.92,0,0,0,3.45,3.7l-.89-.47-.86-.68a31.47,31.47,0,0,0-3.43-2.61c-2.59-1.5-5.88-2.22-8.69-3.54-.1-.05-.27,0-.17.1a21,21,0,0,0,4.14,1.6,18.56,18.56,0,0,1,5.94,3.08c.53.44,1.09.86,1.65,1.27l-.86-.47A31.67,31.67,0,0,0,67,107.34c-.13,0-.27,0-.15.11,1.35.66,2.85,1.15,4.13,1.89.84.48,1.66,1,2.59,1.43l.49.36c.31.24.61.47.94.68-1.64-.72-3.15-1.56-4.78-2.2a33.71,33.71,0,0,0-3.57-.79,12.49,12.49,0,0,1-4-2,16.05,16.05,0,0,0-6.68-2.81c-1.55-.25-3-.5-4.65-.62a20.2,20.2,0,0,1-4.84-.56c-.13-.05-.27.06-.16.12a6.68,6.68,0,0,0,2.42.48c1.91.14,3.77.25,5.63.55a19.5,19.5,0,0,1,5.36,1.47c1.52.71,2.56,1.62,3.94,2.4,2.3,1.28,5.66,1.33,7.94,2.58A26.34,26.34,0,0,0,77.43,113h-.21l-1-.14a3.18,3.18,0,0,1-.47-.15c-.72-.28-1.39-.6-2.1-.89a31.6,31.6,0,0,0-4.16-1.28c-.12,0-.22.08-.1.11a58.35,58.35,0,0,1,5.77,2.07c-.56-.07-1.12-.16-1.69-.27a18.92,18.92,0,0,1-3.65-1,17.48,17.48,0,0,0-2.53-.94c-4.43-1.14-9.49-1-13.79-2.32-.14,0-.28.07-.15.11a34.65,34.65,0,0,0,6.88,1.31c2.47.33,5.36.5,7.53,1.28,1.14.42,2.16.79,3.25,1.13a42.88,42.88,0,0,0-4.87-.88c-5.11-.57-8.23.26-12.5,1.68-.2.07-.28.18-.29.28-.2.14-.18.35.14.45-.13.11-.14.26.11.37a13.14,13.14,0,0,1,4.33,2.9,32.87,32.87,0,0,0-6.6-.26h0c-3.82-.49-4.71-6-5.25-7.38a6.85,6.85,0,0,0-2.32-3.3c-1.87-1.4-2.86-2.58-2.51-4.3a.16.16,0,0,0,0-.15c.51-1,11.08-1.39,12.24-1.55,3.52-.47,5.67-1.32,9.53-.6A28.34,28.34,0,0,1,69.13,101M58.51,115.5c0-.09-.27-.07-.29,0a14.93,14.93,0,0,0-2.86-1.61,17,17,0,0,1,6.75,2.41c1.14.84,2,1.82,3.21,2.64a11.79,11.79,0,0,0,5.57,2.18c3.73.41,7.52.09,11.21.76a28.8,28.8,0,0,1,7.38,2.24c-.37,0-.74.09-1.12.12a11.92,11.92,0,0,0-3.62.85,10.68,10.68,0,0,1-3.83-2.21c-.08-.07-.29,0-.22.06a8.53,8.53,0,0,0,3.79,2.25l-.65.3a17.52,17.52,0,0,1-5.94-3.26c-.09-.09-.32,0-.23.08A13.33,13.33,0,0,0,83,125.4c-2.37-.36-4.3-.94-6.53-1.47a12.55,12.55,0,0,1-4.33-2.27c-.09-.08-.31,0-.23.08a7.88,7.88,0,0,0,2.85,1.83c-.72-.14-1.46-.27-2.22-.4a24,24,0,0,1-3.41-1.88c-.12-.08-.35,0-.23.12A19.31,19.31,0,0,0,71.78,123c-1.12-.19-2.26-.38-3.35-.61a17.22,17.22,0,0,1-3.07-2.14c-.11-.09-.36,0-.25.11a13.61,13.61,0,0,0,2.26,1.79,19.87,19.87,0,0,1-2.21-.68s.09,0,0-.07a8,8,0,0,1-2.59-3.22c0-.08-.28,0-.26,0a5.47,5.47,0,0,0,2.11,3c-2.29-1.09-3.31-2.94-4.7-4.38a13.2,13.2,0,0,0-1-.94c-.08-.13-.16-.26-.23-.39M75,120.68c-4.88,0-7.74-1.29-10.29-3.47a14.55,14.55,0,0,0-2.69-1.95A23.11,23.11,0,0,0,55,113.12a25.62,25.62,0,0,1,8.67-1.41,46,46,0,0,1,8.4,1.3c3.25.61,6.45.54,9.49.85h0l.09.06a3.57,3.57,0,0,1,.46,0l.12,0A16.78,16.78,0,0,1,88,115.57c4.69,2.43,10.16,3,15.62,4.62a22.78,22.78,0,0,0,5,1.19,3.4,3.4,0,0,0,.75-.09,3.2,3.2,0,0,1-.66.23,40.65,40.65,0,0,1-7.09-1.44c-.09,0-.16,0-.09.08a19.71,19.71,0,0,0,3.54.94,29.75,29.75,0,0,0,3,.53c-2.62.29-6.75-1-8.68-1.22-2.89-.33-5.84-.06-8.77-.33a31.48,31.48,0,0,1-4.09-.56,33.32,33.32,0,0,1-4.13-1.41,26.9,26.9,0,0,0-6.78-1.52c-.06,0-.08,0,0,0A38.31,38.31,0,0,1,81,117.85c1.43.47,2.68,1.15,4.18,1.55a38.34,38.34,0,0,0,8.17,1.1,47.84,47.84,0,0,1,6,.11c1.53.23,3,.64,4.5.85.79.11,1.72.26,2.63.34-1,0-2.15-.2-3-.16s-1.89.16-2.84.2a52.18,52.18,0,0,1-6.51-.34c-.08,0-.1.06,0,.08a30.14,30.14,0,0,0,8,.33,19.67,19.67,0,0,1,3.68,0c.3,0,.54,0,.77,0a20.13,20.13,0,0,1-3.48.1c-.08,0-.09.06,0,.08l.57.09a70.33,70.33,0,0,1-11.7,0c-.13,0-.16.09,0,.11,4,.74,8.36.37,12.42,0a.11.11,0,0,0,.09,0,11.23,11.23,0,0,0,1.42,0c-3,.53-6.36.47-9.49.69a38.14,38.14,0,0,0-5.08.88,5.52,5.52,0,0,0-1.13-.44c-1.13-1.76-12.6-2.69-15.06-2.7m31,2.2c.23,0,.46-.07.69-.12-.25.14-.49.28-.74.44A14.25,14.25,0,0,1,98.58,126L98,126a20.38,20.38,0,0,0,7.72-2.85s0,0,0,0l.34-.16c.06,0,0-.07,0-.09M97.34,93.74c2.35,1.84,4.88,3.4,5.77,5.65a6.81,6.81,0,0,0,.71,1.78c-3-.27-6-.36-9.11-.33h0a17.15,17.15,0,0,1-1.76.07.74.74,0,0,1-.18,0h-.13c-1.27,0-2.55,0-3.83,0-.06-.68-1-1.18-1.56-1.79-1.14-1.28-1.25-2.68-2.25-4a15.55,15.55,0,0,0-7.32-4.69c-.13,0-.28.07-.16.12,4.21,1.85,6.95,3.85,8.16,6.76a5.69,5.69,0,0,0,1.58,2.26c.46.4.72,1,1.21,1.33-4.13,0-8.22.15-11.89,1.32a.67.67,0,0,0-.21.09q-.14.07-.12.18c-.76,3.92,5,8,10.6,10.12,3.82,1.43,8.51,1.71,12.75,2.55l1.34.25c1.44,1.07,3.75,1.56,5.42,2.54a22.14,22.14,0,0,0,3.36,1.54l.57.42c-1.41-.49-2.86-.93-4.22-1.47-.2-.08-.4.1-.21.17a36.79,36.79,0,0,0,4.55,1.55h-.1c-3.06-.7-7-1.17-9.29-2.59-.09,0-.26,0-.19.07a10.19,10.19,0,0,0,3.88,1.52,39.16,39.16,0,0,0,4.56.94l0,0a3.91,3.91,0,0,0,.84.17c-3.92.37-7.52-1.41-10.75-2.31-3-.85-5.29-2.61-8.63-3.11-.15,0-.25.09-.1.12a35.39,35.39,0,0,1,6,2.38c1.66.7,3.72,1,5.43,1.71-1.39-.32-2.8-.64-4.3-.94A41,41,0,0,1,88,114.61a14.63,14.63,0,0,0-4.75-1.42c-.48-.06-1-.08-1.56-.1a3.66,3.66,0,0,0-.59-.17,7.06,7.06,0,0,0-1-.12.82.82,0,0,0-.63-.14c-1.52.24-5.17-3.15-5.75-3.77-3-3.18-3.27-6.36-3.28-9.87,0-3.72,5.24-7.35,3.79-11.19,8.2,1.17,18,1.9,23.17,5.91M108.91,117l.13.13.15.19a13.67,13.67,0,0,0-1.67-.83s0,0,0,0c-.78-.47-.89-1.14-1.54-1.65-.11-.09-.34,0-.25.08.43.4.59,1,1.12,1.34-.64-.24-1.32-.46-2-.67-.5-.36-1.11-.7-1.65-1-.12-.07-.31,0-.19.11.38.24.76.5,1.16.74l-1.08-.26s.06,0,0,0a13.85,13.85,0,0,1-4.27-2.82c-.09-.08-.31,0-.23.08a9.93,9.93,0,0,0,4.32,2.75l-1.33-.26c-.51-.33-1-.65-1.57-1-.14-.07-.35,0-.23.12l1.25.74-1.8-.3c-1-.83-2.38-1.49-3.45-2.28-.11-.08-.36,0-.25.08a37.71,37.71,0,0,0,3.35,2.14l-.48-.07-.75-.12-.08,0a9.38,9.38,0,0,1-2.21-1.16c-.07-.05-.23,0-.16.06a9.24,9.24,0,0,0,.8.53s0,0,.08.06a8.41,8.41,0,0,0,.85.42l-.47-.07-.84-.26a11.44,11.44,0,0,1-3.35-2.45c-.09-.09-.34,0-.25.08a8,8,0,0,0,3,2.26s0,.06,0,.09l.31.11c-.94-.15-1.87-.3-2.78-.48-1-.63-2-1.26-3-1.86-.15-.08-.4,0-.26.11,1,.55,1.84,1.13,2.81,1.66l-.61-.13a14.65,14.65,0,0,1-4.75-2.7c-.08-.07-.3,0-.24.06a9,9,0,0,0,2.94,2.17l-.5-.14a27,27,0,0,1-3.62-1.75c-.09-.06-.24,0-.19.07a5.89,5.89,0,0,0,1.74,1,17.47,17.47,0,0,1-3.92-1.94,27.63,27.63,0,0,1-2.54-2c3.72,1.64,8.89,2,13.73,2.49,4.63.51,9.33,1.41,12.81,3.24s5,4.09,7.17,6.39l-.23,0c-.68-.83-1.59-1.64-2.38-2.44-.09-.09-.38,0-.29.09.44.46.85,1,1.29,1.45l-.6-.48a.28.28,0,0,0-.33,0,13.16,13.16,0,0,1-1.64-2.4c-.07-.12-.37,0-.32.06a13.71,13.71,0,0,0,2,2.85,3.7,3.7,0,0,0,1.33,1.06l-.19,0a.48.48,0,0,0-.4-.27,10.68,10.68,0,0,0-1.63-1.66c.06-.23-.23-.45-.46-.64s-.46-.34-.69-.51l.12.06s.11,0,.08,0c-.64-.6-2.38-1.36-2-2.12,0-.08-.18-.11-.24,0-.49.56.48,1.28,1.39,1.78,0,0,0,0,0,.07m-.23-3.35a31.51,31.51,0,0,0-9.27-3.17c-7.07-1.26-16.77-.79-21-4.76a.44.44,0,0,0-.16-.1,4.26,4.26,0,0,1-.86-2.84c4.33-1.26,11.25-1.43,17-1.33a13.43,13.43,0,0,0,3.1.37,21.47,21.47,0,0,1,8.42,2.08c5,2.63,5.27,5.66,8.11,8.85,1.58,1.78,3.18,3.47,4.51,5.3a8.52,8.52,0,0,0,.88,1.17c-1.3-1.12-2.28-2.46-3.4-3.58-1.75-1.79-3.79-3.43-5.67-5.18,0,0-.2,0-.15,0,2,1.91,4.14,3.73,6,5.67.81.83,1.68,1.65,2.44,2.49a9.49,9.49,0,0,0,.82.86,15.77,15.77,0,0,0-2.57,0l-1.61.27c-2-2.16-3.34-4.47-6.6-6.19m-4.19-11.2a14.91,14.91,0,0,0-2.83-.75c4.21.23,8.89.72,11.43,2.59,3.69,2.72,4.22,5.56,4.83,8.8.42,2.29,1.83,4,2.85,6.16-1.42-1-3.63-4.51-4.12-5-2.33-2.5-3.28-5.19-5.45-7.7-1.42-1.64-4.11-3-6.71-4.06m6.18,17.2-.08,0-.36-.11-.46-.3a24.11,24.11,0,0,0-2.67-1.49c-.13-.06-.29,0-.17.11.72.42,1.45.82,2.12,1.26a14.67,14.67,0,0,1-1.86-.93c-1.68-1-3.86-1.6-5.54-2.56a21.94,21.94,0,0,1,6.3,1.72,9,9,0,0,1,2.72,2.33m15.24-20.32a2.49,2.49,0,0,0,.42,1.43c1.64,2.67,2,4.86-.75,7.38l-.62.56.31-.44c1.58-2.66.72-5-.34-7.62,0-.09-.27-.07-.25,0,.38,1.54,1.3,3,1.14,4.61a8.24,8.24,0,0,1-2.2,4.55,8,8,0,0,0-2.09,2.36c.06-.25.13-.49.2-.74,1.08-2.1,2.94-4.18,3-6.38,0-3.68-3.54-6.22-7-9.19-.07-.07-.26,0-.2.07,1.61,1.73,4,3.18,5.35,5a6.12,6.12,0,0,1,1,5.87,19.21,19.21,0,0,1-1.75,3.09,6.52,6.52,0,0,0-1.89-5.51c0-.06-.22,0-.19,0,1.5,2.25,2,4.34,1.38,6.65a6.86,6.86,0,0,0-.91,2.49c-.14-1.38,0-2.77-.2-4.16s-.26-2.55-1.39-3.75a29.2,29.2,0,0,0-4.22-3.29c-.1-.08-.35,0-.25.07,1.38,1.29,3.33,2.27,4.42,3.69s1.09,3.11,1.18,4.59-.24,2.72.3,4c.12.3.25.58.36.86a7.68,7.68,0,0,1-1-2.81c-.2-1.61,0-3.55-1.43-5-.07-.07-.27,0-.21.06,1.72,2,.92,4.61,1.77,6.74.33.82.79,1.6,1.18,2.39,0,.12,0,.25,0,.37a10.7,10.7,0,0,1-1.67-3.56,22.17,22.17,0,0,0-1.6-6.15c-1.28-2.58-4.57-5.18-9.47-5.94-1-.15-2-.27-2.94-.38a.28.28,0,0,0-.1-.14c-1.14-.91-.52-2.36-1.39-3.33a28.75,28.75,0,0,0-6.61-5.29c-.51-.3-1-.58-1.59-.84a.15.15,0,0,0,0-.19c-.94-1.41.27-2.41,2-3.46a10.14,10.14,0,0,0,2.26-2.15c.89-1,2.81-2,2.47-3.16,3.62.21,5.26,2.69,7,4,2.06,1.58,4.66,2.8,6.82,4.31s3,3.2,4.78,4.77c1.35,1.22,3.15,2.13,4.59,3.29a.79.79,0,0,0,.37.14M121,114c.07.13.15.27.21.41a5.21,5.21,0,0,0,.1,1h0A3.63,3.63,0,0,1,121,114m7.44,5.53c-.06-.12-.38-.06-.32.06a8.07,8.07,0,0,1,.45,1,1.64,1.64,0,0,1,.06.58,18,18,0,0,0-1.75-.62,1,1,0,0,0-.17-.72c0-.1-.34-.07-.29,0a4.62,4.62,0,0,1,.19.6,20.06,20.06,0,0,0-2.33-.53c-.25,0-.57-.09-1-.13,0,0,0,0,0,0s0,0,0,0a.62.62,0,0,0-.43-.19c-.9-.13.26-4.92.09-5.58-.74-2.88,3.9-5.29,5.71-7.91,1.12-1.62.3-3.34-.67-4.91s-.26-3.11.06-4.78c.36-1.91,2.84-2.67,5.52-3.55,1.2.9-.18,1.59-.07,2.5a4.07,4.07,0,0,0,1.32,2.41c1.38,1.49,4,2.59,6.07,3.76,4.33,2.45,6.43,4.77,4.56,8.24a3.46,3.46,0,0,1-.35.53,1.51,1.51,0,0,0-.09-.18c.53-.87.17-1.95,0-2.82,0-.09-.25-.07-.25,0,0,.51.09,1,.11,1.52a5.69,5.69,0,0,1-.08.82,8.59,8.59,0,0,1-.62-1.13,3.7,3.7,0,0,1,.06-2.52.81.81,0,0,0-.08-.81c-.05-.07-.25,0-.23,0,.29,1-.7,1.93-.29,3s1.08,1.79,1,2.69c-.1.14-.2.28-.28.41-.65-1-3-3.9-1.86-5,.29-.28-.52-.57-.87-.31-.93.7-.4,1.65-.06,2.43.86,2,2.85,4.1,1.95,6.2a7.67,7.67,0,0,1-.7,1.25,3.47,3.47,0,0,0-.48-2.63c-1.08-1.78-3.18-3.49-3.78-5.34,0-.06-.19,0-.18,0,.14,1.49,1.81,2.83,2.77,4.19a5.44,5.44,0,0,1,1.35,3.19,4.57,4.57,0,0,1-.62,1.72c-.15.15-.31.29-.47.43a4.34,4.34,0,0,0,.24-1.46,2.82,2.82,0,0,0-.18-1.43c-.24-.48-.91-1.12-.88-1.61,0-.09-.2-.09-.22,0-.2.73.8,1.46.89,2.21a4.57,4.57,0,0,1,0,1.28c-.44-1.59-2.11-3.27-2.71-4.65,0-.06-.2,0-.18,0,.27,1.3,1.52,2.49,2.09,3.76a2.84,2.84,0,0,1,0,2.67c-.42.3-.89.57-1.38.85,1-1.19.1-3-.33-4.23,0-.06-.21,0-.2,0a21.31,21.31,0,0,1,.61,2.6,1.92,1.92,0,0,1-.88,2,3.3,3.3,0,0,0,.1-2c-.19-.57-.41-1.13-.66-1.69s-.79-.91-.95-1.54c0-.07-.19-.06-.19,0,.09,1.31,1.55,2.51,1.51,3.86a4.29,4.29,0,0,1-.28,1.58c-.34.13-.69.24-1,.38-.09,0,0,.1.08.09h0c-.5.19-1,.38-1.54.56,1.29-.91,2.12-2.25,1.08-3-.1-.08-.31,0-.22.08.61.55.22,1.6-.4,2.13a11.31,11.31,0,0,1-1.79,1.28l-.33.1c2-1.2.78-3.83,0-5.1-.05-.07-.25,0-.21,0a7.2,7.2,0,0,1,.89,2.59c.09,1.22-.43,2-2,2.74a4.16,4.16,0,0,0-.49-2.19c0-.08-.24-.06-.22,0a5.68,5.68,0,0,1,.39,1.74,1.39,1.39,0,0,1-.3.81l-.61.23a2.4,2.4,0,0,0-.29-1.18,16.42,16.42,0,0,0-1.38-3.11c0-.06-.21,0-.18,0,.42.89.61,1.82,1,2.72a2.49,2.49,0,0,1,.37,1.75l-.05,0c.05-.11,0-.23-.17-.33-.47-.24-.94-.47-1.42-.68.27-.55-.35-1.33-.59-1.81M81.2,135.07c1.3-.53,2.47-1.17,3.33-1.59A9.67,9.67,0,0,0,87.86,131c.88-1.23,1.38-2.59,3.91-3.31a32,32,0,0,1,7-1c5.56-.56,6.84-2.9,10.91-4.67a19.32,19.32,0,0,1,4.9-1.32.38.38,0,0,1,.18-.09,1.45,1.45,0,0,0,.33-.08.67.67,0,0,1,.63,0l.37,0a.56.56,0,0,1,.33,0,28.3,28.3,0,0,1,12,1.56,10.65,10.65,0,0,0-3.17-.36c-.1,0-.08.08,0,.09a14.17,14.17,0,0,1,3.54.56c.09,0,.18,0,.18-.06s.31.12.45.19c-2.84-.56-6.37-.36-8.52.87a11,11,0,0,0-3,2.2c-.46.54-.89,1.58-1.83,1.85a17.84,17.84,0,0,1-2.13.45c-.11,0-.1.12,0,.11,3.14-.12,3.08-1.07,4.32-2.31a10,10,0,0,1,4.76-2.93,19.61,19.61,0,0,1,6.4-.14.12.12,0,0,0,.09,0l.11.06.17.06a3.94,3.94,0,0,0-3.55,2.18c-.45.81-.43,1.86-1.49,2.52a13.32,13.32,0,0,1-3.21,1.21c-.14,0-.06.16.1.13,1.67-.34,3.56-.87,4.13-1.89.84-1.5.85-3.52,4.1-4.07a5.21,5.21,0,0,0-1.41,1.15c-3,1.9-1.33,5-5.8,6.57s-10.79-.26-15,1.59c-3,1.31-5.55,3.16-9.7,3.31a78.24,78.24,0,0,1-8.26-.31,73.51,73.51,0,0,0-8.54.07M78,132.63a17.39,17.39,0,0,0,1.45-2.32,13.92,13.92,0,0,1,10.32-5.5c2-.18,3.28-.7,5.21-1a59.67,59.67,0,0,1,6.3-.48c1.1,0,2.11-.12,3.09-.22a48,48,0,0,1-8.62,1.51c-.16,0-.12.15,0,.14a34.14,34.14,0,0,0,9-1.63c.05,0,.05,0,0-.07l1-.14a33.19,33.19,0,0,1-3.34,1.36,45,45,0,0,1-6.32,1.19c-.11,0-.07.11,0,.1a22.72,22.72,0,0,0,7.9-1.73,29.41,29.41,0,0,1-7.61,2.24.09.09,0,0,0-.07,0c-.69.06-1.38.13-2.08.22-2,.24-4.59.94-5.73,1.95-2.36,2.08-2.94,4-7,5.59a24.22,24.22,0,0,1-3.47,1.33l-.5,0a1,1,0,0,0-.45.11,3,3,0,0,1-.79,0l-.18,0a1.55,1.55,0,0,1-.23-.06l-.17,0c-1.14-.43,1.83-2.23,2.18-2.54m-2.34-.35-.28.06a.74.74,0,0,0-.36,0,3.11,3.11,0,0,1-.44.06,1.57,1.57,0,0,0-.27-.1l.49,0h.3c.06,0,.08,0,.06-.06a8.15,8.15,0,0,0,1-.23h0l.42-.05c-.27.21-.54.42-.82.62h0a.24.24,0,0,0-.09-.11l.09,0c.19-.05.07-.22-.13-.16m-4.57-1.83a44.92,44.92,0,0,1-5-2.21c-2.42-1.27-6.66-1.63-8.69-3.06-2.33-1.65-3.67-3.73-6.55-5.12-1.89-.92-4.28-1.11-6.63-1.43,1.2-.34,2.44-.54,3.83-.82a26,26,0,0,1,6.38-.79c1.35.07,2.61.37,4,.45h.22a24.73,24.73,0,0,0,3.65,3.45A16.38,16.38,0,0,0,68.19,123c4.62,1,9,2.24,13.69,2.94-2.65.24-5.56-.69-7.93-1.14-1.91-.36-3.88-.63-5.87-.82-.12,0-.16.09,0,.11,2.79.49,5.55.92,8.3,1.5a21,21,0,0,0,5.12.56,31.66,31.66,0,0,1-11.77-.65c-.08,0-.13,0-.06.07a21,21,0,0,0,6.94,1,22.81,22.81,0,0,0,5.66-.45c.08,0,.08-.07,0-.1l.11,0h0l.32,0c-3.32,1.73-8.91,1.16-13,1.08-.12,0-.18.1,0,.12,3.31.41,8.75.64,12-.49a14.4,14.4,0,0,0-1.33,1.08,16.63,16.63,0,0,0-2.71,3,2.09,2.09,0,0,1-.23.29,1.17,1.17,0,0,0-.49,0,2.45,2.45,0,0,1-.37.08h-.09q-.48,0-1,0a36.57,36.57,0,0,1-4.45-.8m-30-10.71a4.6,4.6,0,0,0,1.11-.36c.22-.11.44-.2.65-.29,1.44.24,2.91.39,4.34.64,4.64.81,5.31,2.81,7.55,4.58s4.09,2.2,7.35,3.19c3,.93,5.2,2.69,8.33,3.52.69.18,1.54.42,2.42.6a.21.21,0,0,0,0,.25c-2-.31-4-.63-6-1.05-.19,0-.28.11-.1.16,1.48.33,3,.61,4.54.86l1.47.25c-2.22-.18-5.86-.16-8-.17h0c-.6-.29-1.27-.54-1.87-.84-.13-.07-.33,0-.2.11a16.22,16.22,0,0,0,1.69.73,11.76,11.76,0,0,1-1.38,0,24.25,24.25,0,0,1-9.42-4.67c-2-1.9-3.44-4.15-6.62-5.62-1.73-.8-4.08-1.17-5.87-1.85"/><path class="cls-2" d="M95.82,133.67c1.47-.15,3-.24,4.43-.39,2-.2,3-1.28,4.16-2.07a13.38,13.38,0,0,1,6-2.05l0,0,.33,0,.25,0h0c1.65-.18,3.26-.29,5-.35,3.83-.13,4.71-1.55,6.19-3.18a7.5,7.5,0,0,1,2.71-2c1.09-.45,3.08-1.22,4.52-1,.08,0,.06.08,0,.08a9.58,9.58,0,0,0-6.15,2.29c-1.2,1-1.71,2.24-3.14,3.19a7.73,7.73,0,0,1-3.35.8c-2,.18-4.26.27-6.31.34h0a15.43,15.43,0,0,0-4.28,1.27,27.72,27.72,0,0,0-3.19,2.05c-1.66,1.13-4.66,1.2-7.11,1.19-.13,0-.13-.09,0-.1"/><path class="cls-2" d="M80.35,130.8c0-.07.22,0,.2,0a4.7,4.7,0,0,1-1.86,2.26,7.77,7.77,0,0,1-.91.52c-1,.5-.94,1-.28,1.57,0,0,0,.08-.1.06-1.07-.33-1-1-.32-1.51s1.42-.8,2-1.29a4.89,4.89,0,0,0,1.27-1.64"/><path class="cls-2" d="M78.14,134.69c.15-.43.83-.84,1.21-1.22.09-.1.39,0,.29.07s-.42.39-.64.59-.3.28-.45.42c1.94-.64,4.9-1.51,4-2.83-.07-.08.17-.13.24-.05,1.3,1.57-3,2.88-5,3.28-.09,0-.17,0-.09-.07l.51-.19"/><path class="cls-2" d="M91,134.18c2.72,0,5.13.57,7.83.12.15,0,.25.1.1.13a18.27,18.27,0,0,1-5.67,0,56.4,56.4,0,0,0-7.69.1c-.1,0-.14-.09,0-.1a32,32,0,0,1,5.47-.27"/><path class="cls-2" d="M98.57,131.57a23,23,0,0,1-7.87-1.64c-.07,0,0-.09.07-.06a38.84,38.84,0,0,0,4,1.12c1.26.23,2.57.37,3.88.48.11,0,.08.11,0,.1"/><path class="cls-2" d="M101.73,130.21c-1.77-.33-3.55-.63-5.21-1.11-.11,0,0-.12.09-.09,1.68.43,3.45.74,5.2,1.08.14,0,.06.15-.08.12"/><path class="cls-2" d="M95.86,133l-2.29,0c-.76,0-1.41,0-2.16-.09-.11,0-.08-.08,0-.09a18.41,18.41,0,0,1,2.1,0l2.29,0c.2,0,.26.17,0,.17"/><path class="cls-2" d="M82.72,115.11a8,8,0,0,1,1.55.43,8.33,8.33,0,0,0,2.14.86c.11,0,.09.09,0,.1a1,1,0,0,1-.75-.11,12.59,12.59,0,0,0-2.59-1,34.82,34.82,0,0,0-6.27-.55s0,0,0,0a34.36,34.36,0,0,1,5.93.32"/><path class="cls-2" d="M71.33,114.23c-1.84-.31-3.21-1-5.11-1.25a25.73,25.73,0,0,0-7.34.22c-.05,0-.08,0,0,0a20.57,20.57,0,0,1,6.25-.45c2.55.13,4,.93,6.32,1.39.14,0,.06.14-.08.12"/><path class="cls-2" d="M66.51,117.73c1,.89,2.67,1.18,4.39,1.42s3.49.62,5.17,1c.06,0,0,.07,0,.06-2-.22-3.87-.67-5.84-.95-1.55-.21-3.2-.62-3.92-1.45-.07-.09.15-.17.25-.08"/></g></svg>