<svg id="Layer_1" data-name="Layer 1" xmlns="http://www.w3.org/2000/svg" viewBox="0 0 66.79 39.81"><defs><style>.cls-1{fill:#623d2d;}</style></defs><path class="cls-1" d="M.32,1.32c-.31-.07-.46.44-.15.54a33.13,33.13,0,0,0,4.09.91h0A14.64,14.64,0,0,0,6.12,3a.52.52,0,0,1,.4.2l.47.1c5.9,3.49,4.94,13.13,6.46,18.91,1.66,6.3,5,12.2,11,15.16C37.69,43.79,53.31,36.06,66,31.7l.52-.06a.3.3,0,0,0,.23-.38.29.29,0,0,0-.37-.36l-.54.16c-3.92-.09-7.35-6.21-8.82-9-1.65-3.1-2.39-6.54-3.78-9.75A20.24,20.24,0,0,0,41.58,1.11c-2.46-1-5.44-.92-8-1.06a35.15,35.15,0,0,0-9.27.74C21,1.47,17.7,2.62,14.41,3.14,12,3.53,9.51,2.71,7,2.48l-.33-.13a12,12,0,0,1-1.92-.24c-1.49-.25-3-.48-4.45-.79M8.91,3.74a16.79,16.79,0,0,1,1.93.69,0,0,0,0,0,0,.05A23.56,23.56,0,0,1,12.5,6.29c.09.1.27,0,.17-.12a9,9,0,0,0-1.62-1.65,20.13,20.13,0,0,1,2,1,6.63,6.63,0,0,1,1.34,3.25c.17,1.16.27,2.33.34,3.5A6.25,6.25,0,0,0,15,14.39c0,.07.16,0,.13-.05-.45-1.12-.25-2.6-.36-3.8a11.46,11.46,0,0,0-.53-3.19,12.74,12.74,0,0,0-.63-1.45c.61.39,1.22.8,1.86,1.26l1.08.74A8,8,0,0,1,17.19,9c.86,1.93.82,3.86,1,5.92.22,3-.2,6.61,1.42,9.31,0,0,.09,0,.07,0-1.44-3.92-1-8.11-1.41-12.21a9.65,9.65,0,0,0-1.13-3.74,59.34,59.34,0,0,1,7.63,5.46c1.53,2.49.26,5.57,0,8.42A16.37,16.37,0,0,0,24.85,27a11.79,11.79,0,0,0,.55,1.84c.3.78.81,1.46,1.09,2.23,0,.05.07,0,.07,0a17.45,17.45,0,0,0-1-2.29,12.66,12.66,0,0,1-.71-3.2,22.89,22.89,0,0,1,.59-6.06,8.51,8.51,0,0,0,.06-4.64c-.06-.16-.14-.34-.22-.53h0a19.51,19.51,0,0,1,1.84,2.08,23.84,23.84,0,0,0,4,4.08,7.16,7.16,0,0,1,.45,3.46,23.61,23.61,0,0,0,0,4.68,9.65,9.65,0,0,0,3.46,5.76c.06,0,.13,0,.08-.1A11.23,11.23,0,0,1,32,29.46a17.72,17.72,0,0,1-.16-5.09,13.28,13.28,0,0,0-.14-3.51,41.11,41.11,0,0,0,6.72,4.22c.47.24.94.45,1.42.65a8,8,0,0,1,.85,1.12,6.22,6.22,0,0,0,1.11,1.44,5.5,5.5,0,0,0,1.66,1,16,16,0,0,1,2.31.75c.07,0,.15-.06.09-.11a4.54,4.54,0,0,0-1.59-.59,5.79,5.79,0,0,1-2.55-1.52c-.47-.55-.83-1.29-1.3-1.9A21.55,21.55,0,0,0,44.37,27c2,.33,4.67.19,6.48,1.17.36.2.6-.35.26-.56a5.46,5.46,0,0,0-1.36-.55L50.86,27c.1,0,.08-.21,0-.19-.54,0-1.08.1-1.61.18-.48-.09-1-.15-1.45-.2l.09,0a4.66,4.66,0,0,0,1.77-.57c.08-.06,0-.17-.1-.12a6.15,6.15,0,0,1-1.72.46,7.12,7.12,0,0,1-.9.17c-.54,0-1.06-.09-1.54-.17-.88-.15-1.72-.33-2.53-.55a6.3,6.3,0,0,0,1.38,0,40.25,40.25,0,0,0,5-1,.06.06,0,1,0,0-.11c-1.55.08-3,.74-4.55.87a8.07,8.07,0,0,1-3.28-.34,3.48,3.48,0,0,0-.85-.2l-.28-.11a13.86,13.86,0,0,0,4.05-.28c.08,0,.07-.15,0-.14a15.28,15.28,0,0,1-3.81.29c-.33-.05-.65-.12-1-.19a21.88,21.88,0,0,1-2.18-1.16L37,23.4h.09c1.69,1.13,3.86.85,5.77.58a.1.1,0,0,0,0-.2,10.78,10.78,0,0,1-3.35.16,10.11,10.11,0,0,1-1.75-.52c.83,0,1.67-.08,2.36-.13.12,0,.13-.2,0-.19a21.61,21.61,0,0,1-2.67,0,6.17,6.17,0,0,1-.62-.09l-.1-.05a0,0,0,0,0-.06,0c-.17,0-.33-.08-.48-.12-.55-.33-1.09-.67-1.63-1,.82.2,1.63.47,2.49.62a13.84,13.84,0,0,0,4,.16c3.19-.38,6.26-1.48,9.43-2,.05,0,.05-.11,0-.1-3,.12-5.7,1.37-8.6,1.79a13.37,13.37,0,0,1-5.63-.24,13.38,13.38,0,0,0-2.32-.59c-.46-.3-.91-.61-1.36-.92a15.23,15.23,0,0,0,7.52.65c.07,0,.06-.12,0-.12a31.16,31.16,0,0,1-4.63-.15c-.93-.14-1.81-.37-2.72-.57a4.43,4.43,0,0,1-.73-.23c-.41-.31-.81-.62-1.21-.95a11.1,11.1,0,0,0,5.85.6.06.06,0,0,0,0-.11,19.44,19.44,0,0,1-4.1-.24,7.58,7.58,0,0,1-2.21-.67c-.21-.18-.41-.37-.6-.56a6.21,6.21,0,0,0,.59.26,8.84,8.84,0,0,0,1.26.15,11.76,11.76,0,0,0,3.4-.13c.11,0,.1-.19,0-.18a10.9,10.9,0,0,1-3,.13A17.86,17.86,0,0,1,29.61,18l-.26-.07-.25-.27a6,6,0,0,0,1.41.38,9.69,9.69,0,0,0,4.21-.7,30.43,30.43,0,0,1,5.51-1.67,24.68,24.68,0,0,1,5.49-.39c.08,0,.11-.12,0-.13a14.31,14.31,0,0,0-3.64.07,19,19,0,0,0-4.17.71c-2.57.9-6.5,3-9.17,1.34-.33-.38-.65-.76-1-1.15a5.2,5.2,0,0,0,2.89.71c1.45,0,3.21,0,4.33-1,.05-.06,0-.15-.08-.1-1.9,1.46-5.41,1.11-7.47,0l-.65-.78a6.68,6.68,0,0,0,2.3.46c1.37,0,2.64-.34,4-.46a.07.07,0,0,0,0-.14c-1.18,0-2.33.37-3.53.37a10.49,10.49,0,0,1-3.1-.63c-.18-.19-.35-.38-.54-.57a10.42,10.42,0,0,0,6-.42c.08,0,0-.17,0-.14a10.82,10.82,0,0,1-6.52,0c-.43-.41-.86-.81-1.31-1.19h0a1.55,1.55,0,0,0,.47.12l.06,0h.06c1.55.69,3.39.24,5-.21a16.83,16.83,0,0,1,8.25-.23.07.07,0,0,0,0-.14,13.46,13.46,0,0,0-6.4-.35c-2.52.52-4.81,1.6-7.33.48a.06.06,0,0,0-.07,0,12.23,12.23,0,0,0-1.18-.63l-.81-.63a12.21,12.21,0,0,0,3.78.53c1.12,0,2.77,0,3.75-.62.08,0,0-.15-.07-.12a9.65,9.65,0,0,1-4.1.47c-1.31-.1-2.56-.4-3.83-.62-.29-.22-.59-.43-.89-.64a11.63,11.63,0,0,0,1.76.16,20.35,20.35,0,0,0,5.27-.54c.13,0,.08-.21,0-.19-2.4.52-5.18.91-7.59.15l-1.45-1,.2,0c2,.7,4.24.29,6.26-.11.12,0,.07-.2,0-.18a18.25,18.25,0,0,1-6.59,0,0,0,0,0,0,0,.09l-.11,0-.66-.45a6.72,6.72,0,0,0,2.8.06c2.2-.32,4.29-1.16,6.49-1.52a33.25,33.25,0,0,1,6.83-.53A19.43,19.43,0,0,1,37.56,6a11.46,11.46,0,0,0,2.06.72c.09,0,.11-.13,0-.14-.88-.2-1.59-.74-2.51-.88a24.45,24.45,0,0,0-2.83-.29,33.45,33.45,0,0,0-6.4.37A45.41,45.41,0,0,0,22.3,7c-2,.55-3.81.82-5.63-.14l-1.12-.75a5.71,5.71,0,0,0,2.66.25A23.08,23.08,0,0,0,24,5.08c.1,0,0-.18-.07-.15-2.89.88-6.42,2-9.28.5,0,0-.09,0-.05.08l.08.07-.81-.52L13.74,5a15.55,15.55,0,0,0,2.47.12,23,23,0,0,0,5.38-.9c.12,0,.07-.2-.05-.18-2.89.58-5.75,1.21-8.65.48-.57-.29-1.15-.56-1.74-.79a8.26,8.26,0,0,0,3.46.17c3.29-.78,6.55-1.63,9.87-2.36C31.31,0,40.58,0,46.38,4.43c6.46,5,7,12.77,10.85,19.42,1.39,2.38,4.09,6.68,7.27,7.65-13.38,4.42-31.91,13.7-43.86,2.38-6-5.63-6.68-13.2-7.92-20.82C12.22,10,11.3,6,8.91,3.74"/><path class="cls-1" d="M58.4,28.68a.05.05,0,0,1,.08-.07,11.79,11.79,0,0,0,4.15,2.91.08.08,0,0,1-.05.15,9.62,9.62,0,0,1-4.18-3"/><path class="cls-1" d="M55.73,23.68a0,0,0,0,1,.06,0c.7.79,1.32,1.64,2,2.44.06.08-.07.19-.13.12a21.63,21.63,0,0,1-1.94-2.52"/><path class="cls-1" d="M56.67,25.9c0-.06.07-.11.1,0a16,16,0,0,0,.92,1.67c.07.1-.09.19-.16.09a8.38,8.38,0,0,1-.86-1.72"/><path class="cls-1" d="M53.09,18.18A26.89,26.89,0,0,1,51.91,15a37,37,0,0,0-1.45-3.57c-.42-.87-.55-2.06-1.16-2.8,0,0,0,0,0,0a6,6,0,0,1,1.09,2.3c.44,1.05,1,2.05,1.35,3.12.49,1.35.89,2.75,1.48,4.06A34.16,34.16,0,0,1,55,21.41s-.05.07-.07,0c-.53-1.12-1.29-2.15-1.86-3.26"/><path class="cls-1" d="M50.47,13.71c.07.09,0,.22-.12.13a18.79,18.79,0,0,1-1.55-2.19,0,0,0,0,1,.06-.06,19.7,19.7,0,0,1,1.61,2.12"/><path class="cls-1" d="M48.51,9.26c-.2-1.12-1.66-2.19-2.47-2.89a13.08,13.08,0,0,0-4.39-2.44,0,0,0,0,1,0-.05,10.5,10.5,0,0,1,4.53,2.33c.82.67,2.37,1.89,2.46,3,0,.08-.13.1-.14,0"/><path class="cls-1" d="M47.15,8.62c.08.08,0,.21-.12.13a8.66,8.66,0,0,0-2.19-1.67s0-.08,0-.07a5.45,5.45,0,0,1,2.28,1.61"/><path class="cls-1" d="M32.23,1.84A16,16,0,0,1,40,2.76c.09,0,0,.19,0,.16a21.5,21.5,0,0,0-7.68-1,0,0,0,1,1,0-.08"/><path class="cls-1" d="M36.43,3.51s0,0,0,0a4.48,4.48,0,0,1,1.31.12l.87.16a1.63,1.63,0,0,0,.61.1.06.06,0,0,1,.06.1c-.24.18-.89,0-1.14-.09a11.75,11.75,0,0,0-1.71-.34"/><path class="cls-1" d="M30.21,2.26a19,19,0,0,0-4.76.43.08.08,0,0,1,0-.15,13.38,13.38,0,0,1,4.8-.42c.09,0,.09.15,0,.14"/><path class="cls-1" d="M61.05,32.05a.07.07,0,0,1,0,.13c-.92.14-1.85.22-2.76.4-1.29.26-2.5.77-3.77,1.11-.07,0-.13-.09-.06-.12a17.81,17.81,0,0,1,6.58-1.52"/><path class="cls-1" d="M43.87,36.06C45,35.93,46,36,47.1,35.79c1.3-.21,2.59-.5,3.89-.72.12,0,.17.16,0,.19-2.37.43-4.74,1.16-7.17.9a.05.05,0,0,1,0-.1"/><path class="cls-1" d="M51.8,34.4a7.57,7.57,0,0,1,1.56-.46c.1,0,.17.12.06.15a7.23,7.23,0,0,1-1.58.42c-.06,0-.09-.08,0-.11"/><path class="cls-1" d="M37.66,37.17c2.39.37,4.56-.09,6.94-.22.08,0,.1.13,0,.14-2.2.4-4.83,1-7,.2-.07,0,0-.13,0-.12"/><path class="cls-1" d="M41.65,36.26a8.71,8.71,0,0,1-1.69.15c-.07,0-.06-.09,0-.11a9.3,9.3,0,0,1,1.68-.21.09.09,0,0,1,0,.17"/><path class="cls-1" d="M37,38.44a17.49,17.49,0,0,1-8.9-1.85s0-.07,0-.06A23.83,23.83,0,0,0,37,38.32c.07,0,.07.12,0,.12"/><path class="cls-1" d="M35.2,36.94a13.78,13.78,0,0,1-2.8-.17c-.06,0,0-.09,0-.09.93-.09,1.85.19,2.78.12.1,0,.1.13,0,.14"/><path class="cls-1" d="M25.84,35.94c.08,0,0,.17-.05.13-1.92-.83-3.87-1.87-5-3.72,0,0,0-.05,0,0a13,13,0,0,0,5,3.62"/><path class="cls-1" d="M25.76,34.15s0-.06,0,0a20,20,0,0,0,2.95,1.51c.09,0,0,.18-.06.14a8.66,8.66,0,0,1-2.93-1.61"/><path class="cls-1" d="M19.27,30.41c.06.06,0,.16-.1.1a8.82,8.82,0,0,1-2.86-5.82c0-.06.09-.07.1,0a11.79,11.79,0,0,0,2.86,5.74"/><path class="cls-1" d="M20.51,29.53s0-.08.07-.05a31.82,31.82,0,0,0,2.35,2.57c.08.07,0,.2-.1.13a17.77,17.77,0,0,1-2.32-2.65"/><path class="cls-1" d="M18.6,25.65c.06.07-.06.19-.13.12a3.14,3.14,0,0,1-.77-1.67,0,0,0,0,1,.06,0,4.86,4.86,0,0,0,.84,1.57"/><path class="cls-1" d="M15.68,22.42c0,.12-.14.16-.19,0a18.47,18.47,0,0,1-1-6.17s.06,0,.07,0a31.74,31.74,0,0,0,1.08,6.13"/><path class="cls-1" d="M16.25,21.05a8.56,8.56,0,0,1-.49-1.48c0-.07.08-.09.1,0A12.7,12.7,0,0,0,16.41,21c0,.1-.12.16-.16.05"/><path class="cls-1" d="M13.88,12.44c0,.11-.15.12-.17,0A22.08,22.08,0,0,0,12.27,7.8s.05-.08.07,0a16.6,16.6,0,0,1,1.54,4.68"/><path class="cls-1" d="M40.56,32.57A7.77,7.77,0,0,1,37,28.1s0,0,0,0a11,11,0,0,0,3.57,4.41,0,0,0,0,1,0,.07"/><path class="cls-1" d="M36.61,26.25c-.13-.28-.23-.61-.54-.71a0,0,0,0,1,0-.06c.65.05.71.79,1,1.21a.1.1,0,0,1-.16.13,2.68,2.68,0,0,1-.32-.57"/><path class="cls-1" d="M28.06,26.66a8,8,0,0,1-.5-1.78,4.57,4.57,0,0,1,.6-1.74,0,0,0,0,1,0,0,5.84,5.84,0,0,0-.43,1.74c0,.6.4,1.14.47,1.74a.09.09,0,0,1-.18,0"/><path class="cls-1" d="M21.73,20.87a4.3,4.3,0,0,0,.16-2.05,9.79,9.79,0,0,0-.32-2.07s0,0,0,0a10.41,10.41,0,0,1,.5,2.76,1.93,1.93,0,0,1-.3,1.41,0,0,0,0,1-.07,0"/></svg>