<svg id="Layer_1" data-name="Layer 1" xmlns="http://www.w3.org/2000/svg" viewBox="0 0 446.8 56.36"><defs><style>.cls-1{fill:#af7c58;}</style></defs><path class="cls-1" d="M79.2,75.84a17.81,17.81,0,0,0-1.65-1.94,16,16,0,0,0-22.67,0,16,16,0,0,0,11.31,27.37,15.43,15.43,0,0,0,11.36-4.72,18.92,18.92,0,0,0,1.65-2v5.84h2.64V53.75H79.2Zm0,12a12.63,12.63,0,0,1-3.63,6.73,13.25,13.25,0,0,1-18.74,0A13.26,13.26,0,0,1,66.19,72a12.78,12.78,0,0,1,9.38,3.9,12.64,12.64,0,0,1,3.63,6.77Z" transform="translate(-50.18 -53.75)"></path><path class="cls-1" d="M109.34,89.42a8.4,8.4,0,0,1-2.63,6.22,8.56,8.56,0,0,1-6.25,2.59A8.83,8.83,0,0,1,94,95.62a8.35,8.35,0,0,1-2.64-6.2V71.75H88.67v17.9a11.2,11.2,0,0,0,3.27,8,11.56,11.56,0,0,0,8.55,3.17A11,11,0,0,0,112,89.65V71.75h-2.64Z" transform="translate(-50.18 -53.75)"></path><rect class="cls-1" x="69.32" width="2.64" height="46.69"></rect><path class="cls-1" d="M144.52,72a12.86,12.86,0,0,1,9.38,3.86c.33.36.64.71.92,1.06l2.78-1a16.7,16.7,0,0,0-1.72-2,16,16,0,1,0-22.67,22.66,16,16,0,0,0,22.67,0,17.62,17.62,0,0,0,1.72-2l-2.78-1a11,11,0,0,1-.92,1,13.23,13.23,0,1,1-18.71-18.7A12.72,12.72,0,0,1,144.52,72Z" transform="translate(-50.18 -53.75)"></path><path class="cls-1" d="M193.55,83.77a13.54,13.54,0,0,0-4.13-9.87,16,16,0,1,0-22.67,22.66,16,16,0,0,0,22.67,0,14.11,14.11,0,0,0,2.08-2.38l-2.8-1q-.6.72-1.26,1.38a13.23,13.23,0,0,1-22.62-9.31,9.93,9.93,0,0,1,.1-1.48Zm-24.87-7.89a13.23,13.23,0,0,1,18.76,0,12.5,12.5,0,0,1,3.14,5.21H165.41A13.47,13.47,0,0,1,168.68,75.88Z" transform="translate(-50.18 -53.75)"></path><path class="cls-1" d="M303,75.84a20.36,20.36,0,0,0-1.65-1.94,16,16,0,1,0-22.67,22.66,16,16,0,0,0,22.67,0,21.81,21.81,0,0,0,1.65-2v5.84h2.64V71.78H303Zm0,12a13.21,13.21,0,1,1,0-5.18Z" transform="translate(-50.18 -53.75)"></path><polygon class="cls-1" points="272.8 41.9 262.5 18.03 259.43 18.03 272.11 46.69 273.49 46.69 286.31 18.03 283.24 18.03 272.8 41.9"></polygon><path class="cls-1" d="M370.72,83.77a13.54,13.54,0,0,0-4.13-9.87,16,16,0,1,0-22.67,22.66,16,16,0,0,0,22.67,0,14.11,14.11,0,0,0,2.08-2.38l-2.81-1a18.09,18.09,0,0,1-1.25,1.38A13.23,13.23,0,0,1,342,85.25a9.93,9.93,0,0,1,.1-1.48Zm-24.87-7.89a13.23,13.23,0,0,1,18.76,0,12.38,12.38,0,0,1,3.13,5.21H342.58A13.47,13.47,0,0,1,345.85,75.88Z" transform="translate(-50.18 -53.75)"></path><rect class="cls-1" x="326.38" width="2.64" height="46.69"></rect><rect class="cls-1" x="337.29" width="2.64" height="46.69"></rect><path class="cls-1" d="M426.23,75.84a20.36,20.36,0,0,0-1.65-1.94,16,16,0,1,0-22.67,22.66,16,16,0,0,0,22.67,0,21.81,21.81,0,0,0,1.65-2v5.84h2.64V71.78h-2.64Zm0,12a13.21,13.21,0,1,1,0-5.18Z" transform="translate(-50.18 -53.75)"></path><path class="cls-1" d="M447.06,70.06a11.41,11.41,0,0,0-8.33,3.57V71.78h-2.64v28.66h2.64V78.19a9.82,9.82,0,0,1,2.08-2.94,8.95,8.95,0,0,1,12.52,0A8.4,8.4,0,0,1,456,81.52v18.92h2.61V81.26a11,11,0,0,0-11.52-11.2Z" transform="translate(-50.18 -53.75)"></path><path class="cls-1" d="M494.33,71.78v4.06a19,19,0,0,0-1.65-1.94A16,16,0,1,0,470,96.56a16,16,0,0,0,22.67,0,20.26,20.26,0,0,0,1.65-2v5.84H497V71.78Zm0,16a13.21,13.21,0,1,1,0-5.18Z" transform="translate(-50.18 -53.75)"></path><path class="cls-1" d="M263,81.43a28.63,28.63,0,0,1-5-7.41,2.33,2.33,0,0,0-.43-2.4c-2-2.11-9.14-.39-13.23.82a12.21,12.21,0,0,0-3.59,1.75,3.2,3.2,0,0,1-1.63-.65c-.67-.73-4.07-4.13-4.45-4.52l-.1-.1V58.86h-2.05v10l-.14.13c-.38.39-3.78,3.79-4.45,4.52a3.2,3.2,0,0,1-1.63.65,12.21,12.21,0,0,0-3.59-1.75c-4.09-1.21-11.24-2.93-13.24-.82a2.36,2.36,0,0,0-.42,2.4,28.63,28.63,0,0,1-5,7.41c-3.54,3.54-5.57,10.26-.62,18.51l.41.44.15.11a19.22,19.22,0,0,0,8.84,2.38,12.74,12.74,0,0,0,9.58-4.12,25.81,25.81,0,0,1,5.41-4.43,2.74,2.74,0,0,0,.93.35l.29,0a2,2,0,0,0,1.27-.47C231.86,93,232,89.34,232,87.39c0-.26,0-.48,0-.63a14.81,14.81,0,0,0-3.53-10.63c-.21-.85.63-1.63.74-1.73l4.3-4.3h.07l4.32,4.32s.93.83.72,1.71a14.81,14.81,0,0,0-3.53,10.63c0,.15,0,.37,0,.63.05,2,.15,5.57,1.64,6.83a2,2,0,0,0,1.27.47l.29,0a2.74,2.74,0,0,0,.93-.35,25.81,25.81,0,0,1,5.41,4.43,12.74,12.74,0,0,0,9.58,4.12,19.22,19.22,0,0,0,8.84-2.38l.49-.46.08-.11C268.61,91.69,266.58,85,263,81.43Zm-21.39,3.09V77.27h7.25v7.25Zm7.25-11.88V76h-7.25v-.74a10.9,10.9,0,0,1,3.11-1.5C246.2,73.28,247.59,72.92,248.9,72.64Zm13.49,26.72c-7.79,4-13.74,1.87-16.72-1.49a26.79,26.79,0,0,0-5.16-4.33c1.06-.68,2.1-1.42,3.09-2.18l0,0,.52-.4.14-.11.46-.37.19-.16.41-.34.23-.2c.13-.1.25-.21.37-.32l.28-.24.33-.29.28-.26.31-.29.3-.29.29-.27.33-.32.06-.06.2-.2.34-.35.24-.24c.13-.14.26-.27.38-.41l.19-.2.57-.61,1.56-1.76.57-.65.39-.44,2-2.37.15-.2.19-.26.18-.24c.13-.16.25-.33.37-.5l.07-.11c.1-.13.19-.27.28-.4l.12-.19c.08-.11.15-.22.22-.33s.09-.15.13-.22l.2-.32.08-.14h.14V77l.09-.16.13-.23c.06-.11.11-.22.17-.34l.12-.23.17-.36a0,0,0,0,0,0,0,28.43,28.43,0,0,0,4.72,6.69c3.18,3.18,5,9.27.48,16.81ZM250.22,83.22v-6H255a39.11,39.11,0,0,1-3.8,4.85Zm6.5-9.38a17.65,17.65,0,0,1-1,2.11h-5.55V72.37c3.39-.62,5.77-.55,6.44.16C256.76,72.63,257,72.93,256.72,73.84Zm-9,12.06-.42.43-.34.33a3,3,0,0,1-.25.25c-.12.11-.24.22-.35.34l-.24.22-.46.42-.15.14-.55.48-.06.06c-1,.9-2.16,1.77-3.3,2.59V85.84h6.18Zm-7.44-.06v6.24c-.46.3-.93.61-1.4.9l-.24.14a1.59,1.59,0,0,1-.53.24.64.64,0,0,1-.52-.15c-1-.88-1.14-4.5-1.18-5.86,0-.27,0-.5,0-.67s0-.53,0-.84Zm-3.85-1.32a13,13,0,0,1,2.93-7.25h.92v7.25Zm-9.66,0V77.27h.92a13,13,0,0,1,2.93,7.25Zm3.91,1.32c0,.29,0,.57,0,.84s0,.35,0,.59v.08c0,1.36-.13,5-1.18,5.86a.6.6,0,0,1-.52.15,1.82,1.82,0,0,1-.55-.25l-.22-.13c-.47-.29-.94-.6-1.4-.9V85.84ZM225.5,76h-7.25V72.64c1.31.28,2.7.64,4.14,1.07a10.9,10.9,0,0,1,3.11,1.5ZM204.75,99.36l-.17-.18c-4.51-7.55-2.72-13.64.46-16.82a27.85,27.85,0,0,0,4.72-6.69l0,0c.05.12.11.25.17.37l.14.27.15.29.13.23.09.16v.25h.14l.08.14.2.32L211,78l.22.33.12.19.27.4.08.11.36.5.13.17.25.33.15.2c.08.09.15.19.23.29l.16.2.23.28.56.68.24.28.16.18,1.36,1.55,1.56,1.76.57.62.13.13,0,0,.4.42.29.3.29.29.87.85.31.29.31.28.29.27.33.3.87.75.41.34.19.16.46.37.13.1.53.41,0,0c1,.76,2,1.49,3.1,2.18a27.16,27.16,0,0,0-5.16,4.33C218.5,101.23,212.54,103.38,204.75,99.36Zm16.71-11.45-.13-.12-.34-.31-.21-.2-.23-.22-.16-.15-.41-.4-.18-.18-.48-.49h6.18v5.32c-1.15-.82-2.26-1.7-3.3-2.59l-.09-.08-.52-.46Zm-4.53-10.64v6l-1-1.1a39.11,39.11,0,0,1-3.8-4.85Zm0-1.32h-5.55a17.65,17.65,0,0,1-.95-2.11c-.32-.91,0-1.21.06-1.31.67-.72,3-.78,6.44-.16Zm1.32,8.57V77.27h7.25v7.25Z" transform="translate(-50.18 -53.75)"></path></svg>