<svg id="Layer_1" data-name="Layer 1" xmlns="http://www.w3.org/2000/svg" viewBox="0 0 388.8 277.27"><defs><style>.cls-1{fill:#af7c58;}</style></defs><path class="cls-1" d="M84.2,208.84a17.81,17.81,0,0,0-1.65-1.94,16,16,0,0,0-22.67,0,16,16,0,0,0,11.31,27.37,15.43,15.43,0,0,0,11.36-4.72,18.92,18.92,0,0,0,1.65-2v5.84h2.64V186.75H84.2Zm0,12a12.63,12.63,0,0,1-3.63,6.73,13.25,13.25,0,0,1-18.74,0A13.26,13.26,0,0,1,71.19,205a12.78,12.78,0,0,1,9.38,3.9,12.64,12.64,0,0,1,3.63,6.77Z" transform="translate(-55.18 -25.84)"/><path class="cls-1" d="M114.34,222.42a8.4,8.4,0,0,1-2.63,6.22,8.56,8.56,0,0,1-6.25,2.59A8.83,8.83,0,0,1,99,228.62a8.35,8.35,0,0,1-2.64-6.2V204.75H93.67v17.9a11.2,11.2,0,0,0,3.27,8,11.56,11.56,0,0,0,8.55,3.17A11,11,0,0,0,117,222.65v-17.9h-2.64Z" transform="translate(-55.18 -25.84)"/><rect class="cls-1" x="69.32" y="160.91" width="2.64" height="46.69"/><path class="cls-1" d="M149.52,205a12.86,12.86,0,0,1,9.38,3.86c.33.36.64.71.92,1.06l2.78-1a16.7,16.7,0,0,0-1.72-2,16,16,0,1,0,0,22.65,17.62,17.62,0,0,0,1.72-2l-2.78-1a11,11,0,0,1-.92,1A13.23,13.23,0,1,1,149.52,205Z" transform="translate(-55.18 -25.84)"/><path class="cls-1" d="M198.55,216.77a13.54,13.54,0,0,0-4.13-9.87,16,16,0,1,0,0,22.65,14.11,14.11,0,0,0,2.08-2.38l-2.8-1q-.6.72-1.26,1.38a13.23,13.23,0,0,1-22.62-9.31,9.93,9.93,0,0,1,.1-1.48Zm-24.87-7.89a13.23,13.23,0,0,1,18.76,0,12.5,12.5,0,0,1,3.14,5.21H170.41A13.47,13.47,0,0,1,173.68,208.88Z" transform="translate(-55.18 -25.84)"/><path class="cls-1" d="M250,208.84a20.36,20.36,0,0,0-1.65-1.94,16,16,0,1,0,0,22.65,21.81,21.81,0,0,0,1.65-2v5.84h2.64V204.78H250Zm0,12a13.21,13.21,0,1,1,0-5.18Z" transform="translate(-55.18 -25.84)"/><polygon class="cls-1" points="214.8 202.82 204.5 178.94 201.43 178.94 214.11 207.6 215.49 207.6 228.31 178.94 225.24 178.94 214.8 202.82"/><path class="cls-1" d="M317.72,216.77a13.54,13.54,0,0,0-4.13-9.87,16,16,0,1,0,0,22.65,14.11,14.11,0,0,0,2.08-2.38l-2.81-1a18.09,18.09,0,0,1-1.25,1.38A13.23,13.23,0,0,1,289,218.25a9.93,9.93,0,0,1,.1-1.48Zm-24.87-7.89a13.23,13.23,0,0,1,18.76,0,12.38,12.38,0,0,1,3.13,5.21H289.58A13.47,13.47,0,0,1,292.85,208.88Z" transform="translate(-55.18 -25.84)"/><rect class="cls-1" x="268.38" y="160.91" width="2.64" height="46.69"/><rect class="cls-1" x="279.29" y="160.91" width="2.64" height="46.69"/><path class="cls-1" d="M373.23,208.84a20.36,20.36,0,0,0-1.65-1.94,16,16,0,1,0,0,22.65,21.81,21.81,0,0,0,1.65-2v5.84h2.64V204.78h-2.64Zm0,12a13.21,13.21,0,1,1,0-5.18Z" transform="translate(-55.18 -25.84)"/><path class="cls-1" d="M394.06,203.06a11.41,11.41,0,0,0-8.33,3.57v-1.85h-2.64v28.66h2.64V211.19a9.82,9.82,0,0,1,2.08-2.94,8.95,8.95,0,0,1,12.52,0,8.4,8.4,0,0,1,2.64,6.24v18.92h2.61V214.26a11,11,0,0,0-11.52-11.2Z" transform="translate(-55.18 -25.84)"/><path class="cls-1" d="M441.33,204.78v4.06a19,19,0,0,0-1.65-1.94,16,16,0,1,0,0,22.65,20.26,20.26,0,0,0,1.65-2v5.84H444V204.78Zm0,16.05a13.21,13.21,0,1,1,0-5.18Z" transform="translate(-55.18 -25.84)"/><path class="cls-1" d="M442.78,270.51H383.25a.87.87,0,0,0-.8.53c-.62,1.51-2.8,5.39-5.37,5.2-2.89-.23-2.69-4.86-2.69-4.9a.86.86,0,0,0-1.71-.12c-.14,1.78-1,3.95-2.56,4.78a2.42,2.42,0,0,1-2,.1,2.12,2.12,0,0,1-1.27-1.3,5.28,5.28,0,0,1-.14-2.33,7.82,7.82,0,0,1,.13-.8,2.47,2.47,0,0,1,.18-.55c1-2,2.24-3.12,3.65-3.46a4.88,4.88,0,0,1,3.63.77.85.85,0,0,0,1.19-.18.86.86,0,0,0-.18-1.2,6.56,6.56,0,0,0-5-1.06c-1.83.43-3.36,1.77-4.59,4l0,0a2.09,2.09,0,0,0-.19.36.43.43,0,0,0,0,.07,0,0,0,0,0,0,0c-.06.14-.11.26-.15.38a3,3,0,0,1-3.2.46.71.71,0,0,0-.25-.11c-1.11-.27-2.58-3.44-3.23-5.51a.84.84,0,0,0-.95-.59.86.86,0,0,0-.72.86c0,2,.17,8-2.73,10.07a.43.43,0,0,1-.45.07c-1.08-.4-2.41-3.2-2.74-4.54-.1-.39-.23-.9-.34-1.44a9,9,0,0,0,.06-3.38,1.34,1.34,0,0,0-.28-.66.84.84,0,0,0-.81-.31.89.89,0,0,0-.67.57,8,8,0,0,0-.05,3.74,1.71,1.71,0,0,1-.06.22v0c-2.1,6.61-5.81,6.59-6.06,6.58a2.58,2.58,0,0,1-1.83-1.09c-1.07-1.46-1.25-4.14-1.15-6.44a31.18,31.18,0,0,0,.42-3.68.86.86,0,0,0-1.7-.21,30.86,30.86,0,0,0-.42,3.71c-.13.76-.25,1.29-.28,1.44-.79,2.24-2.68,5.61-4.29,5.82-.59.08-1.21-.34-1.83-1.24l-.1-.15a13.1,13.1,0,0,1-.68-1.72c-.06-.2-.13-.39-.19-.58-.23-.64-.43-1.24-.61-1.82a24.16,24.16,0,0,0,1.18-2.22,38.46,38.46,0,0,0,3.4-14.71h12.55a.86.86,0,1,0,0-1.71H334.71c0-.39,0-.78,0-1.17a4.33,4.33,0,0,0-1.13-2.93,2.36,2.36,0,0,0-1.74-.59,2.74,2.74,0,0,0-2.37,1.75c-.35.94-.65,1.93-.92,2.94h-9.12a.86.86,0,1,0,0,1.71h8.7a39.41,39.41,0,0,0-.6,13.13,24.94,24.94,0,0,0,.72,3.44.85.85,0,0,0-.17.25c-.62,1.51-2.8,5.4-5.37,5.2-2.89-.22-2.7-4.86-2.69-4.9a.86.86,0,0,0-.8-.9.85.85,0,0,0-.91.78,6.31,6.31,0,0,1-2.59,4.83,2.06,2.06,0,0,1-1.93.12,2.54,2.54,0,0,1-1.46-1.83,7.22,7.22,0,0,1,.2-3.07,6.39,6.39,0,0,1,3.47-3.54,4.86,4.86,0,0,1,3.89.7.85.85,0,0,0,1.19-.18.86.86,0,0,0-.18-1.2,6.49,6.49,0,0,0-5.39-1,7.74,7.74,0,0,0-4.34,4.1.83.83,0,0,0-.23.37,1.06,1.06,0,0,0,0,.19,18.13,18.13,0,0,0-.87,2.11c-.16.33-1.65,3.35-4.11,3.93-1.34.31-2.8-.18-4.34-1.45l-.07-.05h0l.12-.09c1.53-1.19,4.39-3.4,4.59-5.79a3.1,3.1,0,0,0-.85-2.39,3.61,3.61,0,0,0-3-1.38,4.24,4.24,0,0,0-2.88,1.84h0a8.5,8.5,0,0,0-1.44,3.91,1,1,0,0,0-.14.15l-.61,1.05h0c-2.42,4.31-4.62,3.83-4.88,3.76-2.66-1.25-2.54-4-2.15-7a11.58,11.58,0,0,0,.15-1.78,1.87,1.87,0,0,0-.79-1.52,4.75,4.75,0,0,0-3.46-.34,8.47,8.47,0,0,0-.11-1.14c-.09-.6-.31-2-1.38-2.18-.87-.14-1.43.69-1.63,1s-1.22,1.74-.74,2.91a2.22,2.22,0,0,0,2,1.24h0a13.57,13.57,0,0,1-2.73,6.34,8.48,8.48,0,0,1-5.83,3.48,4.1,4.1,0,0,1-3.08-.91,4.62,4.62,0,0,1-1.44-3.29c-.12-2,.44-4.71,1.75-5.88a2.43,2.43,0,0,1,2.18-.55c1,.18,1.1,1.35,1.1,1.84a2,2,0,0,1-.5.95.86.86,0,0,0,.06,1.21.86.86,0,0,0,1.21-.06,3.55,3.55,0,0,0,.95-2.1,3.27,3.27,0,0,0-2.52-3.52,4.14,4.14,0,0,0-3.62.95c-2.07,1.84-2.43,5.43-2.32,7.26a6.42,6.42,0,0,0,2,4.49,5.63,5.63,0,0,0,3.78,1.34l.55,0a10.13,10.13,0,0,0,7-4.12,15.15,15.15,0,0,0,3.13-7.51,4.19,4.19,0,0,1,2.52-.06s.08.06.09.21a11.7,11.7,0,0,1-.14,1.49c-.33,2.6-.9,7,3.18,8.82l0,0c.15.06,3.46,1.25,6.65-3.93,0,.1.08.2.13.3a6.13,6.13,0,0,0,1.93,2.36,7.28,7.28,0,0,0,4.58,1.9,5,5,0,0,0,1.22-.14,7.83,7.83,0,0,0,4.42-3.42,4.22,4.22,0,0,0,2.37,2.7,3.72,3.72,0,0,0,1.56.34,3.76,3.76,0,0,0,2-.56,6.57,6.57,0,0,0,2.28-2.47,4.23,4.23,0,0,0,3.66,2.91h.33c2.93,0,5-3,6.07-4.86l.15.45c.06.17.13.36.19.55a14.71,14.71,0,0,0,.73,1.85.69.69,0,0,0,.05.13l.09.13a4,4,0,0,0,1.88,1.84l.22.1h0a2.83,2.83,0,0,0,1.48.21c2-.27,3.59-2.57,4.57-4.46a7.86,7.86,0,0,0,1.24,3.13,4.19,4.19,0,0,0,3,1.78h.2c.82,0,4.43-.32,6.86-5.64.57,1.54,1.81,4.11,3.49,4.73a2.12,2.12,0,0,0,2-.29c2.25-1.6,3.05-4.78,3.32-7.5.73,1.33,1.68,2.57,2.78,2.91a4.42,4.42,0,0,0,3.63.16,6.24,6.24,0,0,0,.28,2.38,3.83,3.83,0,0,0,2.25,2.34,4.2,4.2,0,0,0,1.56.3,4.1,4.1,0,0,0,1.92-.47,6,6,0,0,0,2.37-2.46,4.22,4.22,0,0,0,3.66,2.88l.33,0c3.47,0,5.79-4.22,6.52-5.74h59a.86.86,0,0,0,0-1.71Zm-158.33-4.86c-.42-.06-.55-.17-.55-.19a1.87,1.87,0,0,1,.43-1.1c0,.08,0,.16,0,.25a8.56,8.56,0,0,1,.09,1Zm15.89,8.15a5.39,5.39,0,0,1-.25-.48c-.66-1.49-.38-3.21.84-5.11a2.54,2.54,0,0,1,1.6-1.08,2,2,0,0,1,1.55.83,1.32,1.32,0,0,1,.41,1.09c-.14,1.64-2.79,3.7-3.93,4.58Zm30.71-23.86a1.07,1.07,0,0,1,.87-.63H332a.56.56,0,0,1,.43.16,2.65,2.65,0,0,1,.57,1.73c0,.36,0,.73,0,1.09H330.3C330.53,251.49,330.77,250.7,331.05,249.94Zm-1.57,18.58c-.11-.55-.2-1.09-.27-1.6a37.64,37.64,0,0,1,.64-12.92H333a36.62,36.62,0,0,1-3.24,14C329.66,268.16,329.57,268.34,329.48,268.52Z" transform="translate(-55.18 -25.84)"/><path class="cls-1" d="M337.05,258.33a2.43,2.43,0,1,0,2.43-2.43A2.44,2.44,0,0,0,337.05,258.33Zm3.15,0a.72.72,0,1,1-.72-.72A.72.72,0,0,1,340.2,258.33Z" transform="translate(-55.18 -25.84)"/><path class="cls-1" d="M255.6,270.57a.86.86,0,0,0-1.12.47c-.62,1.51-2.8,5.39-5.38,5.2-2.89-.23-2.69-4.86-2.69-4.9a.86.86,0,0,0-1.71-.12c-.14,1.78-1,3.95-2.56,4.78a2.42,2.42,0,0,1-2,.1,2.08,2.08,0,0,1-1.26-1.3,5.12,5.12,0,0,1-.15-2.33c0-.25.08-.52.14-.79s.15-.41.22-.63c1-1.91,2.22-3.06,3.61-3.39a4.87,4.87,0,0,1,3.62.77.86.86,0,1,0,1-1.38,6.59,6.59,0,0,0-5-1.06,7.35,7.35,0,0,0-4.58,4l0,0a.16.16,0,0,1,0,.07,1,1,0,0,0-.13.25l0,0a.3.3,0,0,1,0,.08,0,0,0,0,1,0,0,4.12,4.12,0,0,0-.25.76c-2.14,5.7-5.5,5.69-5.75,5.68a2.55,2.55,0,0,1-1.82-1.09c-1.07-1.46-1.26-4.13-1.15-6.44a33.7,33.7,0,0,0,.41-3.68.84.84,0,0,0-.75-.89.85.85,0,0,0-.94.68,27.72,27.72,0,0,0-.43,3.71c-.13.76-.25,1.29-.28,1.44a10.89,10.89,0,0,1-.86,1.8c-.08.15-.17.29-.25.43a12.29,12.29,0,0,1-.91,1.27s0,.06,0,.09c-1.9,2.33-3.45,2-3.66,1.94-2.66-1.25-2.54-4-2.15-7a11.58,11.58,0,0,0,.15-1.78,1.89,1.89,0,0,0-.79-1.52,4.76,4.76,0,0,0-3.46-.34,10.48,10.48,0,0,0-.11-1.14c-.09-.6-.32-2-1.38-2.18-.87-.14-1.43.69-1.63,1s-1.23,1.74-.74,2.91a2.2,2.2,0,0,0,2,1.24h0A13.28,13.28,0,0,1,212,270a16.81,16.81,0,0,1-1.22,2.49.52.52,0,0,0-.12.17s-1.54,3.35-4.12,4c-1.35.31-2.81-.18-4.34-1.45l-.07-.05h0l.11-.09c1.54-1.19,4.39-3.4,4.59-5.79a3.06,3.06,0,0,0-.85-2.39,3.58,3.58,0,0,0-3-1.38,4.3,4.3,0,0,0-2.89,1.84h0c-1.62,2.52-1.66,4.55-1.26,6-.93,1.12-3.62,3.85-5.34,3.58-.21,0-.87-.14-1.4-1.52s-1.07-2.84-1.52-4.36c.43-.73.84-1.48,1.2-2.24a38.65,38.65,0,0,0,3.4-14.71H207.8a.86.86,0,1,0,0-1.71H195.27c0-.39,0-.78,0-1.17a4.33,4.33,0,0,0-1.13-2.93,2.34,2.34,0,0,0-1.74-.59,2.74,2.74,0,0,0-2.37,1.75c-.35.94-.65,1.93-.92,2.94H180a.86.86,0,1,0,0,1.71h8.7a39.41,39.41,0,0,0-.6,13.13,28.81,28.81,0,0,0,.73,3.56,52.72,52.72,0,0,1-3.34,4.56,4.81,4.81,0,0,1-4.89,1.9,2.92,2.92,0,0,0,.37-.24,4.08,4.08,0,0,0,1.7-4.28,14.68,14.68,0,0,0-1.71-4.15,19.22,19.22,0,0,1-1-2.13c-.06-.17-.12-.38-.19-.59a3.34,3.34,0,0,0,0-2.29,1.37,1.37,0,0,0-.92-.7,1,1,0,0,0-.94.3c-.36.41-.37,1,0,2.33a3.37,3.37,0,0,0,.1.34v0c-.28.59-.55,1.21-.81,1.81a24.82,24.82,0,0,1-2.15,4.28,4,4,0,0,1-2.57,1.82,3.29,3.29,0,0,1-1.17,0,9.44,9.44,0,0,0-.54-5.8,3.14,3.14,0,0,0-2.51-1.9,2.64,2.64,0,0,0-2.37,1.43c-2,3.25,2.63,6.76,2.83,6.91a5.25,5.25,0,0,0,.49.33,4.45,4.45,0,0,1-3.39,2.38c-1.57.27-2.68.05-3.31-.65-1.12-1.26-.67-4-.4-4.9,0,0,0-.07,0-.1a14.73,14.73,0,0,1,2.33-2.88.76.76,0,0,0,.39-.05.85.85,0,0,0,.52-1.09,1,1,0,0,0-.83-.63c-.56-.06-1.13.3-2,1.24a45.09,45.09,0,0,0-3.74,5.31c-2.43,3.89-5,4.56-6.63,4.47a10.87,10.87,0,0,0,2.89-5.27c.49-1.87.2-4.41-1.28-5.65a3.27,3.27,0,0,0-3.67-.26h0l-.08,0a9.71,9.71,0,0,0-4,4.23c0-2.35,0-4.44-.05-5.6,0-.34,0-.67,0-1a.86.86,0,0,0-1.71.06c0,.3,0,.62,0,.94-.14,3.58-2.31,7.38-4.55,9.72-2,2.11-4.47,2.19-6.87.2l-.07,0h0l.11-.09c1.54-1.19,4.39-3.4,4.59-5.79a3.09,3.09,0,0,0-.85-2.4,3.6,3.6,0,0,0-2.95-1.37,4.26,4.26,0,0,0-2.89,1.84h0a8.54,8.54,0,0,0-1.45,3.9.7.7,0,0,0-.13.16l-.62,1.05h0c-2.41,4.31-4.62,3.83-4.88,3.75-2.66-1.25-2.53-4-2.14-7a13,13,0,0,0,.15-1.78,1.94,1.94,0,0,0-.79-1.53,4.76,4.76,0,0,0-3.46-.33c0-.39-.06-.77-.11-1.14-.1-.6-.32-2-1.39-2.18-.86-.14-1.43.68-1.63,1.05s-1.22,1.73-.73,2.91a2.2,2.2,0,0,0,2,1.23h0a13,13,0,0,1-.73,2.8H56.37a.86.86,0,0,0,0,1.71h59a.86.86,0,0,0,.79-.52,14.65,14.65,0,0,0,1.11-4.1,4.1,4.1,0,0,1,2.52,0s.08.06.08.2a9.82,9.82,0,0,1-.13,1.5c-.34,2.6-.9,6.95,3.17,8.82l0,0a3,3,0,0,0,1.05.16c1.26,0,3.45-.6,5.6-4.08l.11.27a6.15,6.15,0,0,0,1.95,2.38,7.12,7.12,0,0,0,4.62,1.79,6.44,6.44,0,0,0,4.55-2.16,19.89,19.89,0,0,0,3.37-4.86c0,1.1,0,2.22,0,3.3-.16.41-.31.8-.44,1.17l-.12.31c-.3.8-.57,1.62-.83,2.41s-.61,1.85-1,2.76a54.52,54.52,0,0,0-2.72,8.28,38.08,38.08,0,0,0-.89,10.09,4.33,4.33,0,0,0,1.13,2.93,2.33,2.33,0,0,0,1.58.59h.16a2.72,2.72,0,0,0,2.37-1.75c2.07-5.55,2.26-11.24,2.48-17.84,0-.46,0-3.65,0-7.31a4.7,4.7,0,0,0,.66,1.15,3.51,3.51,0,0,0,2.59,1.33h.1a6.47,6.47,0,0,0,3.08.75l.55,0c1.84-.14,4.53-1.14,7-5a5.08,5.08,0,0,0,1.13,3.06c1.05,1.17,2.69,1.57,4.88,1.19a6.1,6.1,0,0,0,4.68-3.39,4.85,4.85,0,0,0,2,.08,5.75,5.75,0,0,0,3.71-2.54,28,28,0,0,0,2.31-4.57l.09-.23c.2.41.42.82.65,1.25,1.53,2.87,2.39,4.86.51,6.24-.51.38-1.41.72-3.37-.57a.85.85,0,0,0-1,1.36l1.05.91,0,0a10,10,0,0,0,3.41,1.52,7.91,7.91,0,0,0,1.59.17,6.4,6.4,0,0,0,5.17-2.64c.87-1.08,1.79-2.26,2.66-3.51.36,1.08.76,2.13,1.13,3.11a3.57,3.57,0,0,0,2.73,2.6c2.43.38,5.17-2.23,6.41-3.58a6.21,6.21,0,0,0,1.46,1.53,7.25,7.25,0,0,0,4.58,1.9,5,5,0,0,0,1.21-.14c2.87-.67,4.59-3.56,5.12-4.57a0,0,0,0,1,0,0,20.44,20.44,0,0,0,1.54-3.11,14.12,14.12,0,0,0,.78-3.27,4.19,4.19,0,0,1,2.52-.06s.08.06.09.21a11.7,11.7,0,0,1-.14,1.49c-.34,2.6-.9,7,3.17,8.82l.05,0a3.09,3.09,0,0,0,1,.16c1.29,0,3.54-.63,5.73-4.29l.06-.1a8,8,0,0,0,1.26,3.3,4.21,4.21,0,0,0,3,1.78h.2c.7,0,3.4-.24,5.69-3.55,0,.1,0,.2.07.3a3.87,3.87,0,0,0,2.26,2.34,4.18,4.18,0,0,0,3.48-.17,6,6,0,0,0,2.37-2.46,4.2,4.2,0,0,0,3.65,2.88l.33,0c4.15,0,6.66-6,6.76-6.27A.86.86,0,0,0,255.6,270.57Zm-140-4.9c-.41-.05-.54-.16-.55-.18a1.87,1.87,0,0,1,.43-1.1,1.64,1.64,0,0,1,0,.25,6.91,6.91,0,0,1,.1,1Zm15.89,8.15a3,3,0,0,1-.24-.47c-.67-1.49-.38-3.21.84-5.11a2.54,2.54,0,0,1,1.6-1.08,2,2,0,0,1,1.55.82,1.39,1.39,0,0,1,.41,1.09c-.14,1.65-2.8,3.7-3.94,4.58Zm12.78,9.65c-.21,6.44-.4,12-2.36,17.29a1,1,0,0,1-.87.64.62.62,0,0,1-.5-.15,2.76,2.76,0,0,1-.56-1.74,36.82,36.82,0,0,1,.85-9.64,54.59,54.59,0,0,1,2.64-8c.29-.74.55-1.49.79-2.23C144.32,281.7,144.32,283.18,144.31,283.47Zm3.68-7.18c-.93-1.15-.85-3.46-.74-4.26a8.52,8.52,0,0,1,3.43-3.89l.07,0c1.19-.54,1.69-.12,1.85,0,.79.65,1.11,2.4.72,3.9-.61,2.38-2,5.11-3.95,5A1.88,1.88,0,0,1,148,276.29Zm21.62-3.39c-.35-.28-3.48-2.82-2.37-4.6.15-.24.45-.63.81-.63h0c.36,0,.77.39,1.06,1A7.41,7.41,0,0,1,169.61,272.9Zm22-23a1,1,0,0,1,.86-.63h.06a.6.6,0,0,1,.44.16,2.65,2.65,0,0,1,.56,1.73c0,.36,0,.73,0,1.09h-2.7C191.09,251.49,191.33,250.7,191.62,249.94Zm-1.32,18c-.08.18-.17.36-.26.54-.11-.53-.2-1.07-.27-1.6a37.89,37.89,0,0,1,.64-12.92h3.13A36.62,36.62,0,0,1,190.3,268ZM201,273.8a5.39,5.39,0,0,1-.25-.48c-.66-1.49-.37-3.21.85-5.11a2.63,2.63,0,0,1,1.59-1.08,2,2,0,0,1,1.56.83,1.38,1.38,0,0,1,.41,1.09c-.14,1.64-2.8,3.7-3.94,4.58Zm11.77-8.15c-.42-.06-.55-.17-.56-.19a1.87,1.87,0,0,1,.43-1.1c0,.08,0,.16,0,.25a8.56,8.56,0,0,1,.09,1Z" transform="translate(-55.18 -25.84)"/><path class="cls-1" d="M228.71,262.94a.86.86,0,0,0,.6-.24l4.24-4.08a.86.86,0,1,0-1.19-1.23l-4.24,4.08a.86.86,0,0,0,.59,1.47Z" transform="translate(-55.18 -25.84)"/><path class="cls-1" d="M352.74,107.92c-9.66-9.66-16.27-23.23-17.7-26.3,1.28-4.19,0-6.73-1.32-8.15-6.83-7.24-31.78-1.23-46.05,3a42,42,0,0,0-12.62,6.19c-2.1-.34-4.87-1.08-6.14-2.45-2.42-2.64-15.1-15.32-15.64-15.85l-.48-.49V28.79h0a3.14,3.14,0,0,0-6.26,0h0V29h0V63.74l-.61.62c-.54.53-13.22,13.21-15.64,15.85-1.27,1.37-4,2.11-6.14,2.45a42,42,0,0,0-12.62-6.19c-14.27-4.23-39.21-10.24-46-3-1.33,1.42-2.6,4-1.32,8.15-1.43,3.07-8,16.64-17.7,26.3-12.33,12.33-19.37,35.72-2.17,64.4l1.39,1.48.47.34c11.35,5.92,21.71,8.34,30.83,8.34,14.71,0,26.18-6.29,33.33-14.35,6-6.72,13.6-12.2,19.3-15.78a9,9,0,0,0,3.33,1.3,6.55,6.55,0,0,0,1,.07,6.34,6.34,0,0,0,4.15-1.53c5.09-4.3,5.43-16.9,5.62-23.66,0-.92,0-1.68.07-2.24.8-14.34-3.9-27.59-12.35-37.08-.91-3.36,2.47-6.41,2.67-6.59l15.25-15.25h.59l15.29,15.3c.16.14,3.54,3.18,2.63,6.54-8.45,9.49-13.15,22.74-12.36,37.08,0,.56.06,1.32.08,2.24.18,6.76.53,19.36,5.62,23.66a6.34,6.34,0,0,0,4.15,1.53,6.55,6.55,0,0,0,1-.07,9.06,9.06,0,0,0,3.33-1.3c5.7,3.58,13.34,9.06,19.3,15.78,7.14,8.06,18.62,14.35,33.33,14.35,9.12,0,19.48-2.42,30.83-8.34l1.58-1.47.28-.35C372.11,143.64,365.07,120.25,352.74,107.92ZM225.42,88.55l.27.24h-.27ZM195.31,76.19c4.64,1,9.7,2.29,15.1,3.89a38.23,38.23,0,0,1,11.25,5.45v3.26H195.31Zm0,16.37h26.35v26.35H195.31Zm26.35,30.11v20c-4.29-3-8.38-6.24-12.31-9.63l-.32-.29-1.83-1.61-.68-.62-1.45-1.33-1.07-1-1-1-1.45-1.42-.62-.61c-.61-.6-1.2-1.21-1.8-1.83l-.26-.26-.36-.38ZM168.17,76.05c1.4-1.48,4.53-2.2,9-2.2a81.13,81.13,0,0,1,14.36,1.58V88.79H171.36a56.83,56.83,0,0,1-3.46-7.71C166.66,77.65,167.8,76.45,168.17,76.05Zm23.37,16.51v22.49c-.72-.82-1.46-1.63-2.18-2.45l-2-2.29a133.38,133.38,0,0,1-13.8-17.75Zm15.9,73.08c-10.59,11.94-31.74,19.58-59.34,5.3l-.74-.75c-16-26.74-9.59-48.31,1.71-59.61C157.2,102.44,163.13,92,166,86.39l.09.18c.11.25.23.49.35.74.19.42.39.85.6,1.26s.27.54.41.81.39.77.6,1.16l.45.81c.12.22.23.44.36.66v.55h.32l.41.71.68,1.11.47.76.75,1.16.44.67c.31.47.63.93.95,1.39l.28.4c.41.59.83,1.17,1.26,1.75l.43.57.88,1.17.53.69.8,1,.58.72.78,1,.59.72.81,1,.58.69c.27.33.55.66.83,1l.56.64c.31.36.61.72.92,1.07.16.18.31.36.47.53l1.38,1.57,2,2.28c1.81,2,3.63,4.11,5.47,6.16.66.73,1.32,1.45,2,2.17l.6.63,1.41,1.49.77.78,1.27,1.29.87.87,1.18,1.15,1,.93,1.1,1,1.07,1,1,.94c.38.35.77.69,1.16,1l.94.84,1.28,1.1.83.7,1.42,1.19.69.56,1.58,1.28.48.38,1.83,1.42.13.1q5.49,4.2,11.42,8A93.13,93.13,0,0,0,207.44,165.64ZM240,126.08c0,.59-.06,1.39-.08,2.35-.15,5.29-.48,17.67-4.29,20.88a2.55,2.55,0,0,1-2.17.62,6.16,6.16,0,0,1-2.11-.92l-.76-.47q-2.61-1.62-5.13-3.3V122.67H240C240,123.8,240,124.94,240,126.08Zm-.11-7.17H225.42V92.56h3.87A46.73,46.73,0,0,1,239.85,118.91ZM307.6,75.43A81.32,81.32,0,0,1,322,73.85c4.48,0,7.61.72,9,2.2.37.4,1.51,1.6.27,5a56.83,56.83,0,0,1-3.46,7.71H307.6Zm0,17.13h18a132.62,132.62,0,0,1-13.81,17.75l-2,2.29c-.72.82-1.46,1.63-2.19,2.45Zm-30.11-7a38.23,38.23,0,0,1,11.25-5.45c5.4-1.6,10.46-2.9,15.1-3.89v12.6H277.49Zm0,7h26.35v26.35H277.49Zm0,30.11h23.18l-.36.38-.55.56-1.5,1.52c-.29.3-.59.58-.89.87l-1.18,1.17-1.25,1.18-.85.81-1.59,1.45-.54.49L290,132.82l-.21.18c-3.92,3.4-8,6.6-12.31,9.64Zm-3.76-34.12v.24h-.27Zm-3.87,4h3.87v26.35H259.3A46.73,46.73,0,0,1,269.86,92.56Zm-1.26,56-.83.52a6,6,0,0,1-2,.87,2.54,2.54,0,0,1-2.17-.62c-3.81-3.21-4.14-15.59-4.29-20.88,0-1,0-1.76-.08-2.35-.06-1.14-.08-2.28-.07-3.41h14.61v22.56Q271.21,146.93,268.6,148.54Zm83.19,21.65-.74.75c-27.61,14.28-48.75,6.64-59.34-5.31a93.4,93.4,0,0,0-18.59-15.49q5.92-3.81,11.4-8l.15-.11c.61-.47,1.22-.94,1.82-1.42l.49-.38,1.59-1.28.68-.56c.48-.39.95-.79,1.42-1.19l.82-.69,1.3-1.12.91-.81,1.2-1.07,1-.9,1.11-1,1.06-1c.34-.32.68-.64,1-1l1.13-1.11.93-.91,1.2-1.23.83-.84,1.35-1.43.65-.69q1-1.06,2-2.16c1.85-2,3.67-4.11,5.48-6.16l2-2.28,1.38-1.57c.16-.17.31-.35.47-.53l.92-1.06c.19-.22.37-.44.56-.65l.83-1,.59-.69.8-1,.59-.72.78-1,.58-.72.8-1,.53-.69.88-1.17.43-.57c.43-.58.85-1.16,1.26-1.75l.28-.4c.32-.46.64-.92.95-1.39l.44-.67.75-1.16.47-.76.68-1.11.41-.71h.32V92l.36-.66.45-.81.61-1.16.4-.81c.21-.41.41-.84.6-1.26.12-.25.24-.49.35-.74a1.42,1.42,0,0,0,.08-.18c2.85,5.58,8.77,16,16.91,24.19C361.38,121.88,367.74,143.45,351.79,170.19Z" transform="translate(-55.18 -25.84)"/></svg>